<?xml version="1.0" encoding="UTF-8"?>
<svg version="1.1" xmlns="http://www.w3.org/2000/svg" width="200" height="200">
<path d="M0 0 C66 0 132 0 200 0 C200 66 200 132 200 200 C134 200 68 200 0 200 C0 134 0 68 0 0 Z " fill="#FDFEFE" transform="translate(0,0)"/>
<path d="M0 0 C0.66 0 1.32 0 2 0 C2 34.32 2 68.64 2 104 C0.68 104 -0.64 104 -2 104 C-2 103.34 -2 102.68 -2 102 C-3.32 102 -4.64 102 -6 102 C-6 101.34 -6 100.68 -6 100 C-6.66 100 -7.32 100 -8 100 C-8 99.34 -8 98.68 -8 98 C-9.32 98 -10.64 98 -12 98 C-12 97.34 -12 96.68 -12 96 C-13.32 96 -14.64 96 -16 96 C-16 95.34 -16 94.68 -16 94 C-17.32 94 -18.64 94 -20 94 C-20 93.34 -20 92.68 -20 92 C-20.66 92 -21.32 92 -22 92 C-22 91.34 -22 90.68 -22 90 C-23.32 90 -24.64 90 -26 90 C-26 89.34 -26 88.68 -26 88 C-27.32 88 -28.64 88 -30 88 C-30 87.34 -30 86.68 -30 86 C-31.32 86 -32.64 86 -34 86 C-34 85.34 -34 84.68 -34 84 C-34.66 84 -35.32 84 -36 84 C-36 83.34 -36 82.68 -36 82 C-37.32 82 -38.64 82 -40 82 C-40 62.86 -40 43.72 -40 24 C-39.34 24 -38.68 24 -38 24 C-38 23.34 -38 22.68 -38 22 C-36.68 22 -35.36 22 -34 22 C-34 21.34 -34 20.68 -34 20 C-33.34 20 -32.68 20 -32 20 C-32 19.34 -32 18.68 -32 18 C-30.68 18 -29.36 18 -28 18 C-28 17.34 -28 16.68 -28 16 C-26.68 16 -25.36 16 -24 16 C-24 15.34 -24 14.68 -24 14 C-22.68 14 -21.36 14 -20 14 C-20 13.34 -20 12.68 -20 12 C-18.68 12 -17.36 12 -16 12 C-16 11.34 -16 10.68 -16 10 C-15.34 10 -14.68 10 -14 10 C-14 9.34 -14 8.68 -14 8 C-12.68 8 -11.36 8 -10 8 C-10 7.34 -10 6.68 -10 6 C-8.68 6 -7.36 6 -6 6 C-6 5.34 -6 4.68 -6 4 C-4.68 4 -3.36 4 -2 4 C-2 3.34 -2 2.68 -2 2 C-1.34 2 -0.68 2 0 2 C0 1.34 0 0.68 0 0 Z " fill="#19B8E1" transform="translate(88,48)"/>
<path d="M0 0 C0.66 0 1.32 0 2 0 C2 15.84 2 31.68 2 48 C1.34 48 0.68 48 0 48 C0 48.66 0 49.32 0 50 C-1.32 50 -2.64 50 -4 50 C-4 50.66 -4 51.32 -4 52 C-5.32 52 -6.64 52 -8 52 C-8 52.66 -8 53.32 -8 54 C-8.66 54 -9.32 54 -10 54 C-10 54.66 -10 55.32 -10 56 C-11.32 56 -12.64 56 -14 56 C-14 56.66 -14 57.32 -14 58 C-15.32 58 -16.64 58 -18 58 C-18 58.66 -18 59.32 -18 60 C-19.32 60 -20.64 60 -22 60 C-22 60.66 -22 61.32 -22 62 C-23.32 62 -24.64 62 -26 62 C-26 62.66 -26 63.32 -26 64 C-26.66 64 -27.32 64 -28 64 C-28 64.66 -28 65.32 -28 66 C-29.32 66 -30.64 66 -32 66 C-32 66.66 -32 67.32 -32 68 C-33.32 68 -34.64 68 -36 68 C-36 68.66 -36 69.32 -36 70 C-37.32 70 -38.64 70 -40 70 C-40 70.66 -40 71.32 -40 72 C-40.66 72 -41.32 72 -42 72 C-42 72.66 -42 73.32 -42 74 C-44.64 74 -47.28 74 -50 74 C-50 58.82 -50 43.64 -50 28 C-48.68 28 -47.36 28 -46 28 C-46 27.34 -46 26.68 -46 26 C-44.68 26 -43.36 26 -42 26 C-42 25.34 -42 24.68 -42 24 C-41.34 24 -40.68 24 -40 24 C-40 23.34 -40 22.68 -40 22 C-38.68 22 -37.36 22 -36 22 C-36 21.34 -36 20.68 -36 20 C-34.68 20 -33.36 20 -32 20 C-32 19.34 -32 18.68 -32 18 C-31.34 18 -30.68 18 -30 18 C-30 17.34 -30 16.68 -30 16 C-28.68 16 -27.36 16 -26 16 C-26 15.34 -26 14.68 -26 14 C-24.68 14 -23.36 14 -22 14 C-22 13.34 -22 12.68 -22 12 C-21.34 12 -20.68 12 -20 12 C-20 11.34 -20 10.68 -20 10 C-18.68 10 -17.36 10 -16 10 C-16 9.34 -16 8.68 -16 8 C-14.68 8 -13.36 8 -12 8 C-12 7.34 -12 6.68 -12 6 C-10.68 6 -9.36 6 -8 6 C-8 5.34 -8 4.68 -8 4 C-6.68 4 -5.36 4 -4 4 C-4 3.34 -4 2.68 -4 2 C-2.68 2 -1.36 2 0 2 C0 1.34 0 0.68 0 0 Z " fill="#60CDE9" transform="translate(144,82)"/>
<path d="M0 0 C2.64 0 5.28 0 8 0 C8 0.66 8 1.32 8 2 C9.32 2 10.64 2 12 2 C12 2.66 12 3.32 12 4 C12.66 4 13.32 4 14 4 C14 4.66 14 5.32 14 6 C15.32 6 16.64 6 18 6 C18 6.66 18 7.32 18 8 C19.32 8 20.64 8 22 8 C22 8.66 22 9.32 22 10 C23.32 10 24.64 10 26 10 C26 10.66 26 11.32 26 12 C26.66 12 27.32 12 28 12 C28 12.66 28 13.32 28 14 C29.32 14 30.64 14 32 14 C32 14.66 32 15.32 32 16 C33.32 16 34.64 16 36 16 C36 16.66 36 17.32 36 18 C37.32 18 38.64 18 40 18 C40 18.66 40 19.32 40 20 C40.66 20 41.32 20 42 20 C42 20.66 42 21.32 42 22 C43.32 22 44.64 22 46 22 C46 22.66 46 23.32 46 24 C46.66 24 47.32 24 48 24 C48 24.66 48 25.32 48 26 C49.32 26 50.64 26 52 26 C52 27.32 52 28.64 52 30 C51.34 30 50.68 30 50 30 C50 30.66 50 31.32 50 32 C49.34 32 48.68 32 48 32 C48 32.66 48 33.32 48 34 C46.68 34 45.36 34 44 34 C44 34.66 44 35.32 44 36 C42.68 36 41.36 36 40 36 C40 36.66 40 37.32 40 38 C39.34 38 38.68 38 38 38 C38 38.66 38 39.32 38 40 C36.68 40 35.36 40 34 40 C34 40.66 34 41.32 34 42 C32.68 42 31.36 42 30 42 C30 42.66 30 43.32 30 44 C29.34 44 28.68 44 28 44 C28 44.66 28 45.32 28 46 C26.68 46 25.36 46 24 46 C24 46.66 24 47.32 24 48 C22.68 48 21.36 48 20 48 C20 48.66 20 49.32 20 50 C18.68 50 17.36 50 16 50 C16 50.66 16 51.32 16 52 C13.36 52 10.72 52 8 52 C8 51.34 8 50.68 8 50 C6.68 50 5.36 50 4 50 C4 49.34 4 48.68 4 48 C3.34 48 2.68 48 2 48 C2 47.34 2 46.68 2 46 C1.34 46 0.68 46 0 46 C0 30.82 0 15.64 0 0 Z " fill="#29BDE1" transform="translate(94,46)"/>
<path d="M0 0 C0.33 0 0.66 0 1 0 C1 15.18 1 30.36 1 46 C1.66 46 2.32 46 3 46 C3 46.66 3 47.32 3 48 C3.66 48 4.32 48 5 48 C5 48.66 5 49.32 5 50 C6.32 50 7.64 50 9 50 C9 50.66 9 51.32 9 52 C11.64 52 14.28 52 17 52 C17 51.34 17 50.68 17 50 C18.32 50 19.64 50 21 50 C21 49.34 21 48.68 21 48 C22.32 48 23.64 48 25 48 C25 47.34 25 46.68 25 46 C26.32 46 27.64 46 29 46 C29 45.34 29 44.68 29 44 C29.66 44 30.32 44 31 44 C31 43.34 31 42.68 31 42 C32.32 42 33.64 42 35 42 C35 41.34 35 40.68 35 40 C36.32 40 37.64 40 39 40 C39 39.34 39 38.68 39 38 C39.66 38 40.32 38 41 38 C41 37.34 41 36.68 41 36 C42.32 36 43.64 36 45 36 C45 35.34 45 34.68 45 34 C46.32 34 47.64 34 49 34 C49 33.34 49 32.68 49 32 C51.30652828 33.15326414 53.08695619 34.25701986 55 36 C55.48101807 38.18302917 55.48101807 38.18302917 55.45410156 40.74682617 C55.45379944 41.70759567 55.45349731 42.66836517 55.45318604 43.6582489 C55.43254089 44.69270645 55.41189575 45.727164 55.390625 46.79296875 C55.38496521 47.85413406 55.37930542 48.91529938 55.37347412 50.00862122 C55.35106143 53.40203735 55.30085449 56.79440235 55.25 60.1875 C55.2299414 62.48631289 55.21168952 64.78514231 55.1953125 67.08398438 C55.1511807 72.72301564 55.08421972 78.36143273 55 84 C54.34 84 53.68 84 53 84 C53 68.16 53 52.32 53 36 C52.34 36 51.68 36 51 36 C51 36.66 51 37.32 51 38 C49.68 38 48.36 38 47 38 C47 38.66 47 39.32 47 40 C45.68 40 44.36 40 43 40 C43 40.66 43 41.32 43 42 C41.68 42 40.36 42 39 42 C39 42.66 39 43.32 39 44 C37.68 44 36.36 44 35 44 C35 44.66 35 45.32 35 46 C33.68 46 32.36 46 31 46 C31 46.66 31 47.32 31 48 C30.34 48 29.68 48 29 48 C29 48.66 29 49.32 29 50 C27.68 50 26.36 50 25 50 C25 50.66 25 51.32 25 52 C23.68 52 22.36 52 21 52 C21 52.66 21 53.32 21 54 C20.34 54 19.68 54 19 54 C19 54.66 19 55.32 19 56 C17.68 56 16.36 56 15 56 C15 56.66 15 57.32 15 58 C13.68 58 12.36 58 11 58 C11 58.66 11 59.32 11 60 C10.34 60 9.68 60 9 60 C9 60.66 9 61.32 9 62 C7.68 62 6.36 62 5 62 C5 62.66 5 63.32 5 64 C3.68 64 2.36 64 1 64 C1 79.18 1 94.36 1 110 C0.67 110 0.34 110 0 110 C0 95.48 0 80.96 0 66 C-0.66 66 -1.32 66 -2 66 C-2 79.53 -2 93.06 -2 107 C-3.485 107.495 -3.485 107.495 -5 108 C-5 107.34 -5 106.68 -5 106 C-4.34 106 -3.68 106 -3 106 C-3 72.34 -3 38.68 -3 4 C-2.67 4 -2.34 4 -2 4 C-1.67 18.52 -1.34 33.04 -1 48 C-0.67 48 -0.34 48 0 48 C0 32.16 0 16.32 0 0 Z " fill="#EDFDFD" transform="translate(93,46)"/>
<path d="M0 0 C2.30652828 1.15326414 4.08695619 2.25701986 6 4 C6.48101807 6.18302917 6.48101807 6.18302917 6.45410156 8.74682617 C6.45379944 9.70759567 6.45349731 10.66836517 6.45318604 11.6582489 C6.43254089 12.69270645 6.41189575 13.727164 6.390625 14.79296875 C6.38496521 15.85413406 6.37930542 16.91529938 6.37347412 18.00862122 C6.35106143 21.40203735 6.30085449 24.79440235 6.25 28.1875 C6.2299414 30.48631289 6.21168952 32.78514231 6.1953125 35.08398438 C6.1511807 40.72301564 6.08421972 46.36143273 6 52 C5.34 52 4.68 52 4 52 C4 36.16 4 20.32 4 4 C3.34 4 2.68 4 2 4 C2 4.66 2 5.32 2 6 C0.68 6 -0.64 6 -2 6 C-2 6.66 -2 7.32 -2 8 C-3.32 8 -4.64 8 -6 8 C-6 8.66 -6 9.32 -6 10 C-7.32 10 -8.64 10 -10 10 C-10 10.66 -10 11.32 -10 12 C-11.32 12 -12.64 12 -14 12 C-14 12.66 -14 13.32 -14 14 C-15.32 14 -16.64 14 -18 14 C-18 14.66 -18 15.32 -18 16 C-18.66 16 -19.32 16 -20 16 C-20 16.66 -20 17.32 -20 18 C-21.32 18 -22.64 18 -24 18 C-24 18.66 -24 19.32 -24 20 C-25.32 20 -26.64 20 -28 20 C-28 20.66 -28 21.32 -28 22 C-28.66 22 -29.32 22 -30 22 C-30 22.66 -30 23.32 -30 24 C-30.66 24 -31.32 24 -32 24 C-32 23.01 -32 22.02 -32 21 C-33.32 21.33 -34.64 21.66 -36 22 C-36 21.34 -36 20.68 -36 20 C-34.68 20 -33.36 20 -32 20 C-32 19.34 -32 18.68 -32 18 C-30.68 18 -29.36 18 -28 18 C-28 17.34 -28 16.68 -28 16 C-26.68 16 -25.36 16 -24 16 C-24 15.34 -24 14.68 -24 14 C-22.68 14 -21.36 14 -20 14 C-20 13.34 -20 12.68 -20 12 C-19.34 12 -18.68 12 -18 12 C-18 11.34 -18 10.68 -18 10 C-16.68 10 -15.36 10 -14 10 C-14 9.34 -14 8.68 -14 8 C-12.68 8 -11.36 8 -10 8 C-10 7.34 -10 6.68 -10 6 C-9.34 6 -8.68 6 -8 6 C-8 5.34 -8 4.68 -8 4 C-6.68 4 -5.36 4 -4 4 C-4 3.34 -4 2.68 -4 2 C-2.68 2 -1.36 2 0 2 C0 1.34 0 0.68 0 0 Z " fill="#BAECF5" transform="translate(142,78)"/>
<path d="M0 0 C0.66 0 1.32 0 2 0 C2 34.32 2 68.64 2 104 C0.68 104 -0.64 104 -2 104 C-2 103.34 -2 102.68 -2 102 C-1.34 102 -0.68 102 0 102 C0 69.99 0 37.98 0 5 C-1.98 5.33 -3.96 5.66 -6 6 C-6 5.34 -6 4.68 -6 4 C-4.68 4 -3.36 4 -2 4 C-2 3.34 -2 2.68 -2 2 C-1.34 2 -0.68 2 0 2 C0 1.34 0 0.68 0 0 Z " fill="#41B2CF" transform="translate(88,48)"/>
<path d="M0 0 C0 0.66 0 1.32 0 2 C-1.32 2 -2.64 2 -4 2 C-4 2.66 -4 3.32 -4 4 C-5.32 4 -6.64 4 -8 4 C-8 19.18 -8 34.36 -8 50 C-8.33 50 -8.66 50 -9 50 C-9 34.49 -9 18.98 -9 3 C-3 0 -3 0 0 0 Z " fill="#E3FCFD" transform="translate(102,106)"/>
<path d="M0 0 C0.99 0.33 1.98 0.66 3 1 C2.67 1.99 2.34 2.98 2 4 C0.02 4.33 -1.96 4.66 -4 5 C-4.33 5.99 -4.66 6.98 -5 8 C-5.99 7.67 -6.98 7.34 -8 7 C-8 7.66 -8 8.32 -8 9 C-9.29009643 9.50403768 -10.58213789 10.00309926 -11.875 10.5 C-12.59429687 10.7784375 -13.31359375 11.056875 -14.0546875 11.34375 C-16 12 -16 12 -18 12 C-18 11.34 -18 10.68 -18 10 C-16.68 10 -15.36 10 -14 10 C-14 9.34 -14 8.68 -14 8 C-12.68 8 -11.36 8 -10 8 C-10 7.34 -10 6.68 -10 6 C-8.68 6 -7.36 6 -6 6 C-6 5.34 -6 4.68 -6 4 C-5.34 4 -4.68 4 -4 4 C-4 3.34 -4 2.68 -4 2 C-2.68 2 -1.36 2 0 2 C0 1.34 0 0.68 0 0 Z " fill="#3DBADC" transform="translate(78,54)"/>
<path d="M0 0 C2.13093906 1.06546953 3.36587557 2.29159719 5 4 C4.01 4 3.02 4 2 4 C2 4.66 2 5.32 2 6 C0.68 6 -0.64 6 -2 6 C-2 6.66 -2 7.32 -2 8 C-2.66 8 -3.32 8 -4 8 C-4 7.01 -4 6.02 -4 5 C-5.32 5.33 -6.64 5.66 -8 6 C-8 5.34 -8 4.68 -8 4 C-6.68 4 -5.36 4 -4 4 C-4 3.34 -4 2.68 -4 2 C-2.68 2 -1.36 2 0 2 C0 1.34 0 0.68 0 0 Z " fill="#C7F1FA" transform="translate(142,78)"/>
<path d="M0 0 C0.66 0 1.32 0 2 0 C2 0.66 2 1.32 2 2 C3.32 2 4.64 2 6 2 C6 2.66 6 3.32 6 4 C7.32 4 8.64 4 10 4 C10 4.66 10 5.32 10 6 C10.66 6 11.32 6 12 6 C11.67 6.66 11.34 7.32 11 8 C8.625 7.6875 8.625 7.6875 6 7 C5.34 6.01 4.68 5.02 4 4 C1.94074861 3.27617533 1.94074861 3.27617533 0 3 C0 2.01 0 1.02 0 0 Z " fill="#50C0DB" transform="translate(124,60)"/>
<path d="M0 0 C0 0.99 0 1.98 0 3 C-0.66 3 -1.32 3 -2 3 C-2 3.66 -2 4.32 -2 5 C-3.98 5 -5.96 5 -8 5 C-8 4.34 -8 3.68 -8 3 C-7.34 3 -6.68 3 -6 3 C-6 2.34 -6 1.68 -6 1 C-3.92446352 0.4465236 -2.15634036 0 0 0 Z " fill="#E7FBFD" transform="translate(138,83)"/>
<path d="M0 0 C0.66 0 1.32 0 2 0 C1.67 3.96 1.34 7.92 1 12 C0.67 12 0.34 12 0 12 C0 9.69 0 7.38 0 5 C-1.98 5.33 -3.96 5.66 -6 6 C-6 5.34 -6 4.68 -6 4 C-4.68 4 -3.36 4 -2 4 C-2 3.34 -2 2.68 -2 2 C-1.34 2 -0.68 2 0 2 C0 1.34 0 0.68 0 0 Z " fill="#43BFDF" transform="translate(88,48)"/>
<path d="M0 0 C0.66 0 1.32 0 2 0 C2 0.66 2 1.32 2 2 C3.32 2 4.64 2 6 2 C6 2.66 6 3.32 6 4 C6.66 4 7.32 4 8 4 C8 4.66 8 5.32 8 6 C5.69 5.34 3.38 4.68 1 4 C0.67 2.68 0.34 1.36 0 0 Z " fill="#C8F4F9" transform="translate(60,136)"/>
<path d="M0 0 C2.13093906 1.06546953 3.36587557 2.29159719 5 4 C4.01 4 3.02 4 2 4 C2 4.66 2 5.32 2 6 C0.68 6 -0.64 6 -2 6 C-1.34 4.02 -0.68 2.04 0 0 Z " fill="#DCF8FC" transform="translate(142,78)"/>
<path d="M0 0 C0.99 0 1.98 0 3 0 C3 0.66 3 1.32 3 2 C4.32 2 5.64 2 7 2 C7 2.66 7 3.32 7 4 C5.02 4.33 3.04 4.66 1 5 C0.67 3.35 0.34 1.7 0 0 Z " fill="#2DBBD4" transform="translate(105,50)"/>
<path d="M0 0 C0.99 0.33 1.98 0.66 3 1 C2.67 1.99 2.34 2.98 2 4 C0.02 4 -1.96 4 -4 4 C-4 3.34 -4 2.68 -4 2 C-2.68 2 -1.36 2 0 2 C0 1.34 0 0.68 0 0 Z " fill="#4BC1E2" transform="translate(78,54)"/>
<path d="M0 0 C1.32 0 2.64 0 4 0 C4 0.66 4 1.32 4 2 C5.32 2 6.64 2 8 2 C8 2.66 8 3.32 8 4 C5.69 3.67 3.38 3.34 1 3 C0.67 2.01 0.34 1.02 0 0 Z " fill="#48C1DA" transform="translate(112,54)"/>
</svg>
