<?xml version="1.0" encoding="UTF-8"?>
<svg version="1.1" xmlns="http://www.w3.org/2000/svg" width="200" height="200">
<path d="M0 0 C66 0 132 0 200 0 C200 66 200 132 200 200 C134 200 68 200 0 200 C0 134 0 68 0 0 Z " fill="#FDFEFE" transform="translate(0,0)"/>
<path d="M0 0 C3.02394555 1.4145321 5.70037834 3.22305768 8.4375 5.125 C9.14970703 5.599375 9.86191406 6.07375 10.59570312 6.5625 C26.6611836 17.36037062 26.6611836 17.36037062 27.42382812 21.05102539 C27.75434115 28.69413901 25.2363462 32.63990029 20.5 38.4375 C19.20920261 40.09211036 17.91883571 41.74705666 16.62890625 43.40234375 C15.68942139 44.58352783 15.68942139 44.58352783 14.73095703 45.78857422 C11.90332983 49.40107735 9.33849699 53.18491895 6.74609375 56.96875 C3.83964392 60.34985495 0.41656678 62.44140198 -4.0625 62.8125 C-10.6464128 62.60470209 -14.92823682 57.57325509 -19.50244141 53.34716797 C-21.78154965 51.29693659 -24.20272201 49.43950329 -26.625 47.5625 C-32.65129706 42.89163222 -32.65129706 42.89163222 -33.36669922 39.01074219 C-33.54659272 32.68797368 -31.91027636 29.21181512 -28.125 24.25 C-27.6304834 23.57042236 -27.1359668 22.89084473 -26.62646484 22.19067383 C-25.10401011 20.11166706 -23.55281013 18.05638408 -22 16 C-21.0712749 14.72906266 -20.14412064 13.45697555 -19.21875 12.18359375 C-9.27493202 -1.26786663 -9.27493202 -1.26786663 0 0 Z " fill="#042D69" transform="translate(118,76)"/>
<path d="M0 0 C0.88300781 0.47050781 1.76601562 0.94101562 2.67578125 1.42578125 C17.20033482 9.20033482 17.20033482 9.20033482 20 12 C20.52147482 16.71352479 20.70387786 19.66951166 17.69140625 23.45703125 C16.66765014 24.59313256 15.6235624 25.71116021 14.5625 26.8125 C13.45703284 28.02355376 12.35287977 29.23580825 11.25 30.44921875 C10.69957031 31.04395996 10.14914063 31.63870117 9.58203125 32.25146484 C6.55998035 35.59157727 3.82378634 39.15982387 1.03515625 42.6953125 C-4.23559114 48.66410513 -4.23559114 48.66410513 -8.24169922 49.42675781 C-15.04935445 49.81217099 -19.15550169 47.79658693 -24.5625 43.875 C-26.03252978 42.85673863 -27.50258166 41.83850918 -28.97265625 40.8203125 C-29.66504395 40.32950195 -30.35743164 39.83869141 -31.07080078 39.33300781 C-33.47263879 37.67342346 -35.98168983 36.22472244 -38.5 34.75 C-41.55543653 32.68535551 -41.94018692 32.15950154 -43.3125 28.5 C-42.72306178 21.89829194 -37.69133844 17.33265704 -33.3125 12.6875 C-32.78720703 12.12643555 -32.26191406 11.56537109 -31.72070312 10.98730469 C-30.15281213 9.31939635 -28.57716506 7.65913514 -27 6 C-26.12730469 5.07316406 -25.25460938 4.14632812 -24.35546875 3.19140625 C-23.57816406 2.38574219 -22.80085938 1.58007812 -22 0.75 C-20.9790625 -0.30960938 -20.9790625 -0.30960938 -19.9375 -1.390625 C-13.51524256 -6.72524207 -6.37039344 -3.5634731 0 0 Z " fill="#032D69" transform="translate(164,37)"/>
<path d="M0 0 C2.30000919 1.57959553 4.16728564 3.05986354 6.1875 4.9375 C7.32068227 5.94636068 8.45481433 6.95415543 9.58984375 7.9609375 C10.15558105 8.46979492 10.72131836 8.97865234 11.30419922 9.50292969 C14.74530094 12.54076956 18.36803502 15.35769273 21.953125 18.22265625 C24.37149514 20.32257689 24.89860175 21.28214649 25.34375 24.43359375 C25.72693637 31.8003518 24.4858503 35.96115763 20.20703125 41.921875 C18.50389769 44.2972188 16.95982059 46.64617787 15.44921875 49.140625 C15.01270996 49.86088867 14.57620117 50.58115234 14.12646484 51.32324219 C13.26572407 52.74917394 12.40786483 54.17684999 11.55322266 55.60644531 C7.40536285 62.35646108 7.40536285 62.35646108 4 64 C-0.19184597 64.57572459 -2.1629349 64.62748319 -5.58984375 62.05859375 C-6.75193359 60.76115234 -6.75193359 60.76115234 -7.9375 59.4375 C-10.97306703 56.16629535 -13.95971857 53.06218754 -17.375 50.1875 C-21.88474694 46.25172085 -25.01775656 43.4100026 -26.0625 37.3125 C-26.44415511 31.16058305 -23.99430541 27.19577416 -21 22 C-20.03483971 19.98241834 -19.07669998 17.96146573 -18.125 15.9375 C-9.63041851 -1.09567636 -9.63041851 -1.09567636 0 0 Z " fill="#042E69" transform="translate(82,126)"/>
<path d="M0 0 C1.69138362 0.95760077 3.35517879 1.96446103 5 3 C5.94359375 3.52078125 6.8871875 4.0415625 7.859375 4.578125 C15.60642987 9.05885403 15.60642987 9.05885403 17.4375 13.4375 C16.42158743 21.70993094 11.59451676 26.89468863 6.37890625 33.046875 C3.20234011 36.99019849 0.51377111 41.18350934 -2.17578125 45.46875 C-4.76628911 49.06328767 -6.45191076 50.71699324 -10.86328125 51.5234375 C-15.09822674 50.81673427 -17.28010299 48.57293107 -20.1875 45.625 C-24.354278 41.53301917 -24.354278 41.53301917 -29 38 C-29.93499111 34.24006959 -29.64656351 30.46685642 -28.0859375 26.92626953 C-26.81890593 24.88215933 -25.45635473 22.97615154 -24 21.0625 C-23.50105225 20.37518799 -23.00210449 19.68787598 -22.48803711 18.97973633 C-21.01545361 16.96759106 -19.51386001 14.98120208 -18 13 C-17.21753906 11.96101563 -16.43507813 10.92203125 -15.62890625 9.8515625 C-7.29461187 -0.89321778 -7.29461187 -0.89321778 0 0 Z " fill="#A1A2A5" transform="translate(85,56)"/>
<path d="M0 0 C5.94004097 1.72165893 11.8242917 3.5495278 17 7 C17.4296875 9.33203125 17.4296875 9.33203125 17 12 C15.3828125 14.32421875 15.3828125 14.32421875 13.125 16.6875 C12.30902344 17.55117188 11.49304688 18.41484375 10.65234375 19.3046875 C7.21934076 22.79330615 3.76755494 26.26027257 0.26171875 29.67578125 C-2.0722592 31.98655963 -2.0722592 31.98655963 -4.12109375 34.7421875 C-6 37 -6 37 -8.75 37.8125 C-9.4925 37.874375 -10.235 37.93625 -11 38 C-11 38.66 -11 39.32 -11 40 C-17.64438703 40.70591097 -21.40625385 38.5073883 -26.9375 35 C-28.10635742 34.28457031 -28.10635742 34.28457031 -29.29882812 33.5546875 C-31.20817706 32.38330779 -33.10759601 31.19849065 -35 30 C-35.07142256 24.31216724 -34.09274418 21.60115441 -30.17578125 17.421875 C-28.57245019 15.84630152 -26.95063314 14.28935769 -25.3125 12.75 C-24.1069043 11.56664062 -24.1069043 11.56664062 -22.87695312 10.359375 C-10.46370418 -1.65803036 -10.46370418 -1.65803036 0 0 Z " fill="#042D68" transform="translate(123,20)"/>
<path d="M0 0 C3.37978462 0.41935289 4.26268915 1.45280616 6.51953125 3.953125 C9.08973112 6.75298151 11.52357563 8.98628114 14.64453125 11.140625 C17.54233663 13.63688691 18.26514707 15.51995541 18.58203125 19.328125 C18.11606536 26.35565139 14.47806974 31.70833264 10.79541016 37.47705078 C9.61484191 39.37587735 8.51794293 41.30435256 7.4375 43.26171875 C7.08429687 43.90069092 6.73109375 44.53966309 6.3671875 45.19799805 C6.02558594 45.81843994 5.68398438 46.43888184 5.33203125 47.078125 C2.01376202 53.08197115 2.01376202 53.08197115 -1.35546875 55.328125 C-3.6484375 55.421875 -3.6484375 55.421875 -6.35546875 54.328125 C-8.76250127 52.0481838 -10.69472631 49.48468955 -12.66796875 46.828125 C-13.49264648 45.80332031 -13.49264648 45.80332031 -14.33398438 44.7578125 C-17.58658253 40.44256426 -19.19923504 37.10123326 -18.8190918 31.64013672 C-17.95055142 27.30886901 -16.10659784 23.55192278 -14.10546875 19.640625 C-13.70972656 18.82529297 -13.31398438 18.00996094 -12.90625 17.16992188 C-10.67557565 12.64640684 -8.24256261 8.4606319 -5.35546875 4.328125 C-4.88109375 3.544375 -4.40671875 2.760625 -3.91796875 1.953125 C-2.35546875 0.328125 -2.35546875 0.328125 0 0 Z " fill="#FBFBFB" transform="translate(50.35546875,99.671875)"/>
<path d="M0 0 C3.14432997 1.04810999 5.81889296 2.08929552 8.625 3.875 C9.515625 6.12890625 9.515625 6.12890625 9.625 8.875 C8.21875 11.63671875 8.21875 11.63671875 6.125 14.5625 C5.01511719 16.13837891 5.01511719 16.13837891 3.8828125 17.74609375 C3.13773438 18.77863281 2.39265625 19.81117187 1.625 20.875 C0.4154127 22.6241335 -0.79301963 24.37406659 -2 26.125 C-2.5671875 26.92292969 -3.134375 27.72085938 -3.71875 28.54296875 C-4.82092971 30.09485858 -5.90448758 31.66014702 -6.96875 33.23828125 C-9.04761038 36.22399144 -10.65741094 38.45180645 -13.8125 40.3125 C-17.53822356 39.67640086 -19.36519356 37.61376661 -22.01953125 35.02734375 C-23.86810559 32.09199948 -23.79678914 30.29279652 -23.375 26.875 C-20.34537695 20.36432001 -15.51322294 14.59199504 -11.1875 8.875 C-10.77193848 8.32320068 -10.35637695 7.77140137 -9.92822266 7.20288086 C-4.18319835 -0.22016833 -4.18319835 -0.22016833 0 0 Z " fill="#F9F9F9" transform="translate(63.375,45.125)"/>
<path d="M0 0 C2.78227674 0.82946922 5.32265121 1.8525648 8 3 C7.76778519 6.9650679 7.2886002 8.67907283 4.59375 11.67578125 C3.57436961 12.56842696 2.54238987 13.44683487 1.5 14.3125 C0.4059138 15.26374398 -0.68651642 16.2168957 -1.77734375 17.171875 C-2.59307861 17.87860352 -2.59307861 17.87860352 -3.42529297 18.59960938 C-6.48667363 21.32210232 -9.30770079 24.28521143 -12.16015625 27.22265625 C-14.6206087 29.59952645 -16.306144 30.92115273 -19.75 31.3125 C-23.73531347 30.92929678 -26.40220389 29.72694213 -30 28 C-30.55491616 25.16376183 -30.7114816 23.75760456 -30 21 C-25.82235408 15.06982689 -20.32232496 10.09959342 -14.765625 5.47265625 C-13.28436288 4.23717877 -11.88107167 2.90904488 -10.5 1.5625 C-7.01106441 -0.61808474 -3.94620385 -0.6276412 0 0 Z " fill="#082F68" transform="translate(98,13)"/>
<path d="M0 0 C3.37978462 0.41935289 4.26268915 1.45280616 6.51953125 3.953125 C9.08973112 6.75298151 11.52357563 8.98628114 14.64453125 11.140625 C17.54233663 13.63688691 18.26514707 15.51995541 18.58203125 19.328125 C18.11606536 26.35565139 14.47806974 31.70833264 10.79541016 37.47705078 C9.61484191 39.37587735 8.51794293 41.30435256 7.4375 43.26171875 C7.08429687 43.90069092 6.73109375 44.53966309 6.3671875 45.19799805 C6.02558594 45.81843994 5.68398438 46.43888184 5.33203125 47.078125 C2.01376202 53.08197115 2.01376202 53.08197115 -1.35546875 55.328125 C-3.6484375 55.421875 -3.6484375 55.421875 -6.35546875 54.328125 C-8.76250127 52.0481838 -10.69472631 49.48468955 -12.66796875 46.828125 C-13.49264648 45.80332031 -13.49264648 45.80332031 -14.33398438 44.7578125 C-17.58658253 40.44256426 -19.19923504 37.10123326 -18.8190918 31.64013672 C-17.95055142 27.30886901 -16.10659784 23.55192278 -14.10546875 19.640625 C-13.70972656 18.82529297 -13.31398438 18.00996094 -12.90625 17.16992188 C-10.67557565 12.64640684 -8.24256261 8.4606319 -5.35546875 4.328125 C-4.88109375 3.544375 -4.40671875 2.760625 -3.91796875 1.953125 C-2.35546875 0.328125 -2.35546875 0.328125 0 0 Z M-1.35546875 6.328125 C-6.99251142 13.08210492 -14.58069342 23.82830196 -15.04296875 32.765625 C-14.26008072 36.82240844 -13.02369869 39.18903095 -10.35546875 42.328125 C-9.69546875 42.328125 -9.03546875 42.328125 -8.35546875 42.328125 C-8.10796875 43.111875 -7.86046875 43.895625 -7.60546875 44.703125 C-6.1689687 47.7197751 -5.30826044 48.04378065 -2.35546875 49.328125 C1.62502985 43.90017237 4.93296365 38.17196145 8.01953125 32.203125 C8.55610352 31.20055664 8.55610352 31.20055664 9.10351562 30.17773438 C11.32609007 25.78024304 12.47947985 22.34361487 11.64453125 17.328125 C9.88092646 14.99533003 8.39366047 13.31030679 6.26953125 11.390625 C5.76164062 10.89755859 5.25375 10.40449219 4.73046875 9.89648438 C2.12967234 7.15706531 2.12967234 7.15706531 -1.35546875 6.328125 Z " fill="#A6A7A9" transform="translate(50.35546875,99.671875)"/>
<path d="M0 0 C4.12027841 1.58472247 7.68116474 4.23089664 10 8 C10.49208214 12.81239648 9.28126323 16.79867356 7 21 C6.34 21 5.68 21 5 21 C4.91492188 21.65742187 4.82984375 22.31484375 4.7421875 22.9921875 C3.7503695 27.01166045 1.99424836 30.44680161 0.125 34.125 C-0.22691406 34.84042969 -0.57882813 35.55585937 -0.94140625 36.29296875 C-1.28816406 36.98261719 -1.63492188 37.67226562 -1.9921875 38.3828125 C-2.30526855 39.00559082 -2.61834961 39.62836914 -2.94091797 40.27001953 C-4.08748446 42.14290338 -5.39411074 43.51162874 -7 45 C-10.52601265 43.82466245 -11.49921489 42.43303966 -13.20263672 39.19580078 C-15.56993342 32.67667447 -14.40878159 26.20237051 -11.69921875 20 C-10.71735769 17.98908563 -9.71303558 15.98899586 -8.6875 14 C-8.18798828 12.97777344 -7.68847656 11.95554687 -7.17382812 10.90234375 C-3.15622744 2.82457178 -3.15622744 2.82457178 0 0 Z " fill="#FAFAFB" transform="translate(35,83)"/>
<path d="M0 0 C3.14432997 1.04810999 5.81889296 2.08929552 8.625 3.875 C9.515625 6.12890625 9.515625 6.12890625 9.625 8.875 C8.21875 11.63671875 8.21875 11.63671875 6.125 14.5625 C5.01511719 16.13837891 5.01511719 16.13837891 3.8828125 17.74609375 C3.13773438 18.77863281 2.39265625 19.81117187 1.625 20.875 C0.4154127 22.6241335 -0.79301963 24.37406659 -2 26.125 C-2.5671875 26.92292969 -3.134375 27.72085938 -3.71875 28.54296875 C-4.82092971 30.09485858 -5.90448758 31.66014702 -6.96875 33.23828125 C-9.04761038 36.22399144 -10.65741094 38.45180645 -13.8125 40.3125 C-17.53822356 39.67640086 -19.36519356 37.61376661 -22.01953125 35.02734375 C-23.86810559 32.09199948 -23.79678914 30.29279652 -23.375 26.875 C-20.34537695 20.36432001 -15.51322294 14.59199504 -11.1875 8.875 C-10.77193848 8.32320068 -10.35637695 7.77140137 -9.92822266 7.20288086 C-4.18319835 -0.22016833 -4.18319835 -0.22016833 0 0 Z M-6.3671875 5.67578125 C-15.91646521 17.16560508 -15.91646521 17.16560508 -20.375 30.875 C-19.23921471 32.6408856 -19.23921471 32.6408856 -17.4375 33.75 C-16.426875 34.45125 -15.41625 35.1525 -14.375 35.875 C-11.04173709 32.72191347 -8.71113939 29.78886386 -6.375 25.875 C-4.29022418 22.89375721 -2.12359402 19.97050361 0.04101562 17.046875 C2.42901069 13.7629356 4.32017615 10.76735588 5.625 6.875 C1.46969246 4.02564626 -2.18194511 1.89265038 -6.3671875 5.67578125 Z " fill="#A6A6A8" transform="translate(63.375,45.125)"/>
<path d="M0 0 C4.12027841 1.58472247 7.68116474 4.23089664 10 8 C10.49208214 12.81239648 9.28126323 16.79867356 7 21 C6.34 21 5.68 21 5 21 C4.91492188 21.65742187 4.82984375 22.31484375 4.7421875 22.9921875 C3.7503695 27.01166045 1.99424836 30.44680161 0.125 34.125 C-0.22691406 34.84042969 -0.57882813 35.55585937 -0.94140625 36.29296875 C-1.28816406 36.98261719 -1.63492188 37.67226562 -1.9921875 38.3828125 C-2.30526855 39.00559082 -2.61834961 39.62836914 -2.94091797 40.27001953 C-4.08748446 42.14290338 -5.39411074 43.51162874 -7 45 C-10.52601265 43.82466245 -11.49921489 42.43303966 -13.20263672 39.19580078 C-15.56993342 32.67667447 -14.40878159 26.20237051 -11.69921875 20 C-10.71735769 17.98908563 -9.71303558 15.98899586 -8.6875 14 C-8.18798828 12.97777344 -7.68847656 11.95554687 -7.17382812 10.90234375 C-3.15622744 2.82457178 -3.15622744 2.82457178 0 0 Z M-1 5 C-1.67154933 6.28913487 -2.33708859 7.58140204 -3 8.875 C-3.37125 9.59429687 -3.7425 10.31359375 -4.125 11.0546875 C-5.13673746 12.94848977 -5.13673746 12.94848977 -5 15 C-5.66 15 -6.32 15 -7 15 C-7.73467792 16.97027261 -8.46836673 18.94092397 -9.1953125 20.9140625 C-10 23 -10 23 -11.25 25.5625 C-12.53392464 29.73525509 -11.65389747 33.49988227 -9.9375 37.4375 C-9.628125 37.953125 -9.31875 38.46875 -9 39 C-8.01 39 -7.02 39 -6 39 C-5.74307373 38.41508789 -5.48614746 37.83017578 -5.22143555 37.22753906 C-4.04875845 34.56598699 -2.86822012 31.90799319 -1.6875 29.25 C-1.28337891 28.32960938 -0.87925781 27.40921875 -0.46289062 26.4609375 C-0.06650391 25.57148437 0.32988281 24.68203125 0.73828125 23.765625 C1.09962158 22.94868164 1.46096191 22.13173828 1.83325195 21.29003906 C3 19 3 19 4.64526367 16.92480469 C6.34867426 14.9066146 6.34867426 14.9066146 5.9375 11.4375 C5.29975061 7.97932754 5.29975061 7.97932754 3.0625 6.0625 C1.09035663 4.8473478 1.09035663 4.8473478 -1 5 Z " fill="#B1B1B1" transform="translate(35,83)"/>
<path d="M0 0 C-0.33 0.66 -0.66 1.32 -1 2 C-2.03125 1.9175 -3.0625 1.835 -4.125 1.75 C-8.5729056 2.03696165 -10.89689096 2.93529577 -14 6 C-16.43972882 8.9740942 -18.62617971 12.08835148 -20.79052734 15.26660156 C-22.13789824 17.19763373 -23.5438417 19.07758979 -24.95703125 20.9609375 C-25.97202963 22.34846447 -26.98635645 23.73648296 -28 25.125 C-28.73996216 26.09131348 -28.73996216 26.09131348 -29.49487305 27.07714844 C-32.98426735 31.95847342 -33.96695376 36.02613037 -33 42 C-31.66829691 44.97984167 -31.66829691 44.97984167 -30 47 C-32.4375 46.25 -32.4375 46.25 -35 45 C-36.0689278 42.00700215 -36.2722481 38.90130633 -36.5625 35.75 C-36.68818359 34.41195312 -36.68818359 34.41195312 -36.81640625 33.046875 C-36.87699219 32.37140625 -36.93757813 31.6959375 -37 31 C-38.32 30.67 -39.64 30.34 -41 30 C-40.319375 29.38125 -39.63875 28.7625 -38.9375 28.125 C-35.82338122 25.01088122 -33.45844562 21.47436412 -30.98046875 17.84765625 C-27.46446311 12.79209785 -23.71865219 7.90760901 -20 3 C-19.01 3.33 -18.02 3.66 -17 4 C-15.21606948 3.02694699 -13.43424288 2.04745542 -11.6953125 0.99609375 C-7.57291154 -1.42605428 -4.61361032 -0.94369302 0 0 Z " fill="#F0F5F6" transform="translate(119,75)"/>
<path d="M0 0 C2.08684198 1.16072868 4.17002186 2.3270597 6.25 3.5 C6.88172119 3.85586182 7.51344238 4.21172363 8.16430664 4.57836914 C13.40325396 7.57027204 18.30133018 10.88475067 23.18359375 14.43359375 C26.48259077 16.26840347 29.26522369 16.67141373 33 17 C29.8745041 19.64465038 26.91211733 20.84414715 23 22 C23 21.34 23 20.68 23 20 C22.34 20 21.68 20 21 20 C21.66 21.32 22.32 22.64 23 24 C19.3038425 24 18.31983007 23.03454205 15.375 20.875 C10.65491494 17.46682094 5.85990201 14.20471799 1 11 C1.99 9.35 2.98 7.7 4 6 C3.34 5.38125 2.68 4.7625 2 4.125 C0 2 0 2 0 0 Z " fill="#E7F0F4" transform="translate(122,69)"/>
<path d="M0 0 C7.49621188 3.87473114 14.24882663 9.86541507 20 16 C18.35 16.66 16.7 17.32 15 18 C15 19.32 15 20.64 15 22 C15.66 22 16.32 22 17 22 C16.67 22.66 16.34 23.32 16 24 C12.8760654 21.45411629 9.75823434 18.90094576 6.64355469 16.34375 C4.97880313 14.9826697 3.30624442 13.6316368 1.6328125 12.28125 C0.54667903 11.39607373 -0.53926344 10.51066306 -1.625 9.625 C-2.62789063 8.81289062 -3.63078125 8.00078125 -4.6640625 7.1640625 C-7 5 -7 5 -8 2 C-7.34 1.67 -6.68 1.34 -6 1 C-6 1.66 -6 2.32 -6 3 C-5.34 3 -4.68 3 -4 3 C-4 3.99 -4 4.98 -4 6 C-2.68 5.34 -1.36 4.68 0 4 C0 3.34 0 2.68 0 2 C-0.66 1.67 -1.32 1.34 -2 1 C-1.34 0.67 -0.68 0.34 0 0 Z " fill="#F3F7FA" transform="translate(89,122)"/>
<path d="M0 0 C0.99 0.33 1.98 0.66 3 1 C3 1.66 3 2.32 3 3 C3.66 3 4.32 3 5 3 C3.39501744 7.09513731 0.42605748 9.71654821 -2.6875 12.6875 C-12.47494133 21.97693499 -12.47494133 21.97693499 -18 34 C-19.42944945 31.64561267 -20.08661261 30.51967567 -19.625 27.75 C-19.41875 27.1725 -19.2125 26.595 -19 26 C-22.96 26.495 -22.96 26.495 -27 27 C-26.01 26.34 -25.02 25.68 -24 25 C-22.84012865 23.87181913 -21.68423057 22.7391673 -20.55224609 21.58300781 C-18.67499544 19.66855465 -16.76925429 17.7842936 -14.86328125 15.8984375 C-13.34629873 14.39068077 -11.82937297 12.88286694 -10.3125 11.375 C-9.54099609 10.611875 -8.76949219 9.84875 -7.97460938 9.0625 C-6.86762695 7.96035156 -6.86762695 7.96035156 -5.73828125 6.8359375 C-5.06837158 6.17126465 -4.39846191 5.5065918 -3.70825195 4.82177734 C-1.81984408 2.90796981 -1.81984408 2.90796981 0 0 Z " fill="#EAF2F7" transform="translate(139,32)"/>
<path d="M0 0 C0.66 0.66 1.32 1.32 2 2 C1.52949219 2.66386719 1.05898437 3.32773438 0.57421875 4.01171875 C-0.04839844 4.89472656 -0.67101562 5.77773437 -1.3125 6.6875 C-1.92738281 7.55761719 -2.54226562 8.42773438 -3.17578125 9.32421875 C-5.97852992 13.43531691 -8.20248452 17.36241007 -10 22 C-10.85726979 23.77948425 -11.7322722 25.55053724 -12.625 27.3125 C-13.07101563 28.19550781 -13.51703125 29.07851562 -13.9765625 29.98828125 C-14.48316406 30.98408203 -14.48316406 30.98408203 -15 32 C-15.66 31.67 -16.32 31.34 -17 31 C-17 30.34 -17 29.68 -17 29 C-17.66 28.67 -18.32 28.34 -19 28 C-19.33 27.34 -19.66 26.68 -20 26 C-19.01196289 23.75341797 -19.01196289 23.75341797 -17.47265625 20.9921875 C-16.92802734 20.00605469 -16.38339844 19.01992187 -15.82226562 18.00390625 C-15.24154297 16.97136719 -14.66082031 15.93882812 -14.0625 14.875 C-13.48564453 13.83472656 -12.90878906 12.79445312 -12.31445312 11.72265625 C-10.88339191 9.14438067 -9.44499106 6.57048661 -8 4 C-7.21238281 4.04125 -6.42476562 4.0825 -5.61328125 4.125 C-4.75089844 4.08375 -3.88851562 4.0425 -3 4 C-1.15684329 2.0995533 -1.15684329 2.0995533 0 0 Z " fill="#EEF4F5" transform="translate(72,126)"/>
<path d="M0 0 C0.12375 0.639375 0.2475 1.27875 0.375 1.9375 C0.58125 2.618125 0.7875 3.29875 1 4 C1.66 4.33 2.32 4.66 3 5 C3 3.35 3 1.7 3 0 C3.66 0.66 4.32 1.32 5 2 C5.66 1.67 6.32 1.34 7 1 C8.87379605 0.92966231 10.75001102 0.9156978 12.625 0.9375 C14.12933594 0.95103516 14.12933594 0.95103516 15.6640625 0.96484375 C16.43492188 0.97644531 17.20578125 0.98804687 18 1 C18.495 2.485 18.495 2.485 19 4 C18.23816406 3.91878906 17.47632813 3.83757813 16.69140625 3.75390625 C9.73452892 3.32832948 5.73375779 3.88431007 0.48046875 8.515625 C-1.50379574 10.50301431 -3.45075031 12.51306557 -5.38671875 14.546875 C-5.99273926 15.17513184 -6.59875977 15.80338867 -7.22314453 16.45068359 C-8.42768617 17.71086374 -9.613293 18.98948482 -10.77685547 20.28759766 C-13.83946736 23.53539484 -15.91400018 25.34327114 -20.43359375 25.9140625 C-21.61050781 25.94242188 -22.78742188 25.97078125 -24 26 C-18.75911458 20.75911458 -13.51822917 15.51822917 -8.27734375 10.27734375 C-7.4263208 9.42245361 -7.4263208 9.42245361 -6.55810547 8.55029297 C-5.26708497 7.26574578 -3.95107369 6.00637129 -2.62890625 4.75390625 C-0.76749381 2.99228261 -0.76749381 2.99228261 0 0 Z " fill="#D8E9F1" transform="translate(106,17)"/>
<path d="M0 0 C2.29395893 1.28773152 4.58516784 2.57996772 6.875 3.875 C7.52597656 4.23980469 8.17695313 4.60460937 8.84765625 4.98046875 C11.50393354 6.48660536 13.83019001 7.83019001 16 10 C15.625 13.125 15.625 13.125 15 16 C14.113125 15.690625 13.22625 15.38125 12.3125 15.0625 C9.14012767 13.95455086 9.14012767 13.95455086 6.3125 13.5625 C3.68299574 12.92289086 2.69983452 12.05769442 1 10 C1.99 8.68 2.98 7.36 4 6 C3.34 5.38125 2.68 4.7625 2 4.125 C0 2 0 2 0 0 Z " fill="#EBF3F6" transform="translate(122,69)"/>
<path d="M0 0 C0.66 0.33 1.32 0.66 2 1 C1.36949114 5.87211393 -0.67837089 9.80260078 -2.875 14.125 C-3.22691406 14.84042969 -3.57882813 15.55585937 -3.94140625 16.29296875 C-4.28816406 16.98261719 -4.63492188 17.67226562 -4.9921875 18.3828125 C-5.30526855 19.00559082 -5.61834961 19.62836914 -5.94091797 20.27001953 C-7.08748446 22.14290338 -8.39411074 23.51162874 -10 25 C-10.99 24.67 -11.98 24.34 -13 24 C-13.33 22.35 -13.66 20.7 -14 19 C-12.35 19 -10.7 19 -9 19 C-8.84144531 18.45472656 -8.68289062 17.90945312 -8.51953125 17.34765625 C-6.70413176 11.48020486 -4.44797862 4.44797862 0 0 Z " fill="#A9AAAC" transform="translate(38,103)"/>
<path d="M0 0 C-1.3669798 5.21937743 -3.23710261 8.23710261 -7 12 C-9.375 13.3125 -9.375 13.3125 -12 13 C-14.82007213 11.01785914 -17.05280857 8.84856195 -19 6 C-18.9375 3.0625 -18.9375 3.0625 -18 1 C-17.67 1.99 -17.34 2.98 -17 4 C-15.11683841 5.10836423 -15.11683841 5.10836423 -13 6 C-12.01 6.66 -11.02 7.32 -10 8 C-9.44570313 7.4225 -8.89140625 6.845 -8.3203125 6.25 C-7.23363281 5.13625 -7.23363281 5.13625 -6.125 4 C-5.40570313 3.2575 -4.68640625 2.515 -3.9453125 1.75 C-2 0 -2 0 0 0 Z " fill="#A5A5A7" transform="translate(59,72)"/>
<path d="M0 0 C2.6875 0.875 2.6875 0.875 5 2 C4.67 2.66 4.34 3.32 4 4 C3.28972656 3.855625 2.57945313 3.71125 1.84765625 3.5625 C-1.44402428 4.06821772 -1.7586161 4.49933086 -3.75390625 7 C-4.70700207 8.32130718 -5.64266255 9.65532778 -6.5625 11 C-7.26536133 11.97259766 -7.26536133 11.97259766 -7.98242188 12.96484375 C-10.76318433 16.8929138 -13.0723852 20.88412139 -15.12084961 25.23828125 C-16 27 -16 27 -18 30 C-18.66 30 -19.32 30 -20 30 C-18.66379828 21.47233062 -12.92814718 14.71504554 -7.8125 8 C-7.38461182 7.43603516 -6.95672363 6.87207031 -6.51586914 6.29101562 C-4.4746193 3.66478076 -2.79552829 1.86368553 0 0 Z " fill="#AEAEAE" transform="translate(60,46)"/>
<path d="M0 0 C0.66 0.66 1.32 1.32 2 2 C1.2884375 3.0828125 1.2884375 3.0828125 0.5625 4.1875 C-1.10739778 6.81631483 -1.10739778 6.81631483 -1.375 9.34375 C-2.14500703 12.61627986 -3.58109852 14.61058889 -5.5625 17.3125 C-6.20316406 18.19550781 -6.84382813 19.07851562 -7.50390625 19.98828125 C-8.24447266 20.98408203 -8.24447266 20.98408203 -9 22 C-10.32 21.67 -11.64 21.34 -13 21 C-11.3518456 15.96617902 -8.39351949 11.9739509 -5.375 7.6875 C-4.859375 6.94693359 -4.34375 6.20636719 -3.8125 5.44335938 C-2.54605274 3.62577303 -1.27514241 1.81149162 0 0 Z " fill="#F3F3F4" transform="translate(68,60)"/>
<path d="M0 0 C3.94139078 1.66751148 6.7892812 4.22710649 10 7 C8.625 8.5 8.625 8.5 7 10 C6.34 10 5.68 10 5 10 C5 11.32 5 12.64 5 14 C5.66 14 6.32 14 7 14 C6.67 14.66 6.34 15.32 6 16 C4.18107883 14.57063361 2.37004119 13.13123035 0.5625 11.6875 C-0.44683594 10.88699219 -1.45617187 10.08648437 -2.49609375 9.26171875 C-5 7 -5 7 -6 4 C-5.443125 4.28875 -4.88625 4.5775 -4.3125 4.875 C-1.91505355 6.0413253 0.51596939 7.0339881 3 8 C2.10232344 4.8684413 2.10232344 4.8684413 0 2 C0 1.34 0 0.68 0 0 Z " fill="#DFEAF2" transform="translate(99,130)"/>
<path d="M0 0 C0.99 0.33 1.98 0.66 3 1 C1.73412642 3.58587003 0.46254151 6.16865501 -0.8125 8.75 C-1.16892578 9.47960937 -1.52535156 10.20921875 -1.89257812 10.9609375 C-5.54895856 18.34078791 -5.54895856 18.34078791 -8 21 C-8.99 21.33 -9.98 21.66 -11 22 C-8.78620599 14.62068663 -5.8876031 7.67065045 -2 1 C-1.34 0.67 -0.68 0.34 0 0 Z " fill="#F4F4F6" transform="translate(42,103)"/>
<path d="M0 0 C0.66 0.33 1.32 0.66 2 1 C1.67 4.3 1.34 7.6 1 11 C1.66 11 2.32 11 3 11 C1.46920333 14.44429252 -0.61654706 17.09516673 -3 20 C-3.66 20.99 -4.32 21.98 -5 23 C-6.32381517 24.67423683 -7.65576661 26.34211215 -9 28 C-9.66 27.67 -10.32 27.34 -11 27 C-9.52260269 24.5197633 -8.04317579 22.0407783 -6.5625 19.5625 C-6.14162109 18.85544922 -5.72074219 18.14839844 -5.28710938 17.41992188 C-2.11328125 12.11328125 -2.11328125 12.11328125 -1 11 C-0.76636119 9.15108054 -0.58696365 7.29511969 -0.4375 5.4375 C-0.35371094 4.42558594 -0.26992187 3.41367188 -0.18359375 2.37109375 C-0.12300781 1.58863281 -0.06242187 0.80617187 0 0 Z " fill="#D5DFE9" transform="translate(107,149)"/>
<path d="M0 0 C1.32 0.33 2.64 0.66 4 1 C2.83333333 2.02083333 1.66666667 3.04166667 0.5 4.0625 C-0.22703125 4.69929688 -0.9540625 5.33609375 -1.703125 5.9921875 C-3.19011296 7.29203752 -4.67954357 8.58910072 -6.171875 9.8828125 C-9.55912774 12.82437409 -12.88995588 15.7603707 -16 19 C-15.67 17.02 -15.34 15.04 -15 13 C-14.34 13 -13.68 13 -13 13 C-13 12.34 -13 11.68 -13 11 C-12.34 10.67 -11.68 10.34 -11 10 C-10.7525 9.38125 -10.505 8.7625 -10.25 8.125 C-8.46279149 5.08674553 -6.19070665 4.3294611 -3 3 C-2.34 3 -1.68 3 -1 3 C-0.67 2.01 -0.34 1.02 0 0 Z " fill="#E6F3F7" transform="translate(84,15)"/>
<path d="M0 0 C1.546875 1.21484375 1.546875 1.21484375 3 3 C2.890625 5.19140625 2.890625 5.19140625 2.25 7.5625 C2.04890625 8.34753906 1.8478125 9.13257812 1.640625 9.94140625 C1 12 1 12 0 14 C-0.66 14 -1.32 14 -2 14 C-1.67 15.65 -1.34 17.3 -1 19 C-1.7425 19.144375 -2.485 19.28875 -3.25 19.4375 C-5.52085106 19.90199226 -7.75460033 20.42905436 -10 21 C-9.06398754 19.58235006 -8.1261208 18.16592432 -7.1875 16.75 C-6.66542969 15.96109375 -6.14335937 15.1721875 -5.60546875 14.359375 C-4 12 -4 12 -2.34375 9.96875 C-0.84311716 7.7701484 -0.53152093 6.3782512 -0.3125 3.75 C-0.209375 2.5125 -0.10625 1.275 0 0 Z " fill="#E7F0F7" transform="translate(145,97)"/>
<path d="M0 0 C1.65 0.33 3.3 0.66 5 1 C5.04254356 2.99954746 5.04080783 5.00041636 5 7 C4.67 7.33 4.34 7.66 4 8 C3.95907063 10.33297433 3.95758277 12.66705225 4 15 C2.05078125 14.30859375 2.05078125 14.30859375 0 13 C-0.64453125 10.72265625 -0.64453125 10.72265625 -0.8125 8.0625 C-0.88082031 7.18722656 -0.94914062 6.31195313 -1.01953125 5.41015625 C-1 3 -1 3 0 0 Z " fill="#1A386A" transform="translate(57,155)"/>
<path d="M0 0 C0.99 0.66 1.98 1.32 3 2 C2.3125 4.375 2.3125 4.375 1 7 C-1.375 8.125 -1.375 8.125 -4 9 C-7.85242878 11.26613458 -9.20510352 13.96148293 -11 18 C-12.32 17.67 -13.64 17.34 -15 17 C-14.41992188 16.35933594 -13.83984375 15.71867187 -13.2421875 15.05859375 C-8.75905025 10.09459194 -4.32554972 5.10193044 0 0 Z " fill="#E1EEF5" transform="translate(181,60)"/>
<path d="M0 0 C-1.88257921 3.21145865 -3.01653675 4.00667272 -6.5625 5.4375 C-10.16391502 6.62378909 -10.16391502 6.62378909 -11.1875 9.5625 C-11.5896875 10.7690625 -11.5896875 10.7690625 -12 12 C-14.125 13.3125 -14.125 13.3125 -16 14 C-14.43006215 8.97619887 -11.39884258 4.9530017 -8 1 C-5.29120665 -0.35439668 -2.99066732 -0.06501451 0 0 Z " fill="#203B67" transform="translate(82,126)"/>
<path d="M0 0 C0.66 0.66 1.32 1.32 2 2 C-2.93193336 8.0607981 -7.8822488 14.09490247 -13 20 C-13.33 19.01 -13.66 18.02 -14 17 C-13.67 16.34 -13.34 15.68 -13 15 C-12.34 15 -11.68 15 -11 15 C-10.731875 14.195625 -10.46375 13.39125 -10.1875 12.5625 C-9.795625 11.716875 -9.40375 10.87125 -9 10 C-8.01 9.67 -7.02 9.34 -6 9 C-5.690625 8.175 -5.38125 7.35 -5.0625 6.5 C-4.711875 5.675 -4.36125 4.85 -4 4 C-1.875 3.1875 -1.875 3.1875 0 3 C0 2.01 0 1.02 0 0 Z " fill="#19345F" transform="translate(181,56)"/>
<path d="M0 0 C0.33 0 0.66 0 1 0 C1.42745408 3.45060759 1.19531643 4.72688457 -0.86328125 7.60546875 C-1.67152344 8.45753906 -2.47976562 9.30960938 -3.3125 10.1875 C-4.11300781 11.04730469 -4.91351563 11.90710938 -5.73828125 12.79296875 C-8 15 -8 15 -11 17 C-10.67 15.35 -10.34 13.7 -10 12 C-9.34 12 -8.68 12 -8 12 C-7.9175 11.38125 -7.835 10.7625 -7.75 10.125 C-6.76374561 7.33061257 -5.56609601 7.283048 -3 6 C-2.19471111 3.94999129 -2.19471111 3.94999129 -2 2 C-1.34 2 -0.68 2 0 2 C0 1.34 0 0.68 0 0 Z " fill="#1D3C69" transform="translate(139,27)"/>
<path d="M0 0 C0.680625 0.268125 1.36125 0.53625 2.0625 0.8125 C1.258125 1.575625 0.45375 2.33875 -0.375 3.125 C-3.10549024 5.60680898 -3.10549024 5.60680898 -3.9375 8.8125 C-5.5875 8.4825 -7.2375 8.1525 -8.9375 7.8125 C-9.2675 6.8225 -9.5975 5.8325 -9.9375 4.8125 C-3.86310175 -0.24658096 -3.86310175 -0.24658096 0 0 Z " fill="#113363" transform="translate(115.9375,20.1875)"/>
<path d="M0 0 C5.01702736 2.00681094 10.10588916 4.10588916 14 8 C14.14115161 10.67058851 14.04247107 13.32432238 14 16 C12 14 12 14 11.875 10.875 C11.91625 9.92625 11.9575 8.9775 12 8 C10.68 7.67 9.36 7.34 8 7 C7.67 7.66 7.34 8.32 7 9 C7 8.01 7 7.02 7 6 C6.030625 5.7525 5.06125 5.505 4.0625 5.25 C3.051875 4.8375 2.04125 4.425 1 4 C0.125 1.875 0.125 1.875 0 0 Z " fill="#122F59" transform="translate(170,41)"/>
<path d="M0 0 C0.66 0.33 1.32 0.66 2 1 C1.88490339 2.41750563 1.75746342 3.83401169 1.625 5.25 C1.55539063 6.03890625 1.48578125 6.8278125 1.4140625 7.640625 C0.98492887 10.085877 0.21399362 11.84836903 -1 14 C-2.65 14 -4.3 14 -6 14 C-4.125 9.125 -4.125 9.125 -3 8 C-2.95919217 6.00041636 -2.95745644 3.99954746 -3 2 C-2.34 2 -1.68 2 -1 2 C-0.67 1.34 -0.34 0.68 0 0 Z " fill="#B5B5B6" transform="translate(43,90)"/>
<path d="M0 0 C0.185625 0.9590625 0.185625 0.9590625 0.375 1.9375 C0.684375 2.9584375 0.684375 2.9584375 1 4 C1.66 4.33 2.32 4.66 3 5 C3 3.35 3 1.7 3 0 C3.66 0.66 4.32 1.32 5 2 C5.66 1.67 6.32 1.34 7 1 C8.87379605 0.92966231 10.75001102 0.9156978 12.625 0.9375 C14.12933594 0.95103516 14.12933594 0.95103516 15.6640625 0.96484375 C16.43492188 0.97644531 17.20578125 0.98804687 18 1 C18.33 1.99 18.66 2.98 19 4 C18.2265625 3.94199219 17.453125 3.88398438 16.65625 3.82421875 C9.26817434 3.50419072 4.75808621 4.25804665 -1 9 C-2.13583456 5.28272326 -1.66670026 3.52948291 0 0 Z " fill="#D2DEEA" transform="translate(106,17)"/>
<path d="M0 0 C0.66 0.33 1.32 0.66 2 1 C2.77923905 5.98929448 2.77352891 9.64802074 0.21875 14.11328125 C-1.77571386 16.82055525 -3.81994392 19.44038059 -6 22 C-7.39195915 17.82412255 -5.82323219 15.86525224 -4 12 C-2.68 12 -1.36 12 0 12 C0 8.04 0 4.08 0 0 Z " fill="#21395D" transform="translate(143,94)"/>
<path d="M0 0 C0.99 0 1.98 0 3 0 C3.125 7.75 3.125 7.75 2 10 C0.68 9.34 -0.64 8.68 -2 8 C-2.20086443 4.28400809 -2.1519437 3.22791555 0 0 Z " fill="#9EA0A2" transform="translate(65,114)"/>
<path d="M0 0 C0 0.99 0 1.98 0 3 C-0.66 3.66 -1.32 4.32 -2 5 C-2.64767793 7.57061311 -2.64767793 7.57061311 -3 10 C-3.99 10 -4.98 10 -6 10 C-5.67 11.98 -5.34 13.96 -5 16 C-5.99 15.67 -6.98 15.34 -8 15 C-7.90427714 9.54379671 -7.38708838 6.89384822 -3.4375 3 C-2.30786495 1.98173742 -1.16708671 0.97511161 0 0 Z " fill="#223964" transform="translate(96,35)"/>
<path d="M0 0 C1.32667306 2.65334611 1.49020734 4.05875595 1 7 C-1.8125 9.0625 -1.8125 9.0625 -5 11 C-6.83300909 13.10575643 -6.83300909 13.10575643 -8 15 C-8.66 14.67 -9.32 14.34 -10 14 C-6.7 9.38 -3.4 4.76 0 0 Z " fill="#D9E6F0" transform="translate(134,119)"/>
<path d="M0 0 C-0.33 0.66 -0.66 1.32 -1 2 C-2.03125 1.9175 -3.0625 1.835 -4.125 1.75 C-9.44021163 2.09291688 -12.30645522 4.30645522 -16 8 C-16.99 7.01 -17.98 6.02 -19 5 C-17.58671871 4.18162558 -16.16921654 3.37053781 -14.75 2.5625 C-13.56664063 1.88380859 -13.56664063 1.88380859 -12.359375 1.19140625 C-7.83207783 -1.09472891 -4.97043817 -1.01668054 0 0 Z " fill="#E6F3F9" transform="translate(119,75)"/>
<path d="M0 0 C0.91007813 0.10183594 1.82015625 0.20367187 2.7578125 0.30859375 C3.45648438 0.39238281 4.15515625 0.47617188 4.875 0.5625 C1.65925284 3.11412546 -1.17412191 4.39519511 -5.125 5.5625 C-5.125 4.9025 -5.125 4.2425 -5.125 3.5625 C-6.115 3.2325 -7.105 2.9025 -8.125 2.5625 C-6.22999069 -1.22751862 -3.77622889 -0.43571872 0 0 Z " fill="#F0F4F4" transform="translate(150.125,85.4375)"/>
<path d="M0 0 C0.33 0.66 0.66 1.32 1 2 C1.99 2.33 2.98 2.66 4 3 C2.35 3 0.7 3 -1 3 C-1.0825 3.5775 -1.165 4.155 -1.25 4.75 C-2.2075139 7.6225417 -3.81428375 8.95089101 -6 11 C-6.33 11.66 -6.66 12.32 -7 13 C-7.66 12.01 -8.32 11.02 -9 10 C-7.87970983 8.51726301 -6.75361382 7.03891114 -5.625 5.5625 C-4.99851562 4.73878906 -4.37203125 3.91507812 -3.7265625 3.06640625 C-2 1 -2 1 0 0 Z " fill="#1B3865" transform="translate(108,78)"/>
<path d="M0 0 C1 3 1 3 1 5 C0.34 5 -0.32 5 -1 5 C-1.268125 5.7425 -1.53625 6.485 -1.8125 7.25 C-2.94229421 9.86636554 -4.20893202 11.80187111 -6 14 C-8 13 -8 13 -9 11 C-7.88625 9.948125 -7.88625 9.948125 -6.75 8.875 C-4.02182777 6.02281994 -2.08697046 3.3236937 0 0 Z " fill="#D9E5ED" transform="translate(95,178)"/>
<path d="M0 0 C-1.47692308 4.67692308 -1.47692308 4.67692308 -4.125 6.3125 C-4.74375 6.539375 -5.3625 6.76625 -6 7 C-6.66 6.34 -7.32 5.68 -8 5 C-7.67 4.34 -7.34 3.68 -7 3 C-7.66 2.67 -8.32 2.34 -9 2 C-3.375 -1.125 -3.375 -1.125 0 0 Z " fill="#9D9EA0" transform="translate(54,148)"/>
<path d="M0 0 C-1.32 0.33 -2.64 0.66 -4 1 C-4 1.66 -4 2.32 -4 3 C-4.99 3 -5.98 3 -7 3 C-7 3.66 -7 4.32 -7 5 C-7.99 5 -8.98 5 -10 5 C-10.33 5.99 -10.66 6.98 -11 8 C-13.5625 9.1875 -13.5625 9.1875 -16 10 C-6.10752688 -2.03584229 -6.10752688 -2.03584229 0 0 Z " fill="#112C55" transform="translate(94,15)"/>
<path d="M0 0 C1.2077558 3.62326739 0.54311128 4.64146369 -1 8 C-1.66 8 -2.32 8 -3 8 C-2.938125 8.9075 -2.87625 9.815 -2.8125 10.75 C-3.01672076 14.28982642 -3.64551835 15.44931155 -6 18 C-6.75429531 10.0798993 -4.90453338 6.17445721 0 0 Z " fill="#2B476C" transform="translate(91,99)"/>
<path d="M0 0 C1 2 1 2 0.00390625 5.0390625 C-0.47175781 6.22242187 -0.94742188 7.40578125 -1.4375 8.625 C-1.91058594 9.81351563 -2.38367187 11.00203125 -2.87109375 12.2265625 C-3.24363281 13.14179687 -3.61617187 14.05703125 -4 15 C-4.99 15 -5.98 15 -7 15 C-6.42176904 10.93774452 -5.10882263 8.15237654 -2.9375 4.6875 C-2.38964844 3.80449219 -1.84179688 2.92148437 -1.27734375 2.01171875 C-0.64505859 1.01591797 -0.64505859 1.01591797 0 0 Z " fill="#B6B6B8" transform="translate(47,61)"/>
<path d="M0 0 C0.33 1.32 0.66 2.64 1 4 C-1.87164566 6.70272533 -3.30991841 7.94791837 -7.3125 8.25 C-8.199375 8.1675 -9.08625 8.085 -10 8 C-10 7.67 -10 7.34 -10 7 C-8.35 7 -6.7 7 -5 7 C-5.33 5.35 -5.66 3.7 -6 2 C-4.02 1.34 -2.04 0.68 0 0 Z " fill="#ACADB1" transform="translate(81,99)"/>
<path d="M0 0 C1.5 1.375 1.5 1.375 3 3 C3 3.66 3 4.32 3 5 C-0.6678852 6.96189209 -3.87248551 8.39301257 -8 9 C-7.04270084 7.87411986 -6.08412105 6.7493285 -5.125 5.625 C-4.59132812 4.99851562 -4.05765625 4.37203125 -3.5078125 3.7265625 C-2.38567993 2.44163349 -1.20628025 1.20628025 0 0 Z " fill="#F1F8FC" transform="translate(136,36)"/>
<path d="M0 0 C2.46800047 1.15173355 4.04783565 2.04783565 6 4 C6.1953125 6.1640625 6.1953125 6.1640625 6.125 8.625 C6.10695313 9.44226563 6.08890625 10.25953125 6.0703125 11.1015625 C6.03550781 12.04128906 6.03550781 12.04128906 6 13 C5.67 13 5.34 13 5 13 C5 11.02 5 9.04 5 7 C4.360625 6.773125 3.72125 6.54625 3.0625 6.3125 C1 5 1 5 0.25 2.375 C0.1675 1.59125 0.085 0.8075 0 0 Z " fill="#A0A0A1" transform="translate(37,85)"/>
<path d="M0 0 C1.20076172 0.06960937 1.20076172 0.06960937 2.42578125 0.140625 C3.23402344 0.17671875 4.04226562 0.2128125 4.875 0.25 C5.79732422 0.31960937 5.79732422 0.31960937 6.73828125 0.390625 C6.73828125 1.380625 6.73828125 2.370625 6.73828125 3.390625 C4.21352663 4.65300231 2.42627659 4.48918904 -0.38671875 4.453125 C-1.29679688 4.44410156 -2.206875 4.43507813 -3.14453125 4.42578125 C-3.84320313 4.41417969 -4.541875 4.40257813 -5.26171875 4.390625 C-2.89519796 0.50003419 -2.89519796 0.50003419 0 0 Z " fill="#2C4876" transform="translate(153.26171875,81.609375)"/>
<path d="M0 0 C4.10958767 1.45044271 7.43258745 3.51110752 11 6 C7.42355152 7.2380014 4.66305234 6.74926071 1 6 C0.67 4.02 0.34 2.04 0 0 Z " fill="#163462" transform="translate(118,77)"/>
<path d="M0 0 C0.66 0.33 1.32 0.66 2 1 C1.67 2.65 1.34 4.3 1 6 C0.01 6 -0.98 6 -2 6 C-2 6.66 -2 7.32 -2 8 C-2.99 8.33 -3.98 8.66 -5 9 C-5.33 8.01 -5.66 7.02 -6 6 C-4.02 4.02 -2.04 2.04 0 0 Z " fill="#203D6A" transform="translate(77,24)"/>
<path d="M0 0 C1.34173403 0.92543709 2.67320159 1.86577405 4 2.8125 C5.11375 3.59560547 5.11375 3.59560547 6.25 4.39453125 C6.8275 4.92433594 7.405 5.45414063 8 6 C8 6.99 8 7.98 8 9 C6.02 8.34 4.04 7.68 2 7 C2 6.34 2 5.68 2 5 C1.34 5 0.68 5 0 5 C0 3.35 0 1.7 0 0 Z " fill="#1B386B" transform="translate(90,133)"/>
<path d="M0 0 C4.13105614 0.60750826 7.43299325 1.81115495 11 4 C11.875 6.1875 11.875 6.1875 12 8 C9.14940657 6.61964507 6.44119096 5.10703513 3.75 3.4375 C3.04359375 3.00308594 2.3371875 2.56867188 1.609375 2.12109375 C1.07828125 1.75113281 0.5471875 1.38117188 0 1 C0 0.67 0 0.34 0 0 Z " fill="#213D66" transform="translate(136,77)"/>
<path d="M0 0 C2.475 0.495 2.475 0.495 5 1 C4.67 2.98 4.34 4.96 4 7 C3.01 7 2.02 7 1 7 C0.31292445 4.50935112 0 2.62113708 0 0 Z " fill="#1F3A6A" transform="translate(101,15)"/>
<path d="M0 0 C3 2 3 2 4 5 C4.47469459 12.05061082 4.47469459 12.05061082 3 15 C2.34 15 1.68 15 1 15 C1.20625 13.7625 1.4125 12.525 1.625 11.25 C2.06984931 7.79480059 1.89156269 6.00424663 0 3 C0 2.01 0 1.02 0 0 Z " fill="#092A59" transform="translate(140,91)"/>
<path d="M0 0 C0.99 0.33 1.98 0.66 3 1 C2.67 2.65 2.34 4.3 2 6 C1.01 6 0.02 6 -1 6 C-2.68798827 7.43750191 -2.68798827 7.43750191 -4 9 C-3.38461538 3.46153846 -3.38461538 3.46153846 -1.4375 1.125 C-0.963125 0.75375 -0.48875 0.3825 0 0 Z " fill="#AFAFB1" transform="translate(35,83)"/>
<path d="M0 0 C0.33 0.99 0.66 1.98 1 3 C-0.1875 4.875 -0.1875 4.875 -2 7 C-2.721875 7.9075 -3.44375 8.815 -4.1875 9.75 C-5.0846875 10.86375 -5.0846875 10.86375 -6 12 C-6.66 11.67 -7.32 11.34 -8 11 C-7.04801289 9.35048774 -6.08820855 7.70548492 -5.125 6.0625 C-4.59132813 5.14597656 -4.05765625 4.22945312 -3.5078125 3.28515625 C-2 1 -2 1 0 0 Z " fill="#DDEAF2" transform="translate(104,165)"/>
<path d="M0 0 C0.99 0 1.98 0 3 0 C2.49701212 4.40114397 0.91227269 6.71195019 -2 10 C-1.85950482 8.52031676 -1.71245174 7.04125484 -1.5625 5.5625 C-1.48128906 4.73878906 -1.40007812 3.91507813 -1.31640625 3.06640625 C-1 1 -1 1 0 0 Z " fill="#15335F" transform="translate(92,176)"/>
<path d="M0 0 C0.99 0.33 1.98 0.66 3 1 C2.02526874 2.66926454 1.04510211 4.33535642 0.0625 6 C-0.75541016 7.3921875 -0.75541016 7.3921875 -1.58984375 8.8125 C-2.05519531 9.534375 -2.52054687 10.25625 -3 11 C-3.33 11 -3.66 11 -4 11 C-4.36997319 5.45040214 -4.36997319 5.45040214 -2.5625 3.25 C-2.046875 2.8375 -1.53125 2.425 -1 2 C-0.67 1.34 -0.34 0.68 0 0 Z " fill="#153360" transform="translate(101,163)"/>
<path d="M0 0 C0.66 0.33 1.32 0.66 2 1 C2 1.99 2 2.98 2 4 C-2.75 6 -2.75 6 -5 6 C-4.75 4.125 -4.75 4.125 -4 2 C-2.0625 0.6875 -2.0625 0.6875 0 0 Z " fill="#F9FAF9" transform="translate(89,95)"/>
<path d="M0 0 C0.99 0.66 1.98 1.32 3 2 C2.25 4.4375 2.25 4.4375 1 7 C-1.125 7.8125 -1.125 7.8125 -3 8 C-3.36923077 3.44615385 -3.36923077 3.44615385 -1.5 1.1875 C-1.005 0.795625 -0.51 0.40375 0 0 Z " fill="#E8F1F7" transform="translate(181,60)"/>
<path d="M0 0 C0.99 0.66 1.98 1.32 3 2 C-0.01887244 5.48331435 -2.56909529 6.79157144 -7 8 C-6.02133662 6.85373678 -5.04205413 5.70800212 -4.0625 4.5625 C-3.51722656 3.92441406 -2.97195312 3.28632812 -2.41015625 2.62890625 C-1.63204305 1.73008851 -0.84063472 0.84063472 0 0 Z " fill="#153460" transform="translate(143,37)"/>
<path d="M0 0 C4.29 1.32 8.58 2.64 13 4 C13 4.33 13 4.66 13 5 C8.71 4.67 4.42 4.34 0 4 C0 2.68 0 1.36 0 0 Z " fill="#14325F" transform="translate(124,21)"/>
<path d="M0 0 C1.32 0.33 2.64 0.66 4 1 C2.71064081 2.14842923 1.41843421 3.29366227 0.125 4.4375 C-0.59429687 5.07558594 -1.31359375 5.71367187 -2.0546875 6.37109375 C-4 8 -4 8 -6 9 C-6.33 7.68 -6.66 6.36 -7 5 C-5.5459375 4.5978125 -5.5459375 4.5978125 -4.0625 4.1875 C-3.051875 3.795625 -2.04125 3.40375 -1 3 C-0.67 2.01 -0.34 1.02 0 0 Z " fill="#D2E0EB" transform="translate(84,15)"/>
<path d="M0 0 C1.258125 -0.04125 2.51625 -0.0825 3.8125 -0.125 C4.52019531 -0.14820313 5.22789063 -0.17140625 5.95703125 -0.1953125 C8 0 8 0 11 2 C10.34 2.66 9.68 3.32 9 4 C8.67 4.99 8.34 5.98 8 7 C7.67 5.68 7.34 4.36 7 3 C6.34 3 5.68 3 5 3 C5 2.34 5 1.68 5 1 C3.02 1.33 1.04 1.66 -1 2 C-0.67 1.34 -0.34 0.68 0 0 Z " fill="#314E77" transform="translate(90,13)"/>
<path d="M0 0 C0.33 0.66 0.66 1.32 1 2 C1.66 2 2.32 2 3 2 C3 2.99 3 3.98 3 5 C4.32 5 5.64 5 7 5 C7.33 5.99 7.66 6.98 8 8 C4.0480185 8 2.85351584 6.62823828 0 4 C-0.33 3.01 -0.66 2.02 -1 1 C-0.67 0.67 -0.34 0.34 0 0 Z M7 4 C9 5 9 5 9 5 Z " fill="#E3EDF3" transform="translate(82,123)"/>
<path d="M0 0 C1.5625 1.125 1.5625 1.125 3 3 C2.6875 6.1875 2.6875 6.1875 2 9 C1.34 9 0.68 9 0 9 C-0.66 10.32 -1.32 11.64 -2 13 C-2.66 12.67 -3.32 12.34 -4 12 C-3.525625 11.505 -3.05125 11.01 -2.5625 10.5 C-0.37832093 7.00531349 -0.34086089 4.09033064 0 0 Z " fill="#D5E1E9" transform="translate(145,97)"/>
<path d="M0 0 C0.99 0.33 1.98 0.66 3 1 C2.67 2.98 2.34 4.96 2 7 C-0.475 6.01 -0.475 6.01 -3 5 C-2.34 4.67 -1.68 4.34 -1 4 C-0.34786708 1.97536745 -0.34786708 1.97536745 0 0 Z " fill="#F9FBFB" transform="translate(135,78)"/>
<path d="M0 0 C1.53069975 3.0613995 0.51513345 5.6802511 0 9 C0 10.32 0 11.64 0 13 C-1.5625 11.9375 -1.5625 11.9375 -3 10 C-2.77589301 5.81666944 -2.3385104 3.50776561 0 0 Z " fill="#344B71" transform="translate(124,57)"/>
<path d="M0 0 C0.66 0 1.32 0 2 0 C2.33 1.32 2.66 2.64 3 4 C3.66 4 4.32 4 5 4 C6.37310707 5.29233607 7.71034824 6.62437146 9 8 C8.67 8.99 8.34 9.98 8 11 C6.65772182 9.73861805 5.32641323 8.46555441 4 7.1875 C3.2575 6.47980469 2.515 5.77210938 1.75 5.04296875 C0 3 0 3 0 0 Z " fill="#0E295C" transform="translate(68,176)"/>
<path d="M0 0 C0 3.48961209 -0.90379374 5.11480295 -2.5 8.1875 C-2.9640625 9.08855469 -3.428125 9.98960938 -3.90625 10.91796875 C-4.2671875 11.60503906 -4.628125 12.29210937 -5 13 C-6.00995766 9.84047029 -6.07654942 9.18754607 -4.75 5.9375 C-3.30738652 3.51597023 -2.11581826 1.81355851 0 0 Z " fill="#0E2C5A" transform="translate(129,52)"/>
<path d="M0 0 C0.33 0.66 0.66 1.32 1 2 C2.3921875 2.2165625 2.3921875 2.2165625 3.8125 2.4375 C7.10910335 3.01925353 8.53483509 3.8192772 11 6 C5.97745369 6.2954439 3.10457614 5.98514628 -1 3 C-0.67 2.01 -0.34 1.02 0 0 Z " fill="#355275" transform="translate(101,54)"/>
<path d="M0 0 C0.66 0.33 1.32 0.66 2 1 C2 1.66 2 2.32 2 3 C-1.78332024 6.78332024 -3.58974863 7.39886096 -9 8 C-8.01 7.34 -7.02 6.68 -6 6 C-4.31337542 4.35353315 -2.64488294 2.68816933 -1 1 C-0.67 0.67 -0.34 0.34 0 0 Z " fill="#D4E1EB" transform="translate(121,51)"/>
<path d="M0 0 C0.66 0.66 1.32 1.32 2 2 C0.35 2 -1.3 2 -3 2 C-3 2.66 -3 3.32 -3 4 C-3.66 4 -4.32 4 -5 4 C-5 3.34 -5 2.68 -5 2 C-6.98 2.33 -8.96 2.66 -11 3 C-10 1 -10 1 -8.3125 0.375 C-5.47411362 -0.08527887 -2.87049246 -0.18720603 0 0 Z " fill="#4E6588" transform="translate(156,33)"/>
<path d="M0 0 C0.99 0.33 1.98 0.66 3 1 C0.36 3.64 -2.28 6.28 -5 9 C-5.66 8.01 -6.32 7.02 -7 6 C-6.360625 5.896875 -5.72125 5.79375 -5.0625 5.6875 C-4.381875 5.460625 -3.70125 5.23375 -3 5 C-2.67 4.01 -2.34 3.02 -2 2 C-1.34 2 -0.68 2 0 2 C0 1.34 0 0.68 0 0 Z " fill="#102E58" transform="translate(98,24)"/>
<path d="M0 0 C1 3 1 3 0.3125 5.5625 C-1.16086774 8.29875437 -2.13522966 8.94958421 -5 10 C-3.66511872 6.40608886 -2.03977277 3.24509304 0 0 Z " fill="#2F486F" transform="translate(71,130)"/>
<path d="M0 0 C6.52307692 0.49230769 6.52307692 0.49230769 8.9375 3.0625 C9.288125 3.701875 9.63875 4.34125 10 5 C5.75354935 5 3.61475228 3.18249194 0 1 C0 0.67 0 0.34 0 0 Z " fill="#1D3867" transform="translate(126,71)"/>
<path d="M0 0 C6.75 2.75 6.75 2.75 9 5 C6 6 6 6 4.17578125 5.22265625 C2.45052083 4.1484375 0.72526042 3.07421875 -1 2 C-0.67 1.34 -0.34 0.68 0 0 Z " fill="#1F3C63" transform="translate(92,50)"/>
<path d="M0 0 C-0.66 1.32 -1.32 2.64 -2 4 C-4.9375 3.625 -4.9375 3.625 -8 3 C-8.33 2.34 -8.66 1.68 -9 1 C-2.25 0 -2.25 0 0 0 Z " fill="#BBC9D7" transform="translate(120,137)"/>
<path d="M0 0 C0.33 0.99 0.66 1.98 1 3 C-0.4375 5.6875 -0.4375 5.6875 -2 8 C-2.66 7.01 -3.32 6.02 -4 5 C-3.34 5 -2.68 5 -2 5 C-2 4.34 -2 3.68 -2 3 C-2.66 3 -3.32 3 -4 3 C-4 2.34 -4 1.68 -4 1 C-2.68 0.67 -1.36 0.34 0 0 Z " fill="#A0A0A1" transform="translate(61,132)"/>
<path d="M0 0 C1.65 0 3.3 0 5 0 C6.4606285 2.64738916 7 3.89448334 7 7 C5.83040013 6.02433888 4.66438823 5.044375 3.5 4.0625 C2.8503125 3.51722656 2.200625 2.97195312 1.53125 2.41015625 C1.0259375 1.94480469 0.520625 1.47945312 0 1 C0 0.67 0 0.34 0 0 Z " fill="#1A3662" transform="translate(100,129)"/>
<path d="M0 0 C0.33 0 0.66 0 1 0 C1.28875 1.0725 1.5775 2.145 1.875 3.25 C2.72820109 6.09400364 3.5636503 8.43508983 5 11 C2.5625 10.25 2.5625 10.25 0 9 C-1.50957612 5.8730209 -0.82014807 3.28059227 0 0 Z " fill="#D9E6F1" transform="translate(84,111)"/>
<path d="M0 0 C0.99 0.33 1.98 0.66 3 1 C0.525 4.465 0.525 4.465 -2 8 C-2.33 7.01 -2.66 6.02 -3 5 C-1.5625 2.3125 -1.5625 2.3125 0 0 Z " fill="#DEECF4" transform="translate(99,84)"/>
<path d="M0 0 C1.98 0.99 3.96 1.98 6 3 C5.01 4.485 5.01 4.485 4 6 C2.02 4.68 0.04 3.36 -2 2 C-1.34 1.34 -0.68 0.68 0 0 Z " fill="#D2DFE9" transform="translate(131,82)"/>
<path d="M0 0 C0.33 0 0.66 0 1 0 C1.36923077 5.41538462 1.36923077 5.41538462 -0.5 8.375 C-0.995 8.91125 -1.49 9.4475 -2 10 C-2.33 8.02 -2.66 6.04 -3 4 C-2.34 4 -1.68 4 -1 4 C-0.67 2.68 -0.34 1.36 0 0 Z " fill="#B1B3B2" transform="translate(35,130)"/>
<path d="M0 0 C1.98 0.99 1.98 0.99 4 2 C4 3.32 4 4.64 4 6 C3.01 5.67 2.02 5.34 1 5 C0.67 3.35 0.34 1.7 0 0 Z " fill="#A4A4A6" transform="translate(24,122)"/>
<path d="M0 0 C0.99 0 1.98 0 3 0 C2.34 1.98 1.68 3.96 1 6 C0.01 6 -0.98 6 -2 6 C-1.34 4.02 -0.68 2.04 0 0 Z " fill="#BABABA" transform="translate(25,100)"/>
<path d="M0 0 C0.66 1.32 1.32 2.64 2 4 C-0.22189824 6.22189824 -2.08482708 6.92598892 -5 8 C-3.62845496 5.04590299 -2.01136276 2.55991624 0 0 Z " fill="#B2B2B4" transform="translate(59,67)"/>
<path d="M0 0 C0.886875 0.103125 1.77375 0.20625 2.6875 0.3125 C-0.67673277 3.27302484 -4.00409287 4.23539822 -8.3125 5.3125 C-4.12788462 0.38942308 -4.12788462 0.38942308 0 0 Z " fill="#AFB0B2" transform="translate(82.3125,55.6875)"/>
<path d="M0 0 C2.75 -0.25 2.75 -0.25 6 0 C8.375 2 8.375 2 10 4 C9.01 4.495 9.01 4.495 8 5 C6.0546875 4.22265625 6.0546875 4.22265625 3.875 3.0625 C3.15054688 2.68222656 2.42609375 2.30195312 1.6796875 1.91015625 C1.12539062 1.60980469 0.57109375 1.30945312 0 1 C0 0.67 0 0.34 0 0 Z " fill="#C7D5E4" transform="translate(171,41)"/>
<path d="M0 0 C0.66 0.66 1.32 1.32 2 2 C1.625 4.125 1.625 4.125 1 6 C0.01 6 -0.98 6 -2 6 C-1.125 1.125 -1.125 1.125 0 0 Z " fill="#9F9EA2" transform="translate(47,102)"/>
<path d="M0 0 C0.66 0.33 1.32 0.66 2 1 C1.67 1.66 1.34 2.32 1 3 C1.61875 3.28875 2.2375 3.5775 2.875 3.875 C5 5 5 5 7 7 C6.01 7.33 5.02 7.66 4 8 C1.47411298 5.63707344 0.11179163 4.33537489 -1 1 C-0.67 0.67 -0.34 0.34 0 0 Z " fill="#ABABAE" transform="translate(48,100)"/>
<path d="M0 0 C0.33 0.66 0.66 1.32 1 2 C-0.4375 4.625 -0.4375 4.625 -2 7 C-2.99 6.67 -3.98 6.34 -5 6 C-3.35 4.02 -1.7 2.04 0 0 Z " fill="#E4F2FA" transform="translate(165,79)"/>
<path d="M0 0 C0.33 0 0.66 0 1 0 C1.25 2.25 1.25 2.25 1 5 C-1 7.3125 -1 7.3125 -3 9 C-2.67 6.69 -2.34 4.38 -2 2 C-1.34 2 -0.68 2 0 2 C0 1.34 0 0.68 0 0 Z " fill="#354D6F" transform="translate(139,27)"/>
<path d="M0 0 C1.65 1.65 3.3 3.3 5 5 C4.34 5.66 3.68 6.32 3 7 C1.68 5.35 0.36 3.7 -1 2 C-0.67 1.34 -0.34 0.68 0 0 Z " fill="#284471" transform="translate(64,172)"/>
<path d="M0 0 C0.33 1.32 0.66 2.64 1 4 C-0.65 5.32 -2.3 6.64 -4 8 C-4.66 7.67 -5.32 7.34 -6 7 C-4.02 4.69 -2.04 2.38 0 0 Z " fill="#CFDDE8" transform="translate(177,64)"/>
</svg>
