<?xml version="1.0" encoding="UTF-8"?>
<svg version="1.1" xmlns="http://www.w3.org/2000/svg" width="199" height="199">
<path d="M0 0 C18.43991393 15.55457889 32.76418541 38.39167054 35.4375 62.75 C37.55166356 94.08310676 31.34543996 119.78630811 10.87109375 144.05859375 C-5.29286994 161.93495167 -28.49428581 175.32844768 -52.86962891 176.97314453 C-84.33164584 178.32739948 -109.8528545 171.18847481 -133.5625 149.75 C-152.42304536 131.39996564 -163.38911977 107.36514498 -164.03320312 81.07763672 C-164.26060636 51.36740342 -155.01206734 26.71284742 -134.03515625 5.15234375 C-96.55391366 -30.45758864 -40.20854308 -31.56033688 0 0 Z " fill="#3F75BE" transform="translate(163.5625,22.25)"/>
<path d="M0 0 C1.134375 0.020625 2.26875 0.04125 3.4375 0.0625 C3.4375 3.6925 3.4375 7.3225 3.4375 11.0625 C5.1390625 11.0315625 5.1390625 11.0315625 6.875 11 C10.4375 11.0625 10.4375 11.0625 11.4375 12.0625 C11.47830783 14.06208364 11.48004356 16.06295254 11.4375 18.0625 C8.7975 18.0625 6.1575 18.0625 3.4375 18.0625 C3.57633419 21.50032031 3.72477054 24.93766029 3.875 28.375 C3.91431641 29.35146484 3.95363281 30.32792969 3.99414062 31.33398438 C4.05698242 32.74067383 4.05698242 32.74067383 4.12109375 34.17578125 C4.17608032 35.47189331 4.17608032 35.47189331 4.23217773 36.79418945 C4.36497354 39.2272826 4.36497354 39.2272826 5.4375 42.0625 C7.0875 42.0625 8.7375 42.0625 10.4375 42.0625 C10.4375 43.7125 10.4375 45.3625 10.4375 47.0625 C8.81286158 47.11645478 7.18771459 47.15527195 5.5625 47.1875 C4.20511719 47.22230469 4.20511719 47.22230469 2.8203125 47.2578125 C0.4375 47.0625 0.4375 47.0625 -1.5625 45.0625 C-4.15312164 45.33519702 -6.11994974 45.81607062 -8.40087891 47.08618164 C-12.62569043 48.99436114 -17.37385882 48.47445723 -21.9375 48.5 C-22.96617187 48.53287109 -23.99484375 48.56574219 -25.0546875 48.59960938 C-33.53255456 48.65969735 -33.53255456 48.65969735 -37.2890625 45.53515625 C-38.03929688 44.71917969 -38.78953125 43.90320313 -39.5625 43.0625 C-39.2325 42.0725 -38.9025 41.0825 -38.5625 40.0625 C-37.9025 40.0625 -37.2425 40.0625 -36.5625 40.0625 C-36.5625 39.4025 -36.5625 38.7425 -36.5625 38.0625 C-35.99176758 38.38847168 -35.42103516 38.71444336 -34.83300781 39.05029297 C-32.39642354 40.13653796 -30.87968893 40.2956027 -28.234375 40.2578125 C-27.03554687 40.24814453 -27.03554687 40.24814453 -25.8125 40.23828125 C-24.9875 40.22152344 -24.1625 40.20476562 -23.3125 40.1875 C-22.47203125 40.17847656 -21.6315625 40.16945312 -20.765625 40.16015625 C-18.69779396 40.13665817 -16.63011005 40.10078908 -14.5625 40.0625 C-14.18031233 38.40635343 -13.84854898 36.73792976 -13.5625 35.0625 C-15.45943778 33.16556222 -18.22426664 33.99327902 -20.74853516 33.97631836 C-31.143035 33.8150139 -31.143035 33.8150139 -35.08984375 31.72265625 C-37.77642491 28.82587803 -38.90621773 25.91234776 -39.3125 22 C-38.87051901 17.98650244 -37.35415627 16.03073889 -34.47021484 13.30834961 C-30.87939799 10.96333574 -27.16328367 11.23654586 -23 11.375 C-22.16275391 11.36017578 -21.32550781 11.34535156 -20.46289062 11.33007812 C-15.98938944 11.39029152 -14.09731091 11.64398173 -10.47265625 14.48046875 C-8.5625 17.0625 -8.5625 17.0625 -8.5625 19.0625 C-7.9025 19.0625 -7.2425 19.0625 -6.5625 19.0625 C-6.0675 20.0525 -6.0675 20.0525 -5.5625 21.0625 C-5.52491577 20.16156616 -5.52491577 20.16156616 -5.48657227 19.24243164 C-5.3709472 16.53638563 -5.24807064 13.83071717 -5.125 11.125 C-5.08568359 10.17947266 -5.04636719 9.23394531 -5.00585938 8.25976562 C-4.94301758 6.91108398 -4.94301758 6.91108398 -4.87890625 5.53515625 C-4.84224854 4.70250244 -4.80559082 3.86984863 -4.76782227 3.01196289 C-4.40026195 -0.47789341 -3.67325383 0.06444305 0 0 Z " fill="#4476B8" transform="translate(155.5625,78.9375)"/>
<path d="M0 0 C0.92425781 -0.02320312 1.84851563 -0.04640625 2.80078125 -0.0703125 C7.16591019 -0.03284358 10.63512518 0.23497807 14.109375 3.04296875 C17.90654614 7.59335368 17.3719987 13.17683773 17.25 18.8125 C17.27320313 19.88822266 17.29640625 20.96394531 17.3203125 22.07226562 C17.28320581 27.06002263 17.14870329 29.86784959 14.14453125 33.953125 C9.68509646 36.81630743 4.56200967 36.51529784 -0.5625 36.4375 C-1.54283203 36.46521484 -2.52316406 36.49292969 -3.53320312 36.52148438 C-8.28082893 36.50536888 -10.75447278 36.30172724 -14.640625 33.42578125 C-17.64484562 28.85879664 -17.2641727 23.52374841 -17.1875 18.25 C-17.21521484 17.23035156 -17.24292969 16.21070312 -17.27148438 15.16015625 C-17.25640792 10.52263817 -17.17276663 6.74427942 -14.11328125 3.078125 C-9.90106244 -0.3621558 -5.21519003 -0.13092527 0 0 Z " fill="#EFF6FA" transform="translate(95.5,90.25)"/>
<path d="M0 0 C0.83724609 -0.01482422 1.67449219 -0.02964844 2.53710938 -0.04492188 C7.01061056 0.01529152 8.90268909 0.26898173 12.52734375 3.10546875 C14.4375 5.6875 14.4375 5.6875 14.4375 7.6875 C12.7875 8.3475 11.1375 9.0075 9.4375 9.6875 C8.7775 9.0275 8.1175 8.3675 7.4375 7.6875 C4.14985985 7.36692129 4.14985985 7.36692129 0.4375 7.4375 C-1.4496875 7.42976563 -1.4496875 7.42976563 -3.375 7.421875 C-6.65532361 7.34969545 -6.65532361 7.34969545 -8.5625 9.6875 C-8.15721099 12.46987655 -8.15721099 12.46987655 -6.5625 14.6875 C-3.06829362 14.78971405 0.42031282 14.88629715 3.91601562 14.85351562 C8.18737623 14.97576619 10.77016202 15.47695454 13.96484375 18.43359375 C15.75901907 20.50412821 16.40086858 21.52778703 17.0234375 24.2421875 C16.95382813 25.00789063 16.88421875 25.77359375 16.8125 26.5625 C16.75835937 27.34367187 16.70421875 28.12484375 16.6484375 28.9296875 C16.57882813 29.50976562 16.50921875 30.08984375 16.4375 30.6875 C15.798125 30.955625 15.15875 31.22375 14.5 31.5 C12.10618314 32.57417752 12.10618314 32.57417752 11.4375 35.6875 C7.70859745 35.8039862 3.98016486 35.87484576 0.25 35.9375 C-1.33264648 35.98777344 -1.33264648 35.98777344 -2.94726562 36.0390625 C-10.83772481 36.13862665 -10.83772481 36.13862665 -14.80078125 33.671875 C-15.38214844 33.01703125 -15.96351562 32.3621875 -16.5625 31.6875 C-16.0675 30.2025 -16.0675 30.2025 -15.5625 28.6875 C-14.9025 28.6875 -14.2425 28.6875 -13.5625 28.6875 C-13.5625 28.0275 -13.5625 27.3675 -13.5625 26.6875 C-12.99176758 27.01347168 -12.42103516 27.33944336 -11.83300781 27.67529297 C-9.39642354 28.76153796 -7.87968893 28.9206027 -5.234375 28.8828125 C-4.43515625 28.87636719 -3.6359375 28.86992188 -2.8125 28.86328125 C-1.9875 28.84652344 -1.1625 28.82976562 -0.3125 28.8125 C0.94820312 28.79896484 0.94820312 28.79896484 2.234375 28.78515625 C4.30220604 28.76165817 6.36988995 28.72578908 8.4375 28.6875 C8.81968767 27.03135343 9.15145102 25.36292976 9.4375 23.6875 C7.54056222 21.79056222 4.77573336 22.61827902 2.25146484 22.60131836 C-8.143035 22.4400139 -8.143035 22.4400139 -12.08984375 20.34765625 C-14.77642491 17.45087803 -15.90621773 14.53734776 -16.3125 10.625 C-15.87051901 6.61150244 -14.35415627 4.65573889 -11.47021484 1.93334961 C-7.87939799 -0.41166426 -4.16328367 -0.13845414 0 0 Z " fill="#E8F2FA" transform="translate(132.5625,90.3125)"/>
<path d="M0 0 C0.78503906 0.00773437 1.57007812 0.01546875 2.37890625 0.0234375 C3.55646484 0.01183594 3.55646484 0.01183594 4.7578125 0 C10.62559838 0.02012963 10.62559838 0.02012963 12.87890625 2.2734375 C13.13769531 4.21289062 13.13769531 4.21289062 13.14453125 6.5546875 C13.14839844 7.81732422 13.14839844 7.81732422 13.15234375 9.10546875 C13.14460938 9.98589844 13.136875 10.86632812 13.12890625 11.7734375 C13.13664062 12.65386719 13.144375 13.53429687 13.15234375 14.44140625 C13.14976563 15.28316406 13.1471875 16.12492187 13.14453125 16.9921875 C13.14227539 17.76498047 13.14001953 18.53777344 13.13769531 19.33398438 C12.87890625 21.2734375 12.87890625 21.2734375 10.87890625 23.2734375 C8.00548564 23.47200722 5.25028637 23.55172696 2.37890625 23.5234375 C1.20134766 23.53503906 1.20134766 23.53503906 0 23.546875 C-5.86778588 23.52674537 -5.86778588 23.52674537 -8.12109375 21.2734375 C-8.37988281 19.33398438 -8.37988281 19.33398438 -8.38671875 16.9921875 C-8.38929687 16.15042969 -8.391875 15.30867188 -8.39453125 14.44140625 C-8.38292969 13.12076172 -8.38292969 13.12076172 -8.37109375 11.7734375 C-8.37882812 10.89300781 -8.3865625 10.01257813 -8.39453125 9.10546875 C-8.39195313 8.26371094 -8.389375 7.42195313 -8.38671875 6.5546875 C-8.38446289 5.78189453 -8.38220703 5.00910156 -8.37988281 4.21289062 C-7.73272695 -0.63711518 -4.02828741 0.01381917 0 0 Z " fill="#3F74BD" transform="translate(93.12109375,96.7265625)"/>
<path d="M0 0 C1.98 0 3.96 0 6 0 C6 3.63 6 7.26 6 11 C7.7015625 10.9690625 7.7015625 10.9690625 9.4375 10.9375 C13 11 13 11 14 12 C14.04080783 13.99958364 14.04254356 16.00045254 14 18 C11.36 18 8.72 18 6 18 C6.13883419 21.43782031 6.28727054 24.87516029 6.4375 28.3125 C6.47681641 29.28896484 6.51613281 30.26542969 6.55664062 31.27148438 C6.59853516 32.20927734 6.64042969 33.14707031 6.68359375 34.11328125 C6.72025146 34.97735596 6.75690918 35.84143066 6.79467773 36.73168945 C6.92747354 39.1647826 6.92747354 39.1647826 8 42 C9.65 42 11.3 42 13 42 C13 43.65 13 45.3 13 47 C5.82400469 47.6081352 5.82400469 47.6081352 2.390625 45.07421875 C-0.93903163 40.79245442 -0.64067125 37.59685323 -0.48828125 32.32421875 C-0.48120651 31.3990596 -0.47413177 30.47390045 -0.46684265 29.52070618 C-0.43892815 26.57546997 -0.37619557 23.63215827 -0.3125 20.6875 C-0.2874133 18.68687648 -0.26460078 16.68622306 -0.24414062 14.68554688 C-0.18911108 9.78962684 -0.10285901 4.89513932 0 0 Z " fill="#E1F1FA" transform="translate(153,79)"/>
<path d="M0 0 C0 1.98 0 3.96 0 6 C-1.98 6 -3.96 6 -6 6 C-6.66 7.98 -7.32 9.96 -8 12 C-5.36 12 -2.72 12 0 12 C0 13.98 0 15.96 0 18 C-2.64 18 -5.28 18 -8 18 C-8 27.57 -8 37.14 -8 47 C-9.98 47 -11.96 47 -14 47 C-14.14889585 41.43167699 -14.2574727 35.86452532 -14.32958984 30.29467773 C-14.35966736 28.40221967 -14.40054133 26.50989991 -14.45263672 24.61791992 C-14.52585497 21.88946343 -14.55954542 19.16285717 -14.5859375 16.43359375 C-14.61690521 15.59477158 -14.64787292 14.7559494 -14.67977905 13.89170837 C-14.6829267 8.33313134 -13.42579501 5.38309615 -9.71914673 1.24232483 C-6.56798284 -1.03483341 -3.74383522 -0.45184218 0 0 Z " fill="#EDF5FB" transform="translate(48,79)"/>
<path d="M0 0 C2.51096965 1.80914584 3.40761696 3.27020051 5 6 C4.01 6.99 3.02 7.98 2 9 C0.9790625 8.505 0.9790625 8.505 -0.0625 8 C-3.5303986 6.81943878 -6.35946032 6.78996886 -10 7 C-11.83219646 8.83219646 -11.23901328 11.75713741 -11.31640625 14.22265625 C-11.35830078 15.48271484 -11.40019531 16.74277344 -11.44335938 18.04101562 C-11.48317596 19.38150736 -11.52288814 20.7220022 -11.5625 22.0625 C-11.60568042 23.40691523 -11.64929456 24.7513166 -11.69335938 26.09570312 C-11.79985358 29.3970234 -11.9018646 32.69842236 -12 36 C-13.98 36 -15.96 36 -18 36 C-18.1490685 31.83754893 -18.25754261 27.67653732 -18.32958984 23.51220703 C-18.35964089 22.09786903 -18.40049623 20.68371554 -18.45263672 19.27001953 C-18.92932157 6.00696459 -18.92932157 6.00696459 -15.35546875 2.0859375 C-10.20288707 -1.1171808 -5.87546835 -1.28192037 0 0 Z " fill="#EBF5FB" transform="translate(72,91)"/>
<path d="M0 0 C1.32 0 2.64 0 4 0 C4.33 3.63 4.66 7.26 5 11 C7.97 11.495 7.97 11.495 11 12 C11 12.99 11 13.98 11 15 C9.02 15 7.04 15 5 15 C4.67 22.26 4.34 29.52 4 37 C2.02 37.495 2.02 37.495 0 38 C0 25.46 0 12.92 0 0 Z " fill="#FBFDFD" transform="translate(154,80)"/>
<path d="M0 0 C1.23363281 -0.05027344 2.46726562 -0.10054688 3.73828125 -0.15234375 C4.91648437 -0.20132813 6.0946875 -0.2503125 7.30859375 -0.30078125 C10.61328125 0.22265625 10.61328125 0.22265625 13.5234375 2.0703125 C16.57885805 6.67914313 16.16133668 10.63912494 15.92578125 16.03515625 C15.90322266 17.01419922 15.88066406 17.99324219 15.85742188 19.00195312 C15.79867852 21.4104308 15.71660254 23.81574703 15.61328125 26.22265625 C15.28328125 26.22265625 14.95328125 26.22265625 14.61328125 26.22265625 C14.28328125 20.61265625 13.95328125 15.00265625 13.61328125 9.22265625 C11.96328125 8.56265625 10.31328125 7.90265625 8.61328125 7.22265625 C8.28328125 6.89265625 7.95328125 6.56265625 7.61328125 6.22265625 C5.90555767 6.13551794 4.19429476 6.11565618 2.484375 6.125 C1.44990234 6.12822266 0.41542969 6.13144531 -0.65039062 6.13476562 C-1.73900391 6.14314453 -2.82761719 6.15152344 -3.94921875 6.16015625 C-5.04169922 6.16466797 -6.13417969 6.16917969 -7.25976562 6.17382812 C-9.9688037 6.18565799 -12.67773474 6.20214082 -15.38671875 6.22265625 C-10.1585367 0.69471334 -7.20881272 0.47393578 0 0 Z " fill="#F6FDFD" transform="translate(96.38671875,91.77734375)"/>
<path d="M0 0 C0.86818359 -0.02900391 1.73636719 -0.05800781 2.63085938 -0.08789062 C9.04879969 -0.15192226 9.04879969 -0.15192226 12.29296875 2.20703125 C13.6875 4.3125 13.6875 4.3125 13.6875 6.3125 C12.0375 6.9725 10.3875 7.6325 8.6875 8.3125 C8.0275 7.6525 7.3675 6.9925 6.6875 6.3125 C3.8168534 6.1403779 1.05497658 6.08026925 -1.8125 6.125 C-2.99005859 6.1259668 -2.99005859 6.1259668 -4.19140625 6.12695312 C-8.38592326 6.06024721 -8.38592326 6.06024721 -12.3125 7.3125 C-9.73979714 -0.74863564 -7.99815576 0.08789182 0 0 Z " fill="#F4FCFD" transform="translate(133.3125,91.6875)"/>
<path d="M0 0 C3.875 1.875 3.875 1.875 5 3 C7.34987262 3.23527773 9.70556039 3.41386417 12.0625 3.5625 C13.35285156 3.64628906 14.64320313 3.73007813 15.97265625 3.81640625 C17.47119141 3.90728516 17.47119141 3.90728516 19 4 C19 4.99 19 5.98 19 7 C15.51128995 9.13246335 12.61449891 9.32815608 8.5625 9.375 C6.89380859 9.41753906 6.89380859 9.41753906 5.19140625 9.4609375 C1.391355 8.91209289 -0.24678415 7.60397612 -3 5 C-2.67 4.01 -2.34 3.02 -2 2 C-1.34 2 -0.68 2 0 2 C0 1.34 0 0.68 0 0 Z " fill="#F6FDFD" transform="translate(119,117)"/>
<path d="M0 0 C0.33 0 0.66 0 1 0 C1.01401855 1.86918091 1.01401855 1.86918091 1.02832031 3.77612305 C1.06824865 8.40766908 1.13401563 13.03855287 1.20751953 17.66967773 C1.23571261 19.67252076 1.25693542 21.6754747 1.27099609 23.6784668 C1.29244854 26.56096107 1.33911056 29.44212409 1.390625 32.32421875 C1.39185364 33.21711105 1.39308228 34.11000336 1.39434814 35.029953 C1.51767738 40.28678291 2.03299877 43.16776623 6 47 C5.443125 46.649375 4.88625 46.29875 4.3125 45.9375 C1.3876905 44.75176642 -0.00750241 45.10225072 -3 46 C-3.59973633 46.34144043 -4.19947266 46.68288086 -4.81738281 47.03466797 C-7.50197131 48.22201281 -9.49263615 48.2278596 -12.421875 48.1953125 C-13.95908203 48.18564453 -13.95908203 48.18564453 -15.52734375 48.17578125 C-16.59082031 48.15902344 -17.65429688 48.14226562 -18.75 48.125 C-20.36841797 48.11146484 -20.36841797 48.11146484 -22.01953125 48.09765625 C-24.67991278 48.07411305 -27.33984336 48.04122799 -30 48 C-30 47.67 -30 47.34 -30 47 C-29.35450195 46.9906543 -28.70900391 46.98130859 -28.04394531 46.97167969 C-25.11186056 46.91790899 -22.18135992 46.8342766 -19.25 46.75 C-17.72632813 46.72873047 -17.72632813 46.72873047 -16.171875 46.70703125 C-10.43370563 46.59435093 -10.43370563 46.59435093 -5.34375 44.25 C-3.85921642 41.76426935 -3.41926895 40.12757222 -3.25 37.25 C-3.19328125 36.45078125 -3.1365625 35.6515625 -3.078125 34.828125 C-3.05234375 34.22484375 -3.0265625 33.6215625 -3 33 C-2.67 33 -2.34 33 -2 33 C-1.67 35.31 -1.34 37.62 -1 40 C-0.67 26.8 -0.34 13.6 0 0 Z " fill="#5B82B5" transform="translate(152,79)"/>
<path d="M0 0 C3.0625 0.3125 3.0625 0.3125 5 1.375 C6.71037795 4.49392449 5.86763863 6.96807801 5.0625 10.3125 C2.29999964 11.69375018 0.11518901 11.50329306 -2.9375 11.3125 C-4.9375 9.3125 -4.9375 9.3125 -5.1875 5.8125 C-4.87458101 1.43163414 -4.40975115 0.46912246 0 0 Z " fill="#D3EDFB" transform="translate(171.9375,73.6875)"/>
<path d="M0 0 C2 2 4 4 6 6 C9.82533783 6.23743476 13.64419229 6.39667966 17.47460938 6.51757812 C18.67633789 6.56881836 18.67633789 6.56881836 19.90234375 6.62109375 C20.63960693 6.6461499 21.37687012 6.67120605 22.13647461 6.69702148 C24 7 24 7 26 9 C25.44444444 13.55555556 25.44444444 13.55555556 24 15 C21.04971626 15.15387638 18.13901412 15.23171021 15.1875 15.25 C14.36701172 15.270625 13.54652344 15.29125 12.70117188 15.3125 C6.5980233 15.35209869 6.5980233 15.35209869 3.42578125 13.484375 C2.95527344 12.99453125 2.48476562 12.5046875 2 12 C1.67 12.66 1.34 13.32 1 14 C1.20625 13.401875 1.4125 12.80375 1.625 12.1875 C2.30671915 9.71549154 2.30671915 9.71549154 0 7 C0.66 6.01 1.32 5.02 2 4 C0.02 4.99 0.02 4.99 -2 6 C-1.34 4.02 -0.68 2.04 0 0 Z M5 10 C5.33 10.99 5.66 11.98 6 13 C9.18824568 14.59412284 12.62896662 14.10174735 16.125 14.0625 C17.25615234 14.05573242 17.25615234 14.05573242 18.41015625 14.04882812 C20.27347127 14.03703499 22.13674555 14.01909942 24 14 C24.042721 12.33388095 24.04063832 10.66617115 24 9 C21.95733571 6.95733571 17.86308566 7.81492056 15.0625 7.8125 C14.32064453 7.80025391 13.57878906 7.78800781 12.81445312 7.77539062 C8.43956585 7.59447658 8.43956585 7.59447658 5 10 Z " fill="#4C78B5" transform="translate(117,105)"/>
<path d="M0 0 C2.29141286 -0.05384521 4.58318188 -0.09272087 6.875 -0.125 C8.78925781 -0.15980469 8.78925781 -0.15980469 10.7421875 -0.1953125 C14 0 14 0 16 2 C15 5 15 5 13 6 C11.0027458 6.12199138 9.00094019 6.17547512 7 6.1875 C5.9275 6.20167969 4.855 6.21585937 3.75 6.23046875 C1 6 1 6 -1 4 C-0.625 1.875 -0.625 1.875 0 0 Z " fill="#4176BD" transform="translate(124,99)"/>
<path d="M0 0 C1.57043101 0.01330874 3.14079971 0.03717648 4.7109375 0.0703125 C5.51273438 0.07933594 6.31453125 0.08835937 7.140625 0.09765625 C9.12252273 0.12125027 11.10426731 0.15712185 13.0859375 0.1953125 C13.4159375 0.8553125 13.7459375 1.5153125 14.0859375 2.1953125 C6.1659375 2.6903125 6.1659375 2.6903125 -1.9140625 3.1953125 C-3.81360315 8.8721554 -3.81360315 8.8721554 -4.1015625 14.4453125 C-4.09511719 15.29609375 -4.08867188 16.146875 -4.08203125 17.0234375 C-4.0476915 19.24215013 -4.0476915 19.24215013 -2.9140625 21.1953125 C-0.19959271 21.50772705 2.42503111 21.70867842 5.1484375 21.8203125 C5.90705078 21.85898438 6.66566406 21.89765625 7.44726562 21.9375 C9.32640945 22.03204812 11.20614086 22.11478006 13.0859375 22.1953125 C13.0859375 22.5253125 13.0859375 22.8553125 13.0859375 23.1953125 C10.29401545 23.24911828 7.5031234 23.28888919 4.7109375 23.3203125 C3.916875 23.33707031 3.1228125 23.35382813 2.3046875 23.37109375 C0.23101735 23.38866723 -1.84289491 23.29866418 -3.9140625 23.1953125 C-6.32236042 20.78701458 -6.17008829 20.20247694 -6.1796875 16.9140625 C-6.18226562 16.07230469 -6.18484375 15.23054688 -6.1875 14.36328125 C-6.17589844 13.04263672 -6.17589844 13.04263672 -6.1640625 11.6953125 C-6.17179687 10.81488281 -6.17953125 9.93445313 -6.1875 9.02734375 C-6.18492188 8.18558594 -6.18234375 7.34382813 -6.1796875 6.4765625 C-6.17743164 5.70376953 -6.17517578 4.93097656 -6.17285156 4.13476562 C-5.63406275 0.09689928 -3.78399413 0.18882206 0 0 Z " fill="#5078AC" transform="translate(90.9140625,96.8046875)"/>
<path d="M0 0 C2.24973447 -0.054138 4.49984383 -0.09285491 6.75 -0.125 C8.00296875 -0.14820312 9.2559375 -0.17140625 10.546875 -0.1953125 C13.80970332 -0.01076339 15.24328879 0.44621732 18 2 C20.68993053 1.69621948 20.68993053 1.69621948 23 1 C20.375 4.875 20.375 4.875 17 6 C17 6.99 17 7.98 17 9 C11.39 9 5.78 9 0 9 C0 8.67 0 8.34 0 8 C1.15628906 7.92652344 1.15628906 7.92652344 2.3359375 7.8515625 C3.33882812 7.77679688 4.34171875 7.70203125 5.375 7.625 C6.37273437 7.55539063 7.37046875 7.48578125 8.3984375 7.4140625 C11.15508879 7.23636036 11.15508879 7.23636036 13 5 C12.67 4.34 12.34 3.68 12 3 C8.95418731 2.53045739 8.95418731 2.53045739 5.4375 2.375 C4.23996094 2.30023438 3.04242188 2.22546875 1.80859375 2.1484375 C0.88175781 2.09945312 -0.04507813 2.05046875 -1 2 C-0.67 1.34 -0.34 0.68 0 0 Z " fill="#5480BC" transform="translate(126,97)"/>
<path d="M0 0 C0.66 0 1.32 0 2 0 C2 0.99 2 1.98 2 3 C3.65 3.33 5.3 3.66 7 4 C7 6.64 7 9.28 7 12 C5.25 13.0625 5.25 13.0625 3 14 C1.68 13.67 0.36 13.34 -1 13 C-1 21.91 -1 30.82 -1 40 C-1.33 40 -1.66 40 -2 40 C-2 30.43 -2 20.86 -2 11 C0.64 11 3.28 11 6 11 C6 9.02 6 7.04 6 5 C3.36 5 0.72 5 -2 5 C-1.125 1.125 -1.125 1.125 0 0 Z " fill="#4E70AA" transform="translate(42,86)"/>
<path d="M0 0 C1.46179688 0.04060547 1.46179688 0.04060547 2.953125 0.08203125 C5.34605929 0.15241167 7.73435662 0.25078592 10.125 0.375 C10.125 0.705 10.125 1.035 10.125 1.375 C9.53485107 1.41987549 8.94470215 1.46475098 8.33666992 1.51098633 C5.66061873 1.72242676 2.98677543 1.95471523 0.3125 2.1875 C-0.61626953 2.25775391 -1.54503906 2.32800781 -2.50195312 2.40039062 C-3.39462891 2.48095703 -4.28730469 2.56152344 -5.20703125 2.64453125 C-6.44030151 2.74664917 -6.44030151 2.74664917 -7.69848633 2.85083008 C-10.26879041 3.46983657 -11.12160555 4.46235199 -12.875 6.375 C-13.535 6.375 -14.195 6.375 -14.875 6.375 C-14.875 14.625 -14.875 22.875 -14.875 31.375 C-18.36233124 27.88766876 -17.32872133 22.85120942 -17.375 18.125 C-17.41625 17.08730469 -17.4575 16.04960938 -17.5 14.98046875 C-17.58788715 6.37851366 -17.58788715 6.37851366 -14.5234375 2.6640625 C-10.22085778 -0.83513097 -5.27443558 -0.27873034 0 0 Z " fill="#D9EEFE" transform="translate(95.875,90.625)"/>
<path d="M0 0 C3.62498334 -0.02893932 7.24993713 -0.04677792 10.875 -0.0625 C12.42380859 -0.07506836 12.42380859 -0.07506836 14.00390625 -0.08789062 C14.99003906 -0.09111328 15.97617188 -0.09433594 16.9921875 -0.09765625 C18.35899658 -0.10551147 18.35899658 -0.10551147 19.75341797 -0.11352539 C22 0 22 0 24 1 C24 1.66 24 2.32 24 3 C25.32 3.33 26.64 3.66 28 4 C28 12.58 28 21.16 28 30 C27.67 30 27.34 30 27 30 C26.99589111 29.3294458 26.99178223 28.6588916 26.98754883 27.96801758 C26.95455357 24.91529609 26.8839038 21.8645547 26.8125 18.8125 C26.80669922 17.75740234 26.80089844 16.70230469 26.79492188 15.61523438 C26.66344992 10.98450002 26.50063243 7.85107514 24.125 3.8125 C19.54711821 1.15732856 15.39664537 1.21898577 10.1875 1.1875 C8.71893555 1.14979492 8.71893555 1.14979492 7.22070312 1.11132812 C4.81339803 1.05261337 2.40790438 1.0162202 0 1 C0 0.67 0 0.34 0 0 Z " fill="#557BB1" transform="translate(85,90)"/>
<path d="M0 0 C1.0209375 0.5259375 1.0209375 0.5259375 2.0625 1.0625 C5.7087789 2.22620603 8.28489978 1.72845102 12 1 C11.34515625 1.57105469 10.6903125 2.14210938 10.015625 2.73046875 C6.92669454 7.7410013 7.57499585 12.55419048 7.75 18.3125 C7.76804687 19.43462891 7.78609375 20.55675781 7.8046875 21.71289062 C7.85172144 24.47613447 7.91743683 27.23762698 8 30 C7.34 30 6.68 30 6 30 C5.98018066 29.37432129 5.96036133 28.74864258 5.93994141 28.10400391 C5.84485774 25.27723481 5.73511254 22.45122185 5.625 19.625 C5.5940625 18.64015625 5.563125 17.6553125 5.53125 16.640625 C5.49257812 15.69960937 5.45390625 14.75859375 5.4140625 13.7890625 C5.3826416 12.91975098 5.3512207 12.05043945 5.31884766 11.15478516 C5.18770567 8.79038206 5.18770567 8.79038206 3 7 C3 6.01 3 5.02 3 4 C1.56009377 1.82967524 1.56009377 1.82967524 0 0 Z " fill="#547BB0" transform="translate(72,91)"/>
<path d="M0 0 C1.98 0 3.96 0 6 0 C6 3.63 6 7.26 6 11 C7.7015625 10.9690625 7.7015625 10.9690625 9.4375 10.9375 C13 11 13 11 14 12 C14.04080783 13.99958364 14.04254356 16.00045254 14 18 C11.36 18 8.72 18 6 18 C6 17.34 6 16.68 6 16 C7.98 16 9.96 16 12 16 C12 15.01 12 14.02 12 13 C10.5459375 13.0309375 10.5459375 13.0309375 9.0625 13.0625 C6 13 6 13 5 12 C4.92773498 10.14712498 4.9161878 8.29166122 4.9375 6.4375 C4.94652344 5.42558594 4.95554688 4.41367188 4.96484375 3.37109375 C4.97644531 2.58863281 4.98804688 1.80617188 5 1 C3.35 1 1.7 1 0 1 C0 0.67 0 0.34 0 0 Z " fill="#B8D2EF" transform="translate(153,79)"/>
<path d="M0 0 C3.5625 0.3125 3.5625 0.3125 5.5 1.8125 C5.850625 2.3075 6.20125 2.8025 6.5625 3.3125 C2.89583333 3.3125 -0.77083333 3.3125 -4.4375 3.3125 C-4.4375 11.5625 -4.4375 19.8125 -4.4375 28.3125 C-4.7675 28.3125 -5.0975 28.3125 -5.4375 28.3125 C-5.49533842 24.02088953 -5.5310412 19.72937855 -5.5625 15.4375 C-5.57925781 14.21417969 -5.59601562 12.99085937 -5.61328125 11.73046875 C-5.61972656 10.56386719 -5.62617187 9.39726563 -5.6328125 8.1953125 C-5.64328613 7.11652832 -5.65375977 6.03774414 -5.66455078 4.92626953 C-5.3011459 0.7428151 -4.07306666 0.37027879 0 0 Z " fill="#4971A7" transform="translate(65.4375,96.6875)"/>
<path d="M0 0 C0.33 0 0.66 0 1 0 C1 1.98 1 3.96 1 6 C1.66 6 2.32 6 3 6 C3.66 7.98 4.32 9.96 5 12 C6.65 12.33 8.3 12.66 10 13 C9.34 13.66 8.68 14.32 8 15 C4.875 14.625 4.875 14.625 2 14 C1.67 13.01 1.34 12.02 1 11 C0.01 11.495 0.01 11.495 -1 12 C-1 10.35 -1 8.7 -1 7 C-1.33 7 -1.66 7 -2 7 C-2.125 4.625 -2.125 4.625 -2 2 C-1.34 1.34 -0.68 0.68 0 0 Z " fill="#467AC1" transform="translate(164,72)"/>
<path d="M0 0 C2.64 0 5.28 0 8 0 C8 1.98 8 3.96 8 6 C5.36 6 2.72 6 0 6 C0 4.02 0 2.04 0 0 Z " fill="#E9F6FE" transform="translate(40,91)"/>
<path d="M0 0 C2.5 0.125 2.5 0.125 3.5 1.125 C3.625 3.625 3.625 3.625 3.5 6.125 C2.5 7.125 2.5 7.125 0 7.25 C-2.5 7.125 -2.5 7.125 -3.5 6.125 C-3.625 3.625 -3.625 3.625 -3.5 1.125 C-2.5 0.125 -2.5 0.125 0 0 Z " fill="#577CB0" transform="translate(172.5,75.875)"/>
<path d="M0 0 C3.75112898 0.05187541 7.49995532 0.14695218 11.25 0.25 C12.31347656 0.26417969 13.37695312 0.27835937 14.47265625 0.29296875 C15.49746094 0.32519531 16.52226562 0.35742188 17.578125 0.390625 C18.52075195 0.41157227 19.46337891 0.43251953 20.43457031 0.45410156 C23.66822831 1.14219247 24.89753013 2.516836 27 5 C26.01 5 25.02 5 24 5 C23.34 4.34 22.68 3.68 22 3 C18.89568335 2.55306421 15.75782567 2.67591411 12.625 2.6875 C11.76132813 2.67138672 10.89765625 2.65527344 10.0078125 2.63867188 C4.96762697 2.60406125 4.96762697 2.60406125 0.3984375 4.51953125 C-0.29378906 5.25236328 -0.29378906 5.25236328 -1 6 C-0.67 4.02 -0.34 2.04 0 0 Z " fill="#4E75AD" transform="translate(120,89)"/>
<path d="M0 0 C0.33 0 0.66 0 1 0 C1.33 3.96 1.66 7.92 2 12 C2.66 12 3.32 12 4 12 C4.99 13.98 5.98 15.96 7 18 C4.625 18.125 4.625 18.125 2 18 C0 16 0 16 -0.1953125 12.3046875 C-0.182009 10.82799892 -0.15814835 9.35137642 -0.125 7.875 C-0.11146484 6.74384766 -0.11146484 6.74384766 -0.09765625 5.58984375 C-0.0740687 3.72642746 -0.03819719 1.86317407 0 0 Z " fill="#4573B3" transform="translate(159,102)"/>
<path d="M0 0 C0.33 0 0.66 0 1 0 C1 2.97 1 5.94 1 9 C5.95 8.01 5.95 8.01 11 7 C10.25 12.75 10.25 12.75 8 15 C7.67 13.68 7.34 12.36 7 11 C4.69 10.67 2.38 10.34 0 10 C0 6.7 0 3.4 0 0 Z " fill="#4574B1" transform="translate(159,80)"/>
<path d="M0 0 C1.9375 0.75 1.9375 0.75 4 2 C4.75 4.125 4.75 4.125 5 6 C2.6875 6.625 2.6875 6.625 0 7 C-0.99 6.34 -1.98 5.68 -3 5 C-2.67 4.01 -2.34 3.02 -2 2 C-1.34 2 -0.68 2 0 2 C0 1.34 0 0.68 0 0 Z " fill="#E9F4FA" transform="translate(119,117)"/>
<path d="M0 0 C4.62 0 9.24 0 14 0 C14 0.99 14 1.98 14 3 C9.05 2.67 4.1 2.34 -1 2 C-0.67 1.34 -0.34 0.68 0 0 Z " fill="#5379AD" transform="translate(126,97)"/>
<path d="M0 0 C0.598125 0.350625 1.19625 0.70125 1.8125 1.0625 C1.8125 2.0525 1.8125 3.0425 1.8125 4.0625 C0.1625 4.3925 -1.4875 4.7225 -3.1875 5.0625 C-3.8475 3.4125 -4.5075 1.7625 -5.1875 0.0625 C-2.1875 -0.9375 -2.1875 -0.9375 0 0 Z " fill="#4B7BBE" transform="translate(118.1875,122.9375)"/>
<path d="M0 0 C6.13545817 -0.66932271 6.13545817 -0.66932271 8.9375 1.5 C9.288125 1.995 9.63875 2.49 10 3 C6 3 2 3 -2 3 C-1.34 2.01 -0.68 1.02 0 0 Z " fill="#557BAC" transform="translate(62,97)"/>
<path d="M0 0 C0.66 0 1.32 0 2 0 C2 0.99 2 1.98 2 3 C3.32 3.33 4.64 3.66 6 4 C6 4.33 6 4.66 6 5 C3.36 5 0.72 5 -2 5 C-1.125 1.125 -1.125 1.125 0 0 Z " fill="#587DB3" transform="translate(42,86)"/>
<path d="M0 0 C0.33 0 0.66 0 1 0 C1 2.64 1 5.28 1 8 C-1.35438733 9.42944945 -2.48032433 10.08661261 -5.25 9.625 C-5.8275 9.41875 -6.405 9.2125 -7 9 C-7 8.34 -7 7.68 -7 7 C-4.69 7 -2.38 7 0 7 C0 4.69 0 2.38 0 0 Z " fill="#4674B0" transform="translate(48,90)"/>
<path d="M0 0 C1.32 0 2.64 0 4 0 C3.67 1.65 3.34 3.3 3 5 C1.68 4.67 0.36 4.34 -1 4 C-0.67 2.68 -0.34 1.36 0 0 Z " fill="#4374BA" transform="translate(171,77)"/>
<path d="M0 0 C0.66 0.66 1.32 1.32 2 2 C1.34 2 0.68 2 0 2 C0 2.99 0 3.98 0 5 C-1.65 5.66 -3.3 6.32 -5 7 C-3.70700306 4.11562221 -2.34058637 2.12780579 0 0 Z " fill="#4574B1" transform="translate(113,119)"/>
<path d="M0 0 C0.99 0.33 1.98 0.66 3 1 C-0.465 3.97 -0.465 3.97 -4 7 C-4 6.01 -4 5.02 -4 4 C-3.34 4 -2.68 4 -2 4 C-1.34 2.68 -0.68 1.36 0 0 Z " fill="#5A7FB4" transform="translate(57,91)"/>
<path d="M0 0 C1.485 0.99 1.485 0.99 3 2 C4.65549531 2.38499891 6.3222433 2.72793135 8 3 C7.34 3.66 6.68 4.32 6 5 C2.875 4.625 2.875 4.625 0 4 C0 2.68 0 1.36 0 0 Z " fill="#537BB7" transform="translate(166,82)"/>
</svg>
