<?xml version="1.0" encoding="UTF-8"?>
<svg version="1.1" xmlns="http://www.w3.org/2000/svg" width="697" height="459">
<path d="M0 0 C230.01 0 460.02 0 697 0 C697 151.47 697 302.94 697 459 C466.99 459 236.98 459 0 459 C0 307.53 0 156.06 0 0 Z " fill="#FEFEFE" transform="translate(0,0)"/>
<path d="M0 0 C4.14595652 2.57063625 7.4536067 5.28474109 9.1875 9.9375 C10.04155973 15.15418916 9.99784021 20.09680085 7.5625 24.875 C3.61612079 29.96375214 -0.70049848 32.22439744 -6.8125 33.9375 C-16.24005282 34.87433841 -24.97458131 34.95014995 -32.8125 28.9375 C-36.22078142 26.01833414 -37.5820975 23.48181944 -38.24609375 19.03125 C-38.43922117 14.3025543 -38.22084309 10.8358548 -36.25 6.5 C-27.09801131 -3.12132145 -12.2541892 -5.66292077 0 0 Z " fill="#1F3768" transform="translate(234.8125,204.0625)"/>
<path d="M0 0 C5.135625 -0.061875 10.27125 -0.12375 15.5625 -0.1875 C17.16939697 -0.21481201 18.77629395 -0.24212402 20.43188477 -0.27026367 C21.71377686 -0.27775635 22.99566895 -0.28524902 24.31640625 -0.29296875 C25.62037354 -0.3086792 26.92434082 -0.32438965 28.26782227 -0.34057617 C33.75447552 0.16010292 37.61395818 1.54465609 41.5 5.625 C43.47492232 10.06857522 43.38249108 13.36821461 42 18 C39.62209775 21.27986517 37.85117605 22.16033059 34 23 C34.6496875 23.92683594 35.299375 24.85367188 35.96875 25.80859375 C36.81262221 27.01814391 37.65636558 28.22778397 38.5 29.4375 C38.92925781 30.04916016 39.35851562 30.66082031 39.80078125 31.29101562 C43 35.88671875 43 35.88671875 43 37 C38.0877193 37.96491228 38.0877193 37.96491228 35 37 C27 28.77027027 27 28.77027027 27 24 C20.73 24 14.46 24 8 24 C8 28.29 8 32.58 8 37 C5.36 37 2.72 37 0 37 C0 24.79 0 12.58 0 0 Z " fill="#1D376A" transform="translate(263,201)"/>
<path d="M0 0 C3.63 0 7.26 0 11 0 C11 12.21 11 24.42 11 37 C8.69 37 6.38 37 4 37 C4 27.43 4 17.86 4 8 C3.34 8 2.68 8 2 8 C1.59575806 9.10734497 1.59575806 9.10734497 1.18334961 10.23706055 C-0.68126282 14.59064398 -3.56901781 18.07250082 -6.4375 21.8125 C-7.02337891 22.60076172 -7.60925781 23.38902344 -8.21289062 24.20117188 C-8.78072266 24.94560547 -9.34855469 25.69003906 -9.93359375 26.45703125 C-10.44978271 27.13741455 -10.96597168 27.81779785 -11.49780273 28.51879883 C-13 30 -13 30 -16 30 C-31 14.67391304 -31 14.67391304 -31 8 C-31.66 8 -32.32 8 -33 8 C-33 17.57 -33 27.14 -33 37 C-35.31 37 -37.62 37 -40 37 C-40 25.12 -40 13.24 -40 1 C-36.37 1 -32.74 1 -29 1 C-26.02312401 4.07610519 -24.18225557 6.44276717 -22 10 C-20.69571602 11.85995526 -19.38339364 13.71430351 -18.0625 15.5625 C-17.03926503 17.04000632 -16.01752605 18.51855629 -15 20 C-11.5837356 16.825526 -8.9712473 13.28427309 -6.375 9.4375 C-5.98054688 8.86064453 -5.58609375 8.28378906 -5.1796875 7.68945312 C-3.43684553 5.13701396 -1.71441111 2.57161666 0 0 Z " fill="#6480BB" transform="translate(365,201)"/>
<path d="M0 0 C0 1.32 0 2.64 0 4 C-2.48527166 5.61804572 -3.58107979 6.07570074 -6.55078125 5.5390625 C-7.46214844 5.23742187 -8.37351562 4.93578125 -9.3125 4.625 C-16.54919935 2.46263964 -21.90967652 2.68479233 -29 5 C-29 5.99 -29 6.98 -29 8 C-25.74026552 9.62986724 -22.08930011 9.5367338 -18.5 9.875 C-1.24415136 11.67088077 -1.24415136 11.67088077 2.75390625 15.8203125 C4.59930792 19.04831918 4.18491741 21.30197123 3.6328125 24.87890625 C2.62849635 28.24522519 1.0364476 29.34975674 -2 31 C-12.41248668 34.51755976 -24.85022952 34.50641541 -35 30 C-35.99 29.34 -36.98 28.68 -38 28 C-37.67 26.68 -37.34 25.36 -37 24 C-33.68604014 22.91215665 -33.16419665 22.92737456 -29.75 24.4375 C-25.47824821 26.2012157 -21.31142859 26.3089059 -16.75 26.3125 C-16.05229492 26.31757568 -15.35458984 26.32265137 -14.63574219 26.32788086 C-10.94127226 26.27847289 -8.13800401 26.02999744 -5 24 C-5.33 22.35 -5.66 20.7 -6 19 C-8.82672889 18.05775704 -10.98089515 17.77088474 -13.9296875 17.5703125 C-14.89003906 17.49683594 -15.85039063 17.42335937 -16.83984375 17.34765625 C-18.85495338 17.19982967 -20.87060017 17.05914318 -22.88671875 16.92578125 C-32.19265062 16.19077458 -32.19265062 16.19077458 -36 13 C-38 10 -38 10 -38 6.625 C-36.97919332 2.92457578 -35.97090672 1.24711053 -32.8515625 -1 C-22.61842866 -6.52675583 -10.00565898 -4.95855666 0 0 Z " fill="#213869" transform="translate(646,205)"/>
<path d="M0 0 C11 0 11 0 15 3.625 C16.36060974 5.3960416 17.69044814 7.19087835 19 9 C19.92661214 10.18415383 20.8592737 11.36359061 21.796875 12.5390625 C24.10863606 15.43867573 26.39471679 18.35638186 28.66308594 21.29003906 C30.42333315 23.54145825 32.21470958 25.76838697 34 28 C34.33 18.76 34.66 9.52 35 0 C37.31 0 39.62 0 42 0 C42 11.88 42 23.76 42 36 C31 36 31 36 28.01953125 33.7265625 C27.29121094 32.70304687 26.56289062 31.67953125 25.8125 30.625 C25.40942627 30.08278809 25.00635254 29.54057617 24.59106445 28.98193359 C23.76759995 27.87284353 22.95741047 26.75376767 22.16113281 25.625 C20.4360597 23.21076816 18.56022211 20.92557248 16.6875 18.625 C16.09324219 17.87476563 15.49898437 17.12453125 14.88671875 16.3515625 C12.62867153 13.53718481 10.30994811 10.77193773 8 8 C7.67 17.24 7.34 26.48 7 36 C4.69 36 2.38 36 0 36 C0 24.12 0 12.24 0 0 Z " fill="#1E3768" transform="translate(78,202)"/>
<path d="M0 0 C12.54 0 25.08 0 38 0 C38 2.31 38 4.62 38 7 C28.1 7 18.2 7 8 7 C8 10.3 8 13.6 8 17 C17.9 17 27.8 17 38 17 C38 19.31 38 21.62 38 24 C28.1 24 18.2 24 8 24 C8 28.29 8 32.58 8 37 C5.36 37 2.72 37 0 37 C0 24.79 0 12.58 0 0 Z " fill="#2D4473" transform="translate(139,201)"/>
<path d="M0 0 C1.19367188 -0.01675781 2.38734375 -0.03351563 3.6171875 -0.05078125 C8.6104908 0.46634259 11.87671375 2.12991302 15.5 5.5625 C17.62370015 9.1564541 17.70321503 11.19271793 17.125 15.3125 C15.06832667 19.59038054 12.8735745 22.20628846 8.30859375 23.8359375 C1.76816164 25.26336633 -4.64204352 25.53184626 -10.5 22 C-13.04611309 20.21127498 -14.09022009 18.98966986 -15.875 16.3125 C-16.63437331 9.695104 -16.63437331 9.695104 -14.89453125 6.52734375 C-10.48372974 1.00366309 -6.88435808 0.02220761 0 0 Z " fill="#F8F9FA" transform="translate(219.875,207.6875)"/>
<path d="M0 0 C3.00779354 1.65458191 5.4307096 3.57868995 7.625 6.25 C6.4375 7.8125 6.4375 7.8125 4.625 9.25 C1.47728833 9.07512713 -0.57441561 8.1461377 -3.375 6.6875 C-9.71603991 3.85842065 -17.53552918 4.31982852 -24 6.4375 C-27.68396434 9.24894647 -29.09853048 11.62574157 -29.875 16.1875 C-29.18875716 20.39073738 -27.35157885 22.27342115 -24.375 25.25 C-19.31373805 28.51318205 -13.15043953 27.85103258 -7.375 27.25 C-5.07588371 26.37501785 -3.13139582 25.34231527 -1.03125 24.07421875 C0.625 23.25 0.625 23.25 3.625 23.5 C4.285 23.7475 4.945 23.995 5.625 24.25 C5.625 25.57 5.625 26.89 5.625 28.25 C-2.43687893 34.62450892 -10.49738131 35.1061178 -20.3828125 34.49267578 C-26.36125353 33.76441961 -30.52341405 30.4658581 -34.375 26.0625 C-37.89731375 21.10924628 -37.97770726 17.23209449 -37.375 11.25 C-35.26136137 5.485531 -31.99076068 2.33152486 -26.62109375 -0.64453125 C-18.47383143 -3.41911035 -7.98562185 -3.31078849 0 0 Z " fill="#1D3566" transform="translate(581.375,203.75)"/>
<path d="M0 0 C2.51303196 -0.03967945 4.43805544 0.17633758 6.8515625 0.90234375 C8.37402344 2.52758789 8.37402344 2.52758789 9.7109375 4.6875 C10.21737793 5.50178467 10.72381836 6.31606934 11.24560547 7.1550293 C14.16442281 12.14825696 16.97969975 17.18756865 19.7265625 22.27734375 C20.31953125 23.35628906 20.9125 24.43523437 21.5234375 25.546875 C22.08289063 26.57941406 22.64234375 27.61195313 23.21875 28.67578125 C23.72519043 29.60825684 24.23163086 30.54073242 24.75341797 31.50146484 C25.8515625 33.90234375 25.8515625 33.90234375 25.8515625 36.90234375 C23.5415625 36.90234375 21.2315625 36.90234375 18.8515625 36.90234375 C3.8515625 10.91533076 3.8515625 10.91533076 3.8515625 7.90234375 C0.8959871 10.48211089 -0.67285947 13.43910067 -2.50390625 16.8828125 C-3.12587891 18.04619141 -3.74785156 19.20957031 -4.38867188 20.40820312 C-5.03787776 21.6353546 -5.6869648 22.86256894 -6.3359375 24.08984375 C-6.99624884 25.32904044 -7.65705082 26.56797582 -8.31835938 27.80664062 C-9.933234 30.83600397 -11.54303788 33.8679516 -13.1484375 36.90234375 C-15.7884375 36.90234375 -18.4284375 36.90234375 -21.1484375 36.90234375 C-19.86948786 32.76577675 -18.31656977 29.07925607 -16.25 25.27734375 C-15.68796875 24.2409375 -15.1259375 23.20453125 -14.546875 22.13671875 C-13.96164062 21.069375 -13.37640625 20.00203125 -12.7734375 18.90234375 C-12.1959375 17.835 -11.6184375 16.76765625 -11.0234375 15.66796875 C-9.42351156 12.73111839 -7.79790809 9.81161025 -6.1484375 6.90234375 C-5.7683252 6.22486084 -5.38821289 5.54737793 -4.99658203 4.84936523 C-3.56552092 2.47804397 -2.59011573 1.08784861 0 0 Z " fill="#1D3568" transform="translate(416.1484375,201.09765625)"/>
<path d="M0 0 C13.86 0 27.72 0 42 0 C42 2.31 42 4.62 42 7 C36.39 7 30.78 7 25 7 C25 16.9 25 26.8 25 37 C22.36 37 19.72 37 17 37 C17 27.1 17 17.2 17 7 C11.39 7 5.78 7 0 7 C0 4.69 0 2.38 0 0 Z " fill="#354C7A" transform="translate(456,201)"/>
<path d="M0 0 C3.64413322 0.20245185 4.8197988 0.81031452 7.375 3.5 C9.4734931 8.01983129 9.41544425 11.257811 8 16 C5.62209775 19.27986517 3.85117605 20.16033059 0 21 C0.6496875 21.92683594 1.299375 22.85367188 1.96875 23.80859375 C2.81262221 25.01814391 3.65636558 26.22778397 4.5 27.4375 C4.92925781 28.04916016 5.35851562 28.66082031 5.80078125 29.29101562 C9 33.88671875 9 33.88671875 9 35 C4.0877193 35.96491228 4.0877193 35.96491228 1 35 C-7 26.77027027 -7 26.77027027 -7 22 C-13.6 22 -20.2 22 -27 22 C-26.67 20.02 -26.34 18.04 -26 16 C-25.32420898 15.98541748 -24.64841797 15.97083496 -23.95214844 15.95581055 C-20.88419478 15.88124589 -17.81731924 15.78461345 -14.75 15.6875 C-13.15478516 15.65366211 -13.15478516 15.65366211 -11.52734375 15.61914062 C-10.50253906 15.58369141 -9.47773438 15.54824219 -8.421875 15.51171875 C-7.47924805 15.48553467 -6.53662109 15.45935059 -5.56542969 15.43237305 C-2.55691187 14.9253227 -1.13785971 14.16556348 1 12 C1.33380814 8.37436186 1.33380814 8.37436186 1 5 C0.34 5 -0.32 5 -1 5 C-1 4.34 -1 3.68 -1 3 C-0.01 2.67 0.98 2.34 2 2 C1.34 1.34 0.68 0.68 0 0 Z " fill="#1D3668" transform="translate(297,203)"/>
<path d="M0 0 C1.63338294 0.04896341 3.26883452 0.03673909 4.90234375 -0.0078125 C5.87494141 -0.02457031 6.84753906 -0.04132813 7.84960938 -0.05859375 C9.90448177 -0.10278455 11.95920042 -0.15484014 14.01367188 -0.21484375 C14.98755859 -0.22902344 15.96144531 -0.24320313 16.96484375 -0.2578125 C18.30470337 -0.29092529 18.30470337 -0.29092529 19.67163086 -0.32470703 C22 0 22 0 23.83422852 1.37939453 C25 3 25 3 24.6875 5.1875 C24.3471875 6.0846875 24.3471875 6.0846875 24 7 C20.71303767 7.79953138 19.28976808 8.09658936 16 7 C13.89686836 7.23368129 11.79407294 7.47205002 9.6953125 7.7421875 C4.80698005 8.20976713 -0.09459865 8.07470154 -5 8 C-5.33 7.34 -5.66 6.68 -6 6 C-8.02463255 5.34786708 -8.02463255 5.34786708 -10 5 C-10 5.99 -10 6.98 -10 8 C-10.99 7.67 -11.98 7.34 -13 7 C-13.99 7.185625 -14.98 7.37125 -16 7.5625 C-19 8 -19 8 -22 6 C-21.67 4.35 -21.34 2.7 -21 1 C-17.87605066 0.63611825 -14.75074918 0.28555397 -11.625 -0.0625 C-10.73554687 -0.16626953 -9.84609375 -0.27003906 -8.9296875 -0.37695312 C-8.07890625 -0.47041016 -7.228125 -0.56386719 -6.3515625 -0.66015625 C-5.56604004 -0.74918213 -4.78051758 -0.83820801 -3.97119141 -0.92993164 C-2 -1 -2 -1 0 0 Z " fill="#C7CFE3" transform="translate(546,249)"/>
<path d="M0 0 C12.54 0 25.08 0 38 0 C38 1.98 38 3.96 38 6 C37.34 5.67 36.68 5.34 36 5 C36 4.34 36 3.68 36 3 C25.77 3 15.54 3 5 3 C5 8.28 5 13.56 5 19 C5.66 19.33 6.32 19.66 7 20 C8.2065625 19.5359375 8.2065625 19.5359375 9.4375 19.0625 C14.32057652 17.60614385 18.94171612 17.83799091 24 18 C24 18.33 24 18.66 24 19 C23.32453125 19.06058594 22.6490625 19.12117188 21.953125 19.18359375 C21.06109375 19.26738281 20.1690625 19.35117188 19.25 19.4375 C18.36828125 19.51871094 17.4865625 19.59992188 16.578125 19.68359375 C14.30649548 19.96238465 12.20148177 20.38790577 10 21 C10 21.66 10 22.32 10 23 C9.34 23 8.68 23 8 23 C8 27.62 8 32.24 8 37 C5.36 37 2.72 37 0 37 C0 24.79 0 12.58 0 0 Z " fill="#18396B" transform="translate(139,201)"/>
<path d="M0 0 C2.64 0 5.28 0 8 0 C8 12.21 8 24.42 8 37 C5.36 37 2.72 37 0 37 C0 24.79 0 12.58 0 0 Z " fill="#4D5E84" transform="translate(517,201)"/>
<path d="M0 0 C2.64 0 5.28 0 8 0 C8 12.21 8 24.42 8 37 C5.36 37 2.72 37 0 37 C0 24.79 0 12.58 0 0 Z " fill="#42537F" transform="translate(51,201)"/>
<path d="M0 0 C3.63 0 7.26 0 11 0 C11 12.21 11 24.42 11 37 C8.69 37 6.38 37 4 37 C4 27.43 4 17.86 4 8 C2.35 8.33 0.7 8.66 -1 9 C-1.6875 7.1875 -1.6875 7.1875 -2 5 C-1.0625 3.25 -1.0625 3.25 1 2 C3.69025414 1.79513095 6.29600295 1.91277429 9 2 C9.33 1.67 9.66 1.34 10 1 C6.7 1 3.4 1 0 1 C0 0.67 0 0.34 0 0 Z " fill="#6A83BD" transform="translate(365,201)"/>
<path d="M0 0 C3.91641711 -0.11618764 7.83239101 -0.18724654 11.75 -0.25 C13.41675781 -0.30027344 13.41675781 -0.30027344 15.1171875 -0.3515625 C16.18710937 -0.36445313 17.25703125 -0.37734375 18.359375 -0.390625 C19.34389648 -0.41157227 20.32841797 -0.43251953 21.34277344 -0.45410156 C24.73131403 0.12497649 25.91691688 1.32139579 28 4 C27.82246387 7.01811422 27.16264785 7.83735215 25 10 C22.47802734 10.22705078 22.47802734 10.22705078 19.3359375 10.1953125 C18.21445312 10.18886719 17.09296875 10.18242187 15.9375 10.17578125 C14.761875 10.15902344 13.58625 10.14226562 12.375 10.125 C10.59996094 10.11146484 10.59996094 10.11146484 8.7890625 10.09765625 C5.85917477 10.07402812 2.9296866 10.04108514 0 10 C0 6.7 0 3.4 0 0 Z " fill="#F8F9FA" transform="translate(271,208)"/>
<path d="M0 0 C10.56 0 21.12 0 32 0 C32 0.33 32 0.66 32 1 C21.77 1 11.54 1 1 1 C1.33 6.94 1.66 12.88 2 19 C2.33 18.34 2.66 17.68 3 17 C4.32 17.33 5.64 17.66 7 18 C7 14.37 7 10.74 7 7 C7.33 7 7.66 7 8 7 C8 10.3 8 13.6 8 17 C15.59 17 23.18 17 31 17 C31 17.33 31 17.66 31 18 C23.41 18 15.82 18 8 18 C8 24.27 8 30.54 8 37 C5.36 37 2.72 37 0 37 C0 24.79 0 12.58 0 0 Z " fill="#5D6D90" transform="translate(263,201)"/>
<path d="M0 0 C1.65 0 3.3 0 5 0 C5 10.23 5 20.46 5 31 C3.02 31 1.04 31 -1 31 C-1.02465622 26.74585377 -1.04283899 22.49174502 -1.05493164 18.23754883 C-1.05997101 16.78929927 -1.06680253 15.34105483 -1.07543945 13.89282227 C-1.08752247 11.81525412 -1.09323211 9.73775303 -1.09765625 7.66015625 C-1.10289307 6.40855713 -1.10812988 5.15695801 -1.11352539 3.86743164 C-1 1 -1 1 0 0 Z " fill="#193466" transform="translate(475,207)"/>
<path d="M0 0 C11.55 0 23.1 0 35 0 C35.495 2.475 35.495 2.475 36 5 C25.6265501 5.16494885 15.3489074 4.65043638 5 4 C5 7.96 5 11.92 5 16 C4.34 15.67 3.68 15.34 3 15 C3 10.66666667 3 6.33333333 3 2 C2.01 1.34 1.02 0.68 0 0 Z " fill="#1D376B" transform="translate(141,203)"/>
<path d="M0 0 C12.54 0 25.08 0 38 0 C38 1.98 38 3.96 38 6 C37.34 5.67 36.68 5.34 36 5 C36 4.34 36 3.68 36 3 C24.78 2.67 13.56 2.34 2 2 C2 13.55 2 25.1 2 37 C1.34 37 0.68 37 0 37 C0 24.79 0 12.58 0 0 Z " fill="#445581" transform="translate(139,201)"/>
<path d="M0 0 C1.32 0 2.64 0 4 0 C4 11.22 4 22.44 4 34 C2.68 34 1.36 34 0 34 C0 22.78 0 11.56 0 0 Z " fill="#1C386E" transform="translate(519,203)"/>
<path d="M0 0 C1.32 0 2.64 0 4 0 C4 11.22 4 22.44 4 34 C2.68 33.67 1.36 33.34 0 33 C0 22.11 0 11.22 0 0 Z " fill="#1C396D" transform="translate(53,203)"/>
<path d="M0 0 C2.31 0 4.62 0 7 0 C7.93065133 2.60582371 8.14917407 3.64198224 7.0625 6.25 C6.5365625 7.11625 6.5365625 7.11625 6 8 C5.01 7.67 4.02 7.34 3 7 C3 6.01 3 5.02 3 4 C2.34 4 1.68 4 1 4 C0.67 5.32 0.34 6.64 0 8 C-1.32 8 -2.64 8 -4 8 C-5.35631741 8.2160736 -6.71061181 8.44525414 -8.0625 8.6875 C-12 9 -12 9 -14 7.5625 C-14.33 7.046875 -14.66 6.53125 -15 6 C-14.3125 4.0546875 -14.3125 4.0546875 -13 2 C-10.6875 1.3203125 -10.6875 1.3203125 -8 1.125 C-7.113125 1.04507813 -6.22625 0.96515625 -5.3125 0.8828125 C-3 1 -3 1 -1 3 C-0.67 2.01 -0.34 1.02 0 0 Z " fill="#A2AFD1" transform="translate(438,248)"/>
<path d="M0 0 C13.86 0 27.72 0 42 0 C41.67 0.99 41.34 1.98 41 3 C30.11 2.67 19.22 2.34 8 2 C8 2.66 8 3.32 8 4 C10.64 4.33 13.28 4.66 16 5 C16 5.33 16 5.66 16 6 C8.08 6.495 8.08 6.495 0 7 C0 4.69 0 2.38 0 0 Z " fill="#3E517D" transform="translate(456,201)"/>
<path d="M0 0 C3.63 0 7.26 0 11 0 C11.99 1.32 12.98 2.64 14 4 C13.01 4.495 13.01 4.495 12 5 C11.34 4.01 10.68 3.02 10 2 C7.03 1.67 4.06 1.34 1 1 C1.33 9.58 1.66 18.16 2 27 C2.33 25.35 2.66 23.7 3 22 C3.66 22 4.32 22 5 22 C5 18.7 5 15.4 5 12 C5.33 12 5.66 12 6 12 C6 19.92 6 27.84 6 36 C4.02 36 2.04 36 0 36 C0 24.12 0 12.24 0 0 Z " fill="#1A3062" transform="translate(78,202)"/>
<path d="M0 0 C5.52414861 0.46034572 10.44047009 1.69827145 15 5 C16.23046875 7.13671875 16.23046875 7.13671875 17 9 C14 11 14 11 11.75 10.8125 C9 10 9 10 5.8125 8.5 C1.38126092 6.49025661 -3.1940855 6.28042559 -8 6 C-8 5.67 -8 5.34 -8 5 C-7.236875 4.87625 -6.47375 4.7525 -5.6875 4.625 C-2.79732864 4.11897208 -2.79732864 4.11897208 0 2 C0 1.34 0 0.68 0 0 Z " fill="#213868" transform="translate(572,202)"/>
<path d="M0 0 C0 0.66 0 1.32 0 2 C1.32 2.66 2.64 3.32 4 4 C4 4.66 4 5.32 4 6 C4.66 6 5.32 6 6 6 C6.66 4.68 7.32 3.36 8 2 C8.66 2 9.32 2 10 2 C10 3.98 10 5.96 10 8 C6 8 6 8 3 7 C2.67 7.66 2.34 8.32 2 9 C-1.63 9 -5.26 9 -9 9 C-9 6.36 -9 3.72 -9 1 C-2.25 0 -2.25 0 0 0 Z " fill="#EEF4F5" transform="translate(403,248)"/>
<path d="M0 0 C2.31 0 4.62 0 7 0 C5.02 0.99 5.02 0.99 3 2 C3 2.66 3 3.32 3 4 C3.639375 3.484375 4.27875 2.96875 4.9375 2.4375 C9.11684825 0.47576511 12.57247957 0.89726551 17 2 C17.99 2.66 18.98 3.32 20 4 C19.1875 5.9375 19.1875 5.9375 18 8 C14.45615285 9.18128238 13.37200262 8.71096378 9.875 7.625 C4.87579114 6.16717478 0.18387978 5.42490818 -5 5 C-3.625 3.5 -3.625 3.5 -2 2 C-1.34 2 -0.68 2 0 2 C0 1.34 0 0.68 0 0 Z " fill="#1C3466" transform="translate(627,202)"/>
<path d="M0 0 C0.33 0 0.66 0 1 0 C1 3.96 1 7.92 1 12 C1.66 12 2.32 12 3 12 C3.33 16.62 3.66 21.24 4 26 C2.02 26 0.04 26 -2 26 C-2.05785647 22.04172765 -2.09354717 18.0835633 -2.125 14.125 C-2.14175781 12.99707031 -2.15851563 11.86914062 -2.17578125 10.70703125 C-2.18222656 9.63066406 -2.18867188 8.55429688 -2.1953125 7.4453125 C-2.20578613 6.45031738 -2.21625977 5.45532227 -2.22705078 4.43017578 C-2 2 -2 2 0 0 Z " fill="#6381BD" transform="translate(372,212)"/>
<path d="M0 0 C3 1 3 1 4.5625 2.9375 C8.22841962 6.03943199 12.33893376 6.32396749 17 7 C17 7.33 17 7.66 17 8 C14.36 8 11.72 8 9 8 C9 8.66 9 9.32 9 10 C11.31 10.33 13.62 10.66 16 11 C16 11.33 16 11.66 16 12 C13.93816367 12.08150744 11.87538651 12.1394194 9.8125 12.1875 C8.66394531 12.22230469 7.51539063 12.25710937 6.33203125 12.29296875 C2.68730977 11.97250672 0.86736981 11.23486176 -2 9 C-2.8125 6.3125 -2.8125 6.3125 -3 4 C-2.34 4 -1.68 4 -1 4 C-0.67 2.68 -0.34 1.36 0 0 Z " fill="#1C3567" transform="translate(612,209)"/>
<path d="M0 0 C1.5159375 0.0309375 1.5159375 0.0309375 3.0625 0.0625 C3.7225 0.0625 4.3825 0.0625 5.0625 0.0625 C7.72916667 0.0625 10.39583333 0.0625 13.0625 0.0625 C13.0625 0.3925 13.0625 0.7225 13.0625 1.0625 C11.7425 1.3925 10.4225 1.7225 9.0625 2.0625 C10.3825 2.3925 11.7025 2.7225 13.0625 3.0625 C13.0625 4.3825 13.0625 5.7025 13.0625 7.0625 C12.12277344 7.04509766 12.12277344 7.04509766 11.1640625 7.02734375 C9.93816406 7.01380859 9.93816406 7.01380859 8.6875 7 C7.46933594 6.98259766 7.46933594 6.98259766 6.2265625 6.96484375 C4.01312858 6.91783666 4.01312858 6.91783666 2.0625 8.0625 C-0.5 7.4375 -0.5 7.4375 -2.9375 6.0625 C-3.8125 3.5 -3.8125 3.5 -3.9375 1.0625 C-2.9375 0.0625 -2.9375 0.0625 0 0 Z " fill="#AFB9D7" transform="translate(602.9375,249.9375)"/>
<path d="M0 0 C5.28 0 10.56 0 16 0 C16.33 1.65 16.66 3.3 17 5 C14.37886292 5 12.49064888 4.68707555 10 4 C10 4.66 10 5.32 10 6 C7.01787087 7.49106457 4.28390342 7.11941467 1 7 C0.67 6.67 0.34 6.34 0 6 C0 4.02 0 2.04 0 0 Z " fill="#E2E8F4" transform="translate(447,250)"/>
<path d="M0 0 C2.9375 0.875 2.9375 0.875 4.9375 3.875 C4.75 6.4375 4.75 6.4375 3.9375 8.875 C0.9375 10.875 0.9375 10.875 -1.625 10.625 C-4.0625 9.875 -4.0625 9.875 -6.0625 7.875 C-6.4258156 5.04113833 -6.4193671 3.46977849 -4.9375 1 C-3.0625 -0.125 -3.0625 -0.125 0 0 Z " fill="#1D366A" transform="translate(331.0625,247.125)"/>
<path d="M0 0 C2.9375 0.875 2.9375 0.875 4.9375 3.875 C4.75 6.4375 4.75 6.4375 3.9375 8.875 C0.9375 10.875 0.9375 10.875 -1.625 10.625 C-4.0625 9.875 -4.0625 9.875 -6.0625 7.875 C-6.4258156 5.04113833 -6.4193671 3.46977849 -4.9375 1 C-3.0625 -0.125 -3.0625 -0.125 0 0 Z " fill="#476DB3" transform="translate(351.0625,247.125)"/>
<path d="M0 0 C5.45454545 0.45454545 5.45454545 0.45454545 8 3 C8.3633156 5.83386167 8.3568671 7.40522151 6.875 9.875 C5 11 5 11 1.9375 10.875 C-1 10 -1 10 -3 7 C-2.6758631 3.67759676 -2.39223697 2.39223697 0 0 Z " fill="#6682BD" transform="translate(368,247)"/>
<path d="M0 0 C1.67542976 0.28604898 3.34385343 0.61781233 5 1 C5 1.99 5 2.98 5 4 C5.66 2.68 6.32 1.36 7 0 C8.65 0 10.3 0 12 0 C12.33 1.98 12.66 3.96 13 6 C8.06603122 7.09643751 3.93396878 7.09643751 -1 6 C-1.042721 4.33388095 -1.04063832 2.66617115 -1 1 C-0.67 0.67 -0.34 0.34 0 0 Z " fill="#BAC4DB" transform="translate(638,250)"/>
<path d="M0 0 C2.83751491 2.83751491 4.85162354 5.19525778 5.19140625 9.328125 C5.1878976 11.55962448 5.13102472 13.7725798 5 16 C3.02 16 1.04 16 -1 16 C-1.02685095 13.52076199 -1.04676547 11.0418116 -1.0625 8.5625 C-1.07506836 7.50192383 -1.07506836 7.50192383 -1.08789062 6.41992188 C-1.09653588 4.61306441 -1.05220011 2.80612397 -1 1 C-0.67 0.67 -0.34 0.34 0 0 Z " fill="#1C366A" transform="translate(265,222)"/>
<path d="M0 0 C-0.33 0.99 -0.66 1.98 -1 3 C0.32 2.67 1.64 2.34 3 2 C2 4 2 4 -0.8125 5.125 C-6.10130165 6.54124814 -11.57311679 6.16040049 -17 6 C-17 5.67 -17 5.34 -17 5 C-15.35 4.67 -13.7 4.34 -12 4 C-12 3.34 -12 2.68 -12 2 C-13.98 2 -15.96 2 -18 2 C-18 1.67 -18 1.34 -18 1 C-11.96445452 0.30739642 -6.07593562 -0.11251733 0 0 Z " fill="#1C3564" transform="translate(642,232)"/>
<path d="M0 0 C3.63 0 7.26 0 11 0 C11 10.23 11 20.46 11 31 C10.67 31 10.34 31 10 31 C10 28.36 10 25.72 10 23 C9.34 23 8.68 23 8 23 C7.94545591 20.64551325 7.9060721 18.29232125 7.875 15.9375 C7.85179687 14.62652344 7.82859375 13.31554687 7.8046875 11.96484375 C8.00582478 7.88175701 8.72834538 4.85000947 10 1 C6.7 1 3.4 1 0 1 C0 0.67 0 0.34 0 0 Z " fill="#748EC6" transform="translate(365,201)"/>
<path d="M0 0 C3.625 0.25 3.625 0.25 5.625 1.5 C6.625 3.25 6.625 3.25 6.3125 5.4375 C5.9721875 6.3346875 5.9721875 6.3346875 5.625 7.25 C2.27974779 8.08631305 -0.12630556 8.54947778 -3.375 7.25 C-5 5.8125 -5 5.8125 -6.375 4.25 C-7.035 3.59 -7.695 2.93 -8.375 2.25 C-7.735625 2.105625 -7.09625 1.96125 -6.4375 1.8125 C-3.32369742 0.96328111 -3.67826983 0.27246443 0 0 Z " fill="#EAF2F8" transform="translate(564.375,248.75)"/>
<path d="M0 0 C2.97 0 5.94 0 9 0 C8.67 1.32 8.34 2.64 8 4 C6.35 4.33 4.7 4.66 3 5 C3.33 5.66 3.66 6.32 4 7 C3.34 7 2.68 7 2 7 C2.2784375 7.928125 2.2784375 7.928125 2.5625 8.875 C3 11 3 11 2 13 C1.7724985 14.87056791 1.59037189 16.74685958 1.4375 18.625 C1.35371094 19.62789062 1.26992187 20.63078125 1.18359375 21.6640625 C1.12300781 22.43492187 1.06242187 23.20578125 1 24 C0.67 24 0.34 24 0 24 C0 16.08 0 8.16 0 0 Z " fill="#1E376F" transform="translate(79,203)"/>
<path d="M0 0 C3 1 3 1 4 2 C5.67542976 1.71395102 7.34385343 1.38218767 9 1 C9.66 2.32 10.32 3.64 11 5 C10.01 6.485 10.01 6.485 9 8 C7.6078125 7.7215625 7.6078125 7.7215625 6.1875 7.4375 C2.98656229 6.75876119 2.98656229 6.75876119 0 8 C0 6.35 0 4.7 0 3 C-0.66 2.67 -1.32 2.34 -2 2 C-1.34 1.34 -0.68 0.68 0 0 Z " fill="#CDD6E4" transform="translate(625,249)"/>
<path d="M0 0 C3.48746762 0.0827319 6.82471633 0.50244327 10.25 1.1875 C8.6 2.8375 6.95 4.4875 5.25 6.1875 C5.91 6.5175 6.57 6.8475 7.25 7.1875 C3.29 7.1875 -0.67 7.1875 -4.75 7.1875 C-3.76 6.5275 -2.77 5.8675 -1.75 5.1875 C-3.07 4.8575 -4.39 4.5275 -5.75 4.1875 C-5.75 0.13307682 -3.61879565 0.18093978 0 0 Z " fill="#334A77" transform="translate(626.75,214.8125)"/>
<path d="M0 0 C1.670625 0.2475 1.670625 0.2475 3.375 0.5 C6.94351384 1.26487734 6.94351384 1.26487734 10 0 C10.1875 2.875 10.1875 2.875 10 6 C7 8 7 8 5 9 C5 8.34 5 7.68 5 7 C2.03 6.505 2.03 6.505 -1 6 C-0.67 5.34 -0.34 4.68 0 4 C0.66 4 1.32 4 2 4 C1.01 3.01 0.02 2.02 -1 1 C-0.67 0.67 -0.34 0.34 0 0 Z " fill="#AFBCD7" transform="translate(577,250)"/>
<path d="M0 0 C1 2 1 2 0.44140625 3.9453125 C0.15136719 4.66460937 -0.13867188 5.38390625 -0.4375 6.125 C-0.72496094 6.84945312 -1.01242187 7.57390625 -1.30859375 8.3203125 C-1.53675781 8.87460938 -1.76492188 9.42890625 -2 10 C-1.34 10 -0.68 10 0 10 C0.66 8.35 1.32 6.7 2 5 C2.66 5 3.32 5 4 5 C3.51675181 10.15464734 0.81389239 13.81550319 -2 18 C-3.33332095 15.3333581 -2.67102033 13.83319697 -2 11 C-2.99 11 -3.98 11 -5 11 C-5.33 11.99 -5.66 12.98 -6 14 C-6.33 13.34 -6.66 12.68 -7 12 C-5.8203125 9.43359375 -5.8203125 9.43359375 -4.125 6.4375 C-3.57070313 5.44621094 -3.01640625 4.45492187 -2.4453125 3.43359375 C-1 1 -1 1 0 0 Z " fill="#1A2E5E" transform="translate(413,204)"/>
<path d="M0 0 C1.134375 0.020625 2.26875 0.04125 3.4375 0.0625 C4.0625 2.4375 4.0625 2.4375 4.4375 5.0625 C3.7775 5.7225 3.1175 6.3825 2.4375 7.0625 C-0.6875 6.6875 -0.6875 6.6875 -3.5625 6.0625 C-3.94468767 4.40635343 -4.27645102 2.73792976 -4.5625 1.0625 C-3.5625 0.0625 -3.5625 0.0625 0 0 Z " fill="#919CC7" transform="translate(517.5625,249.9375)"/>
<path d="M0 0 C0 0.99 0 1.98 0 3 C-1.96875 4.60546875 -1.96875 4.60546875 -4.5 6.1875 C-5.3353125 6.71730469 -6.170625 7.24710938 -7.03125 7.79296875 C-7.6809375 8.19128906 -8.330625 8.58960938 -9 9 C-9.66 8.67 -10.32 8.34 -11 8 C-11 6.35 -11 4.7 -11 3 C-7.14243493 0.84694043 -4.44870215 -0.39253254 0 0 Z " fill="#243E6F" transform="translate(216,202)"/>
<path d="M0 0 C0.94875 0.04125 1.8975 0.0825 2.875 0.125 C3.535 1.775 4.195 3.425 4.875 5.125 C1.875 7.125 1.875 7.125 -0.6875 7 C-3.125 6.125 -3.125 6.125 -4.4375 4.0625 C-4.664375 3.423125 -4.89125 2.78375 -5.125 2.125 C-3.125 0.125 -3.125 0.125 0 0 Z " fill="#B9C2DC" transform="translate(484.125,249.875)"/>
<path d="M0 0 C-2.97 0.99 -5.94 1.98 -9 3 C-9 2.34 -9 1.68 -9 1 C-8.34 0.67 -7.68 0.34 -7 0 C-8.65 -0.33 -10.3 -0.66 -12 -1 C-12 -0.34 -12 0.32 -12 1 C-13.97290587 3.34869747 -15.00306862 4.00102287 -18 5 C-18.12375 4.195625 -18.2475 3.39125 -18.375 2.5625 C-18.684375 1.2940625 -18.684375 1.2940625 -19 0 C-19.66 -0.33 -20.32 -0.66 -21 -1 C-14.44297782 -2.45711604 -5.74984993 -3.83323329 0 0 Z " fill="#3B517E" transform="translate(639,203)"/>
<path d="M0 0 C0.99 0 1.98 0 3 0 C4.62950412 4.12168689 5.26264601 6.70700357 4 11 C3.01 11 2.02 11 1 11 C0.34 11.66 -0.32 12.32 -1 13 C-1.02708567 11.39592672 -1.04643483 9.7917215 -1.0625 8.1875 C-1.07410156 7.29417969 -1.08570313 6.40085938 -1.09765625 5.48046875 C-1 3 -1 3 0 0 Z " fill="#1F396C" transform="translate(545,212)"/>
<path d="M0 0 C2.31 0.33 4.62 0.66 7 1 C6.34 2.98 5.68 4.96 5 7 C0.71 6.67 -3.58 6.34 -8 6 C-8 5.67 -8 5.34 -8 5 C-7.236875 4.87625 -6.47375 4.7525 -5.6875 4.625 C-2.79732864 4.11897208 -2.79732864 4.11897208 0 2 C0 1.34 0 0.68 0 0 Z " fill="#2F4776" transform="translate(572,202)"/>
<path d="M0 0 C0.66 0.99 1.32 1.98 2 3 C2.66 2.34 3.32 1.68 4 1 C4 5.29 4 9.58 4 14 C2.02 14 0.04 14 -2 14 C-1.34 13.67 -0.68 13.34 0 13 C0 8.71 0 4.42 0 0 Z " fill="#364B78" transform="translate(143,224)"/>
<path d="M0 0 C2.50037734 2.17424117 3.43628586 3.73045798 4 7 C1 9 1 9 0 9 C-0.33 9.66 -0.66 10.32 -1 11 C-4.22265625 5.7265625 -4.22265625 5.7265625 -5 4 C-4.67 3.34 -4.34 2.68 -4 2 C-2.68 2 -1.36 2 0 2 C0 1.34 0 0.68 0 0 Z " fill="#172F61" transform="translate(428,212)"/>
<path d="M0 0 C1.65 0 3.3 0 5 0 C4.67 3.63 4.34 7.26 4 11 C3.34 10.67 2.68 10.34 2 10 C1.34 10.66 0.68 11.32 0 12 C0 8.04 0 4.08 0 0 Z " fill="#1C376B" transform="translate(475,207)"/>
<path d="M0 0 C2.31 0 4.62 0 7 0 C7.93065133 2.60582371 8.14917407 3.64198224 7.0625 6.25 C6.711875 6.8275 6.36125 7.405 6 8 C5.01 7.67 4.02 7.34 3 7 C3 6.01 3 5.02 3 4 C2.01 4 1.02 4 0 4 C0 4.66 0 5.32 0 6 C-0.66 5.67 -1.32 5.34 -2 5 C-1.34 3.35 -0.68 1.7 0 0 Z " fill="#C3CCE3" transform="translate(438,248)"/>
<path d="M0 0 C1.65 0 3.3 0 5 0 C5 0.66 5 1.32 5 2 C7.475 2.99 7.475 2.99 10 4 C8 6 8 6 6.125 6.01171875 C5.42375 5.90472656 4.7225 5.79773438 4 5.6875 C3.29875 5.58824219 2.5975 5.48898438 1.875 5.38671875 C0 5 0 5 -2 4 C-1.34 2.68 -0.68 1.36 0 0 Z " fill="#193568" transform="translate(634,217)"/>
<path d="M0 0 C1.50433594 0.01353516 1.50433594 0.01353516 3.0390625 0.02734375 C3.80992187 0.03894531 4.58078125 0.05054688 5.375 0.0625 C3.395 1.0525 3.395 1.0525 1.375 2.0625 C1.375 2.7225 1.375 3.3825 1.375 4.0625 C2.035 4.3925 2.695 4.7225 3.375 5.0625 C-0.255 5.3925 -3.885 5.7225 -7.625 6.0625 C-7.625 4.4125 -7.625 2.7625 -7.625 1.0625 C-4.98041621 -0.25979189 -2.94738699 -0.03427194 0 0 Z " fill="#2A4476" transform="translate(628.625,231.9375)"/>
<path d="M0 0 C0.90105469 0.02707031 1.80210937 0.05414063 2.73046875 0.08203125 C3.76107422 0.13423828 3.76107422 0.13423828 4.8125 0.1875 C4.8125 2.1675 4.8125 4.1475 4.8125 6.1875 C4.4825 6.1875 4.1525 6.1875 3.8125 6.1875 C3.8125 4.5375 3.8125 2.8875 3.8125 1.1875 C-0.23835679 1.43381557 -0.23835679 1.43381557 -4.1875 2.1875 C-5.7774433 4.10814793 -5.7774433 4.10814793 -6.1875 6.1875 C-5.8575 6.5175 -5.5275 6.8475 -5.1875 7.1875 C-5.1875 6.8575 -5.1875 6.5275 -5.1875 6.1875 C-3.5375 6.1875 -1.8875 6.1875 -0.1875 6.1875 C-1.1775 6.5175 -2.1675 6.8475 -3.1875 7.1875 C-4.39632096 9.18766466 -4.39632096 9.18766466 -5.1875 11.1875 C-6.5075 10.1975 -7.8275 9.2075 -9.1875 8.1875 C-8.83539956 5.58195677 -8.54364134 3.67148695 -6.96875 1.53125 C-4.55565742 -0.28915317 -2.98564534 -0.11632384 0 0 Z " fill="#6079B2" transform="translate(370.1875,201.8125)"/>
<path d="M0 0 C0.99 0.33 1.98 0.66 3 1 C2.67 1.99 2.34 2.98 2 4 C2.66 4 3.32 4 4 4 C4.33 3.34 4.66 2.68 5 2 C5.66 2 6.32 2 7 2 C7 3.32 7 4.64 7 6 C5.824375 6.12375 5.824375 6.12375 4.625 6.25 C1.85250896 6.72806339 1.85250896 6.72806339 0.6875 9.0625 C0.460625 9.701875 0.23375 10.34125 0 11 C-0.66 11 -1.32 11 -2 11 C-1.40049704 7.31733897 -0.75241109 3.65456815 0 0 Z " fill="#243E70" transform="translate(413,203)"/>
<path d="M0 0 C1.98 0.99 1.98 0.99 4 2 C4 2.66 4 3.32 4 4 C4.66 4 5.32 4 6 4 C6.66 2.68 7.32 1.36 8 0 C8.66 0 9.32 0 10 0 C10 1.98 10 3.96 10 6 C6.66666667 6 3.33333333 6 0 6 C0 4.02 0 2.04 0 0 Z " fill="#8896C6" transform="translate(403,250)"/>
<path d="M0 0 C0.99 0.99 1.98 1.98 3 3 C3.33 2.34 3.66 1.68 4 1 C4.66 1 5.32 1 6 1 C5.649375 1.78375 5.29875 2.5675 4.9375 3.375 C4.628125 4.24125 4.31875 5.1075 4 6 C4.33 6.66 4.66 7.32 5 8 C2.36 8 -0.28 8 -3 8 C-1.125 2.25 -1.125 2.25 0 0 Z " fill="#2C3A66" transform="translate(398,230)"/>
<path d="M0 0 C0.66 0 1.32 0 2 0 C2 4.29 2 8.58 2 13 C0.68 12.67 -0.64 12.34 -2 12 C-2 9.69 -2 7.38 -2 5 C-1.67 5 -1.34 5 -1 5 C-0.67 3.35 -0.34 1.7 0 0 Z " fill="#1A396C" transform="translate(81,224)"/>
<path d="M0 0 C0.33 0.99 0.66 1.98 1 3 C0.34 3.66 -0.32 4.32 -1 5 C-1.66 4.67 -2.32 4.34 -3 4 C-3.680625 4.99 -3.680625 4.99 -4.375 6 C-4.91125 6.66 -5.4475 7.32 -6 8 C-6.66 8 -7.32 8 -8 8 C-7.75 4.625 -7.75 4.625 -7 1 C-4.18767584 -1.24985933 -3.47216275 -1.15738758 0 0 Z " fill="#24406F" transform="translate(616,207)"/>
<path d="M0 0 C1.65 0.33 3.3 0.66 5 1 C5 2.65 5 4.3 5 6 C3.35 6.33 1.7 6.66 0 7 C-1.125 2.25 -1.125 2.25 0 0 Z " fill="#AAB5D3" transform="translate(638,250)"/>
<path d="M0 0 C2 1 4 2 6 3 C6 2.01 6 1.02 6 0 C6.66 0 7.32 0 8 0 C8 1.98 8 3.96 8 6 C5.36 6 2.72 6 0 6 C0 4.02 0 2.04 0 0 Z " fill="#96A9CC" transform="translate(589,250)"/>
<path d="M0 0 C2.33944736 0.28730055 4.6739143 0.61936779 7 1 C7 4 7 4 5.8125 5.75 C4 7 4 7 1.3125 6.6875 C0.549375 6.460625 -0.21375 6.23375 -1 6 C-0.67 5.34 -0.34 4.68 0 4 C0.66 4 1.32 4 2 4 C1.01 3.01 0.02 2.02 -1 1 C-0.67 0.67 -0.34 0.34 0 0 Z " fill="#A3AFCC" transform="translate(564,250)"/>
<path d="M0 0 C2.31 0 4.62 0 7 0 C7.33 1.65 7.66 3.3 8 5 C5.37886292 5 3.49064888 4.68707555 1 4 C0.67 4.66 0.34 5.32 0 6 C0 4.02 0 2.04 0 0 Z " fill="#9CAACF" transform="translate(456,250)"/>
<path d="M0 0 C3.36938898 1.12312966 4.53174093 2.53174093 7 5 C7 5.99 7 6.98 7 8 C4.125 7.8125 4.125 7.8125 1 7 C-0.4375 4.5625 -0.4375 4.5625 -1 2 C-0.67 1.34 -0.34 0.68 0 0 Z " fill="#233B6E" transform="translate(435,230)"/>
<path d="M0 0 C0.99 0.99 1.98 1.98 3 3 C2.67 3.66 2.34 4.32 2 5 C2.99 5.99 3.98 6.98 5 8 C3.68 9.32 2.36 10.64 1 12 C-0.47075246 7.58774263 -1.36884358 4.51718381 0 0 Z " fill="#243D6D" transform="translate(106,224)"/>
<path d="M0 0 C1.9375 0.375 1.9375 0.375 4 1 C4.33 1.66 4.66 2.32 5 3 C6.65 3 8.3 3 10 3 C10 3.66 10 4.32 10 5 C9.01 5 8.02 5 7 5 C7.309375 6.918125 7.309375 6.918125 7.625 8.875 C7.9765625 11.0546875 7.9765625 11.0546875 8 13 C7.34 13.66 6.68 14.32 6 15 C5.9071875 13.2365625 5.9071875 13.2365625 5.8125 11.4375 C5.23325089 6.51388254 3.08603895 3.79820179 0 0 Z " fill="#192F61" transform="translate(231,209)"/>
<path d="M0 0 C2.31 0 4.62 0 7 0 C7 1.32 7 2.64 7 4 C5.35 4 3.7 4 2 4 C2 4.66 2 5.32 2 6 C1.34 6 0.68 6 0 6 C0 4.02 0 2.04 0 0 Z " fill="#A3B2D3" transform="translate(494,250)"/>
<path d="M0 0 C2.31 0 4.62 0 7 0 C7 0.33 7 0.66 7 1 C5.35 1 3.7 1 2 1 C2 1.66 2 2.32 2 3 C3.65 3 5.3 3 7 3 C7 4.32 7 5.64 7 7 C4.69 7 2.38 7 0 7 C0 4.69 0 2.38 0 0 Z " fill="#A2AACF" transform="translate(394,250)"/>
<path d="M0 0 C2.31 0 4.62 0 7 0 C7 0.99 7 1.98 7 3 C7.33 3.99 7.66 4.98 8 6 C5.69 5.34 3.38 4.68 1 4 C0.67 4.66 0.34 5.32 0 6 C0 4.02 0 2.04 0 0 Z " fill="#A0ABCE" transform="translate(535,250)"/>
<path d="M0 0 C1.65 0 3.3 0 5 0 C5 2.31 5 4.62 5 7 C3.35 7 1.7 7 0 7 C-0.33 5.68 -0.66 4.36 -1 3 C-0.34 3 0.32 3 1 3 C0.67 2.01 0.34 1.02 0 0 Z " fill="#D0D9E9" transform="translate(463,250)"/>
<path d="M0 0 C1.67542976 0.28604898 3.34385343 0.61781233 5 1 C5.33 1.99 5.66 2.98 6 4 C5.01 5.485 5.01 5.485 4 7 C2.68 6.67 1.36 6.34 0 6 C-0.38218767 4.34385343 -0.71395102 2.67542976 -1 1 C-0.67 0.67 -0.34 0.34 0 0 Z " fill="#A8B3CE" transform="translate(630,250)"/>
<path d="M0 0 C0.33 0 0.66 0 1 0 C1.22417836 2.7648665 1.32233508 4.46277487 -0.125 6.875 C-2 8 -2 8 -5.0625 7.875 C-8 7 -8 7 -10 4 C-9.67 3.01 -9.34 2.02 -9 1 C-8.34 1 -7.68 1 -7 1 C-7 2.65 -7 4.3 -7 6 C-3.99615946 5.3045656 -3.99615946 5.3045656 -1 4 C-0.03122943 1.96756452 -0.03122943 1.96756452 0 0 Z " fill="#718ABE" transform="translate(375,250)"/>
<path d="M0 0 C1.65 1.65 3.3 3.3 5 5 C4.01 5.66 3.02 6.32 2 7 C1.41651248 9.6556728 1.41651248 9.6556728 1.3125 12.625 C1.24675781 13.62789062 1.18101563 14.63078125 1.11328125 15.6640625 C1.07589844 16.43492187 1.03851563 17.20578125 1 18 C0.67 18 0.34 18 0 18 C0 12.06 0 6.12 0 0 Z " fill="#ECF2F8" transform="translate(85,209)"/>
<path d="M0 0 C2.31 0 4.62 0 7 0 C6.67 1.32 6.34 2.64 6 4 C4.35 4 2.7 4 1 4 C0.67 4.66 0.34 5.32 0 6 C0 4.02 0 2.04 0 0 Z " fill="#A2B0D4" transform="translate(415,250)"/>
<path d="M0 0 C2.64 0 5.28 0 8 0 C8 1.32 8 2.64 8 4 C8.66 4.66 9.32 5.32 10 6 C3.84765625 5.4140625 3.84765625 5.4140625 2 5 C1.67 4.34 1.34 3.68 1 3 C2.32 2.67 3.64 2.34 5 2 C3.35 1.67 1.7 1.34 0 1 C0 0.67 0 0.34 0 0 Z " fill="#284173" transform="translate(566,232)"/>
<path d="M0 0 C3.875 1.875 3.875 1.875 5 3 C5.33 2.01 5.66 1.02 6 0 C6.66 0 7.32 0 8 0 C8 1.98 8 3.96 8 6 C5.13275314 5.42655063 4.1385485 5.1385485 2 3 C1.34 3.99 0.68 4.98 0 6 C0 4.02 0 2.04 0 0 Z " fill="#8694C2" transform="translate(470,250)"/>
<path d="M0 0 C1.32 0.66 2.64 1.32 4 2 C4 4.83967231 3.59732819 7.23735711 3 10 C2.67 9.01 2.34 8.02 2 7 C1.34 7 0.68 7 0 7 C0.33 6.01 0.66 5.02 1 4 C0.01 3.34 -0.98 2.68 -2 2 C-1.34 1.34 -0.68 0.68 0 0 Z " fill="#2A3F70" transform="translate(549,207)"/>
<path d="M0 0 C2.31 0 4.62 0 7 0 C7 0.33 7 0.66 7 1 C5.35 1 3.7 1 2 1 C2 1.66 2 2.32 2 3 C3.65 3 5.3 3 7 3 C7 3.99 7 4.98 7 6 C4.69 6 2.38 6 0 6 C0 4.02 0 2.04 0 0 Z " fill="#96A7C9" transform="translate(447,250)"/>
<path d="M0 0 C2.875 0.3125 2.875 0.3125 6 1 C6.66 1.99 7.32 2.98 8 4 C7.67 4.99 7.34 5.98 7 7 C5.35 6.67 3.7 6.34 2 6 C2 4.35 2 2.7 2 1 C1.34 0.67 0.68 0.34 0 0 Z " fill="#334975" transform="translate(328,247)"/>
<path d="M0 0 C0.66 0.33 1.32 0.66 2 1 C1.34 2.32 0.68 3.64 0 5 C0 4.34 0 3.68 0 3 C-0.99 3.33 -1.98 3.66 -3 4 C-2.67 4.66 -2.34 5.32 -2 6 C-4.64 6 -7.28 6 -10 6 C-6.71739341 3.81159561 -3.49181927 1.84114107 0 0 Z " fill="#31497A" transform="translate(227,202)"/>
<path d="M0 0 C1.65 0 3.3 0 5 0 C5 1.32 5 2.64 5 4 C3.35 4 1.7 4 0 4 C0 2.68 0 1.36 0 0 Z " fill="#F1F8F9" transform="translate(515,251)"/>
<path d="M0 0 C1.98 0 3.96 0 6 0 C5.67 1.65 5.34 3.3 5 5 C3.35 4.67 1.7 4.34 0 4 C0 2.68 0 1.36 0 0 Z " fill="#213C6E" transform="translate(238,214)"/>
<path d="M0 0 C1.65 0.33 3.3 0.66 5 1 C5 1.99 5 2.98 5 4 C3.02 4 1.04 4 -1 4 C-0.67 2.68 -0.34 1.36 0 0 Z " fill="#F2F7FB" transform="translate(426,251)"/>
<path d="M0 0 C0.33 0.99 0.66 1.98 1 3 C-2.82097239 2.46930939 -5.06171403 1.50298434 -8 -1 C-4.63757626 -2.20086562 -2.95940955 -2.0409721 0 0 Z " fill="#2E4470" transform="translate(585,210)"/>
<path d="M0 0 C1.485 0.99 1.485 0.99 3 2 C3 2.66 3 3.32 3 4 C3.66 4 4.32 4 5 4 C4.67 5.32 4.34 6.64 4 8 C2.35 6.35 0.7 4.7 -1 3 C-0.67 2.01 -0.34 1.02 0 0 Z " fill="#ECEFF5" transform="translate(347,214)"/>
<path d="M0 0 C0.33 0.66 0.66 1.32 1 2 C0.67 2.99 0.34 3.98 0 5 C0.66 5.33 1.32 5.66 2 6 C1.67 6.99 1.34 7.98 1 9 C0.01 9 -0.98 9 -2 9 C-3.04940314 5.85179059 -3.066855 5.00659136 -2 2 C-1.34 1.34 -0.68 0.68 0 0 Z " fill="#253E6F" transform="translate(202,207)"/>
<path d="M0 0 C2.875 0.3125 2.875 0.3125 6 1 C6.66 1.99 7.32 2.98 8 4 C7.67 4.99 7.34 5.98 7 7 C6.34 6.01 5.68 5.02 5 4 C2.43717258 3.27034634 2.43717258 3.27034634 0 3 C0 2.01 0 1.02 0 0 Z " fill="#5578B5" transform="translate(348,247)"/>
<path d="M0 0 C3 3.75 3 3.75 3 6 C4.65 6 6.3 6 8 6 C7.67 6.66 7.34 7.32 7 8 C2.25 7.25 2.25 7.25 0 5 C-0.125 2.375 -0.125 2.375 0 0 Z " fill="#283C66" transform="translate(325,250)"/>
<path d="M0 0 C0.66 0 1.32 0 2 0 C2.33 2.31 2.66 4.62 3 7 C0.525 6.01 0.525 6.01 -2 5 C-1.67 4.34 -1.34 3.68 -1 3 C-1.33 2.67 -1.66 2.34 -2 2 C-1.34 1.34 -0.68 0.68 0 0 Z " fill="#2A4270" transform="translate(578,229)"/>
<path d="M0 0 C2.97 0.99 5.94 1.98 9 3 C5 4 5 4 3 3 C2.34 3.66 1.68 4.32 1 5 C0.01 4.01 -0.98 3.02 -2 2 C-1.34 2 -0.68 2 0 2 C0 1.34 0 0.68 0 0 Z " fill="#173163" transform="translate(555,229)"/>
<path d="M0 0 C0.66 0.33 1.32 0.66 2 1 C1.67 1.99 1.34 2.98 1 4 C1.99 4.33 2.98 4.66 4 5 C4 5.99 4 6.98 4 8 C0.58841744 6.86280581 -0.11854601 5.95657056 -2 3 C-2 2.34 -2 1.68 -2 1 C-1.34 0.67 -0.68 0.34 0 0 Z " fill="#E2E9EF" transform="translate(299,223)"/>
<path d="M0 0 C-0.33 0.99 -0.66 1.98 -1 3 C-1.99 3 -2.98 3 -4 3 C-4.28875 3.639375 -4.5775 4.27875 -4.875 4.9375 C-6 7 -6 7 -8 8 C-6.65580512 3.85539913 -4.87800266 0 0 0 Z " fill="#E2E7F2" transform="translate(560,209)"/>
<path d="M0 0 C3.63 0 7.26 0 11 0 C7 3 7 3 3.8125 2.8125 C2.884375 2.544375 1.95625 2.27625 1 2 C0.67 1.34 0.34 0.68 0 0 Z " fill="#163163" transform="translate(216,202)"/>
<path d="M0 0 C1.32 0 2.64 0 4 0 C4 1.32 4 2.64 4 4 C2.35 4 0.7 4 -1 4 C-0.67 2.68 -0.34 1.36 0 0 Z " fill="#F4FAF8" transform="translate(601,251)"/>
<path d="M0 0 C0.99 0 1.98 0 3 0 C3.33 1.98 3.66 3.96 4 6 C4.99 6.33 5.98 6.66 7 7 C5.68 7.33 4.36 7.66 3 8 C0 3.375 0 3.375 0 0 Z " fill="#192D5C" transform="translate(432,230)"/>
<path d="M0 0 C0.33 0.99 0.66 1.98 1 3 C1.99 3.33 2.98 3.66 4 4 C3.34 6.31 2.68 8.62 2 11 C0.5907717 8.3694405 -0.52274325 5.95899183 -1 3 C-0.67 2.01 -0.34 1.02 0 0 Z " fill="#162F65" transform="translate(144,220)"/>
<path d="M0 0 C1.7074998 1.28062485 3.37373596 2.61767557 5 4 C5 4.66 5 5.32 5 6 C3.35 6.33 1.7 6.66 0 7 C0 4.69 0 2.38 0 0 Z " fill="#DDE4F0" transform="translate(469,250)"/>
<path d="M0 0 C0.66 0 1.32 0 2 0 C1.3125 2.4375 1.3125 2.4375 0 5 C-2.625 5.8125 -2.625 5.8125 -5 6 C-4.34 4.68 -3.68 3.36 -3 2 C-2.34 2 -1.68 2 -1 2 C-0.67 1.34 -0.34 0.68 0 0 Z " fill="#1D3973" transform="translate(402,231)"/>
<path d="M0 0 C1.65 0 3.3 0 5 0 C5 1.65 5 3.3 5 5 C4.01 5.495 4.01 5.495 3 6 C3 5.34 3 4.68 3 4 C2.34 4 1.68 4 1 4 C0.67 2.68 0.34 1.36 0 0 Z " fill="#253F72" transform="translate(236,226)"/>
<path d="M0 0 C0.33 0.66 0.66 1.32 1 2 C1.66 2 2.32 2 3 2 C2.67 3.65 2.34 5.3 2 7 C1.01 7 0.02 7 -1 7 C-0.67 4.69 -0.34 2.38 0 0 Z " fill="#3A5280" transform="translate(609,208)"/>
<path d="M0 0 C0 0.66 0 1.32 0 2 C-2.3125 2.625 -2.3125 2.625 -5 3 C-5.99 2.34 -6.98 1.68 -8 1 C-4.93251126 -0.86240388 -3.40254489 -1.2151946 0 0 Z " fill="#233A6C" transform="translate(560,204)"/>
</svg>
