<?xml version="1.0" standalone="no"?>
<!DOCTYPE svg PUBLIC "-//W3C//DTD SVG 20010904//EN"
 "http://www.w3.org/TR/2001/REC-SVG-20010904/DTD/svg10.dtd">
<svg version="1.0" xmlns="http://www.w3.org/2000/svg"
 width="1599.000000pt" height="307.000000pt" viewBox="0 0 1599.000000 307.000000"
 preserveAspectRatio="xMidYMid meet">

<g transform="translate(0.000000,307.000000) scale(0.100000,-0.100000)"
fill="#000000" stroke="none">
<path d="M15580 2967 c-49 -16 -123 -93 -138 -143 -28 -96 -6 -189 59 -251 46
-43 97 -63 164 -63 165 0 272 149 224 311 -36 119 -180 187 -309 146z m180
-55 c51 -27 92 -90 98 -151 11 -121 -109 -239 -221 -216 -133 29 -203 164
-146 282 22 46 70 89 116 103 38 13 110 4 153 -18z"/>
<path d="M15580 2751 c0 -123 1 -131 19 -131 17 0 20 8 23 48 2 39 7 48 24 50
16 2 25 -8 44 -48 20 -43 27 -50 52 -50 l28 0 -25 51 -26 50 21 17 c32 27 36
74 8 107 -21 24 -33 28 -96 33 l-72 5 0 -132z m135 60 c8 -27 -4 -50 -30 -57
-44 -11 -60 -1 -63 39 l-3 37 45 0 c35 0 46 -4 51 -19z"/>
<path d="M5670 2555 l0 -385 -384 0 c-414 0 -478 -6 -596 -53 -226 -92 -388
-275 -456 -517 -17 -60 -18 -123 -22 -762 l-3 -698 300 0 301 0 0 658 c0 621
1 659 19 692 10 19 33 45 51 58 33 22 36 22 406 22 l374 0 0 -357 c0 -197 5
-389 10 -427 37 -253 196 -470 423 -576 137 -64 183 -70 579 -70 l358 0 0 295
0 295 -325 0 c-309 0 -328 1 -366 21 -29 14 -46 32 -60 62 -17 39 -19 70 -19
400 l0 357 455 0 455 0 0 -715 0 -715 295 0 295 0 0 715 0 715 284 0 c277 0
284 0 317 -23 19 -12 44 -42 57 -67 l22 -44 0 -648 0 -648 295 0 295 0 0 683
c0 645 -1 686 -20 764 -60 250 -249 457 -493 538 -112 37 -190 44 -489 45
l-268 0 0 385 0 385 -295 0 -295 0 0 -385 0 -385 -455 0 -455 0 0 385 0 385
-295 0 -295 0 0 -385z"/>
<path d="M13310 1540 l0 -1400 295 0 295 0 0 1400 0 1400 -295 0 -295 0 0
-1400z"/>
<path d="M14085 1903 c-8 -1114 -7 -1129 42 -1268 84 -237 279 -413 527 -475
73 -18 113 -20 478 -20 l398 0 -2 293 -3 292 -370 5 c-416 6 -417 6 -455 80
-19 37 -20 58 -20 400 l0 360 425 0 425 0 0 300 0 300 -425 0 -425 0 0 385 0
385 -294 0 -293 0 -8 -1037z"/>
<path d="M2880 2201 c-375 -80 -668 -358 -767 -729 -24 -88 -26 -115 -27 -297
-1 -221 10 -293 66 -434 191 -483 727 -739 1222 -584 334 104 586 366 678 703
21 77 23 106 23 305 0 199 -2 228 -23 305 -49 179 -135 325 -271 460 -235 235
-582 338 -901 271z m282 -582 c159 -34 289 -165 318 -320 13 -69 13 -206 -1
-271 -53 -255 -334 -394 -574 -284 -71 32 -153 115 -191 191 -29 59 -29 62
-29 230 0 163 1 172 27 227 35 75 104 148 177 187 94 50 172 61 273 40z"/>
<path d="M11986 2205 c-216 -45 -373 -129 -526 -284 -131 -132 -220 -290 -267
-479 -25 -96 -25 -458 0 -554 111 -441 471 -745 916 -774 465 -31 901 282
1021 731 46 176 46 476 0 645 -94 338 -373 610 -719 702 -101 26 -327 34 -425
13z m277 -590 c125 -32 216 -107 270 -223 29 -62 32 -77 35 -195 4 -101 1
-143 -13 -194 -80 -295 -433 -396 -662 -189 -73 66 -110 145 -124 263 -22 183
13 323 106 422 105 112 244 153 388 116z"/>
<path d="M741 2160 c-175 -25 -327 -104 -451 -237 -80 -85 -123 -156 -164
-270 l-31 -88 -3 -712 -3 -713 295 0 296 0 2 664 c3 656 3 665 24 693 11 15
36 38 54 51 32 21 41 22 255 22 214 0 223 -1 255 -22 18 -13 43 -36 54 -51 21
-28 21 -37 24 -693 l2 -664 298 2 297 3 3 610 c1 354 -2 652 -7 711 -28 280
-173 494 -420 618 -133 68 -194 78 -471 82 -135 1 -274 -1 -309 -6z"/>
<path d="M8923 2158 c2 -7 188 -413 412 -903 224 -490 412 -901 417 -914 17
-47 81 -122 136 -161 196 -141 460 -90 599 115 11 17 206 437 433 935 227 498
417 913 422 923 8 16 -10 17 -320 17 l-330 0 -278 -612 -278 -612 -31 65 c-16
35 -142 310 -280 611 l-250 547 -329 1 c-258 0 -327 -3 -323 -12z"/>
</g>
</svg>
