<?xml version="1.0" encoding="UTF-8"?>
<svg version="1.1" xmlns="http://www.w3.org/2000/svg" width="160" height="160">
<path d="M0 0 C52.8 0 105.6 0 160 0 C160 52.8 160 105.6 160 160 C107.2 160 54.4 160 0 160 C0 107.2 0 54.4 0 0 Z " fill="#FDFDFD" transform="translate(0,0)"/>
<path d="M0 0 C52.8 0 105.6 0 160 0 C160 26.07 160 52.14 160 79 C157.66666667 76.66666667 155.33333333 74.33333333 153 72 C150.41645782 71.83312552 150.41645782 71.83312552 148 72 C148 71.34 148 70.68 148 70 C147.34 70 146.68 70 146 70 C145.34 68.68 144.68 67.36 144 66 C143.01 66 142.02 66 141 66 C140.34 66.66 139.68 67.32 139 68 C109.625 68 109.625 68 105 67 C104.01 68.65 103.02 70.3 102 72 C101.7525 71.360625 101.505 70.72125 101.25 70.0625 C100.19716567 67.80696091 100.19716567 67.80696091 97.921875 67.37109375 C97.28765625 67.24863281 96.6534375 67.12617187 96 67 C95.44570312 67.6496875 94.89140625 68.299375 94.3203125 68.96875 C93.59585938 69.8040625 92.87140625 70.639375 92.125 71.5 C91.40570313 72.3353125 90.68640625 73.170625 89.9453125 74.03125 C88.98238281 75.00578125 88.98238281 75.00578125 88 76 C87.34 76 86.68 76 86 76 C85.505 71.545 85.505 71.545 85 67 C80.545 67.495 80.545 67.495 76 68 C75.92652344 69.69769531 75.92652344 69.69769531 75.8515625 71.4296875 C75.77653486 72.91148339 75.70098703 74.393253 75.625 75.875 C75.5940625 76.62136719 75.563125 77.36773437 75.53125 78.13671875 C75.2265625 83.7734375 75.2265625 83.7734375 73 86 C68.44444444 85.44444444 68.44444444 85.44444444 67 84 C66.76298761 81.14122091 66.57780818 78.30116703 66.4375 75.4375 C66.39431641 74.63119141 66.35113281 73.82488281 66.30664062 72.99414062 C66.20024738 70.99631195 66.09959112 68.9981793 66 67 C62.59679066 66.32326553 62.59679066 66.32326553 59 66 C58.34 66.66 57.68 67.32 57 68 C54.95288086 68.21118164 54.95288086 68.21118164 52.46484375 68.16015625 C51.57345703 68.14919922 50.68207031 68.13824219 49.76367188 68.12695312 C48.83103516 68.10568359 47.89839844 68.08441406 46.9375 68.0625 C45.09252339 68.0282162 43.24746425 67.99804169 41.40234375 67.97265625 C40.58241943 67.95468994 39.76249512 67.93672363 38.91772461 67.91821289 C36.99072326 67.78383164 36.99072326 67.78383164 36 69 C35.76636119 70.84891946 35.58696365 72.70488031 35.4375 74.5625 C35.35371094 75.57441406 35.26992188 76.58632812 35.18359375 77.62890625 C35.09271484 78.80259766 35.09271484 78.80259766 35 80 C34.67 80 34.34 80 34 80 C33.67 76.04 33.34 72.08 33 68 C31.35 67.67 29.7 67.34 28 67 C26.38219843 68.61780157 26.77727853 70.45635518 26.68359375 72.69140625 C26.64169922 73.63564453 26.59980469 74.57988281 26.55664062 75.55273438 C26.51732422 76.54595703 26.47800781 77.53917969 26.4375 78.5625 C26.39431641 79.55958984 26.35113281 80.55667969 26.30664062 81.58398438 C26.20019702 84.0558415 26.09818072 86.5278031 26 89 C25.34 89 24.68 89 24 89 C24.33 90.32 24.66 91.64 25 93 C23.02 93 21.04 93 19 93 C19 92.34 19 91.68 19 91 C18.34 90.67 17.68 90.34 17 90 C17.33773438 89.20335938 17.67546875 88.40671875 18.0234375 87.5859375 C18.46945313 86.52632813 18.91546875 85.46671875 19.375 84.375 C19.81585937 83.33085938 20.25671875 82.28671875 20.7109375 81.2109375 C23.68315075 74.27357907 23.68315075 74.27357907 23 67 C21.68 67 20.36 67 19 67 C17.35 72.28 15.7 77.56 14 83 C13.34 83 12.68 83 12 83 C10.68 78.05 9.36 73.1 8 68 C3.35954625 66.90194193 3.35954625 66.90194193 0 67 C0 44.89 0 22.78 0 0 Z " fill="#FEFEFE" transform="translate(0,0)"/>
<path d="M0 0 C0.33 0.66 0.66 1.32 1 2 C1.969375 1.979375 2.93875 1.95875 3.9375 1.9375 C7 2 7 2 8 3 C8.23701239 5.85877909 8.42219182 8.69883297 8.5625 11.5625 C8.60568359 12.36880859 8.64886719 13.17511719 8.69335938 14.00585938 C8.79975262 16.00368805 8.90040888 18.0018207 9 20 C10.65614657 20.38218767 12.32457024 20.71395102 14 21 C16.05922402 18.94077598 15.41427579 14.78291876 15.5625 11.9375 C15.62727539 10.79958008 15.62727539 10.79958008 15.69335938 9.63867188 C15.79973633 7.75934562 15.90039934 5.87969756 16 4 C20.17988811 2.4831985 22.66726849 1.7256672 27 3 C27 5.97 27 8.94 27 12 C27.721875 11.278125 28.44375 10.55625 29.1875 9.8125 C30.115625 8.884375 31.04375 7.95625 32 7 C32.845625 6.05125 33.69125 5.1025 34.5625 4.125 C35.7690625 3.073125 35.7690625 3.073125 37 2 C39.3125 2.1875 39.3125 2.1875 41 3 C41.8125 4.625 41.8125 4.625 42 7 C40.53181864 9.24609835 38.84147142 11.02378677 37 13 C37.9646453 15.67132544 38.82409283 17.78349887 40.625 20 C42.33518303 22.48753895 42.2463356 24.04397282 42 27 C40.35 27.33 38.7 27.66 37 28 C34.69 25.36 32.38 22.72 30 20 C29.01 20.495 29.01 20.495 28 21 C27.26924352 23.3140622 26.59861742 25.64828869 26 28 C22.37 27.67 18.74 27.34 15 27 C15 27.66 15 28.32 15 29 C12.03 29.495 12.03 29.495 9 30 C8.87625 31.27875 8.7525 32.5575 8.625 33.875 C8.25 37.75 8.25 37.75 6 40 C3.25 40.1953125 3.25 40.1953125 0 40.125 C-1.0725 40.10695312 -2.145 40.08890625 -3.25 40.0703125 C-4.1575 40.04710937 -5.065 40.02390625 -6 40 C-6.66 40 -7.32 40 -8 40 C-9.66666667 40 -11.33333333 40 -13 40 C-13 38.02 -13 36.04 -13 34 C-10.525 33.505 -10.525 33.505 -8 33 C-8.33 31.35 -8.66 29.7 -9 28 C-9.84304687 28.02320312 -10.68609375 28.04640625 -11.5546875 28.0703125 C-13.19824219 28.09738281 -13.19824219 28.09738281 -14.875 28.125 C-16.51082031 28.15980469 -16.51082031 28.15980469 -18.1796875 28.1953125 C-21 28 -21 28 -23 26 C-23.24291992 23.76928711 -23.24291992 23.76928711 -23.23046875 21.02734375 C-23.22853516 20.04572266 -23.22660156 19.06410156 -23.22460938 18.05273438 C-23.21236328 17.02470703 -23.20011719 15.99667969 -23.1875 14.9375 C-23.18685547 13.90560547 -23.18621094 12.87371094 -23.18554688 11.81054688 C-23.14015997 4.14015997 -23.14015997 4.14015997 -22 3 C-20.5334159 2.94958909 -19.06446079 2.96428543 -17.59765625 3.0078125 C-16.70755859 3.02457031 -15.81746094 3.04132813 -14.90039062 3.05859375 C-13.01216842 3.10277789 -11.12411356 3.15483122 -9.23632812 3.21484375 C-8.34494141 3.22902344 -7.45355469 3.24320312 -6.53515625 3.2578125 C-5.714104 3.2798877 -4.89305176 3.30196289 -4.04711914 3.32470703 C-3.37156982 3.21755371 -2.69602051 3.11040039 -2 3 C-1.34 2.01 -0.68 1.02 0 0 Z " fill="#FAF8F3" transform="translate(59,64)"/>
<path d="M0 0 C1.67542976 0.28604898 3.34385343 0.61781233 5 1 C6.92471317 6.33835539 8.39891424 11.34979382 9 17 C9.66 17 10.32 17 11 17 C11.19335938 16.02417969 11.38671875 15.04835938 11.5859375 14.04296875 C11.84632812 12.77066406 12.10671875 11.49835938 12.375 10.1875 C12.75785156 8.29064453 12.75785156 8.29064453 13.1484375 6.35546875 C14 3 14 3 16 0 C18.475 0.495 18.475 0.495 21 1 C22.78733161 6.11687508 20.92145372 9.89164346 19.0625 14.6875 C16.90069299 19.71569319 16.90069299 19.71569319 16 25 C17.65 25.33 19.3 25.66 21 26 C21 25.01 21 24.02 21 23 C21.66 23 22.32 23 23 23 C22.98952637 22.37432129 22.97905273 21.74864258 22.96826172 21.10400391 C22.92676809 18.2777099 22.90069527 15.45147989 22.875 12.625 C22.84986328 11.14773437 22.84986328 11.14773437 22.82421875 9.640625 C22.81777344 8.69960937 22.81132812 7.75859375 22.8046875 6.7890625 C22.79421387 5.91975098 22.78374023 5.05043945 22.77294922 4.15478516 C23 2 23 2 25 0 C29.55555556 0.55555556 29.55555556 0.55555556 31 2 C31.25201884 5.61805871 31.18522535 9.2492008 31.1875 12.875 C31.19974609 13.89464844 31.21199219 14.91429688 31.22460938 15.96484375 C31.22654297 16.94324219 31.22847656 17.92164062 31.23046875 18.9296875 C31.23457764 19.82929199 31.23868652 20.72889648 31.24291992 21.65576172 C31 24 31 24 29 27 C29.66 27.33 30.32 27.66 31 28 C30.01 28.99 29.02 29.98 28 31 C28.33 31.66 28.66 32.32 29 33 C29.66 32.34 30.32 31.68 31 31 C31.495 31.99 31.495 31.99 32 33 C32.495 32.01 32.495 32.01 33 31 C34.66666667 31 36.33333333 31 38 31 C38 32.98 38 34.96 38 37 C38.99 37.33 39.98 37.66 41 38 C39.54207116 38.05399736 38.08357288 38.09279177 36.625 38.125 C35.81289063 38.14820313 35.00078125 38.17140625 34.1640625 38.1953125 C32 38 32 38 30 36 C29.34 36.66 28.68 37.32 28 38 C26.66158328 37.68770276 25.32860925 37.35169068 24 37 C22.948125 37.2784375 22.948125 37.2784375 21.875 37.5625 C21.25625 37.706875 20.6375 37.85125 20 38 C19.34 37.34 18.68 36.68 18 36 C17.01 36.66 16.02 37.32 15 38 C14.34 37.34 13.68 36.68 13 36 C12.67 36.66 12.34 37.32 12 38 C11.34 38 10.68 38 10 38 C10 36.35 10 34.7 10 33 C9.01 33.495 9.01 33.495 8 34 C8 35.32 8 36.64 8 38 C6.35 38 4.7 38 3 38 C3 35.69 3 33.38 3 31 C6.13498292 29.14223235 8.37471432 28.79859524 12 29 C12 28.34 12 27.68 12 27 C11.2575 26.95875 10.515 26.9175 9.75 26.875 C5.8272103 25.62683964 5.07152566 23.5009995 3 20 C1.98419988 17.67854419 1.04617261 15.32154872 0.1875 12.9375 C-0.25207031 11.75027344 -0.69164062 10.56304687 -1.14453125 9.33984375 C-2.00258566 5.9899053 -2.06627706 4.24648601 -1 1 C-0.67 0.67 -0.34 0.34 0 0 Z " fill="#FAFAF8" transform="translate(3,66)"/>
<path d="M0 0 C1.23234375 -0.02578125 2.4646875 -0.0515625 3.734375 -0.078125 C7.50785259 0.27406624 9.30894424 0.90138713 12.25 3.25 C15.33391869 7.67028346 14.86951519 13.09502172 14.25 18.25 C11.93717548 22.44734821 9.70460517 23.78010867 5.25 25.25 C2.42578125 25.515625 2.42578125 25.515625 -0.4375 25.5 C-1.86642578 25.50773437 -1.86642578 25.50773437 -3.32421875 25.515625 C-5.75 25.25 -5.75 25.25 -7.75 23.25 C-7.99291992 21.01928711 -7.99291992 21.01928711 -7.98046875 18.27734375 C-7.97853516 17.29572266 -7.97660156 16.31410156 -7.97460938 15.30273438 C-7.96236328 14.27470703 -7.95011719 13.24667969 -7.9375 12.1875 C-7.93685547 11.15560547 -7.93621094 10.12371094 -7.93554688 9.06054688 C-7.88251478 0.09812259 -7.88251478 0.09812259 0 0 Z " fill="#EC921D" transform="translate(43.75,66.75)"/>
<path d="M0 0 C2.625 0.375 2.625 0.375 5 1 C5 3.97 5 6.94 5 10 C5.721875 9.278125 6.44375 8.55625 7.1875 7.8125 C8.5796875 6.4203125 8.5796875 6.4203125 10 5 C10.845625 4.05125 11.69125 3.1025 12.5625 2.125 C13.366875 1.42375 14.17125 0.7225 15 0 C17.3125 0.1875 17.3125 0.1875 19 1 C19.8125 2.625 19.8125 2.625 20 5 C18.53181864 7.24609835 16.84147142 9.02378677 15 11 C15.9646453 13.67132544 16.82409283 15.78349887 18.625 18 C20.33518303 20.48753895 20.2463356 22.04397282 20 25 C18.35 25.33 16.7 25.66 15 26 C12.69 23.36 10.38 20.72 8 18 C7.34 18.33 6.68 18.66 6 19 C5.26924352 21.3140622 4.59861742 23.64828869 4 26 C-0.875 25.125 -0.875 25.125 -2 24 C-2.25156269 20.36100825 -2.18522226 16.70916327 -2.1875 13.0625 C-2.19974609 12.03447266 -2.21199219 11.00644531 -2.22460938 9.94726562 C-2.22654297 8.96564453 -2.22847656 7.98402344 -2.23046875 6.97265625 C-2.23457764 6.06781494 -2.23868652 5.16297363 -2.24291992 4.23071289 C-2 2 -2 2 0 0 Z " fill="#0A2496" transform="translate(81,66)"/>
<path d="M0 0 C1.67542976 0.28604898 3.34385343 0.61781233 5 1 C6.92471317 6.33835539 8.39891424 11.34979382 9 17 C9.66 17 10.32 17 11 17 C11.19335938 16.02417969 11.38671875 15.04835938 11.5859375 14.04296875 C11.84632812 12.77066406 12.10671875 11.49835938 12.375 10.1875 C12.75785156 8.29064453 12.75785156 8.29064453 13.1484375 6.35546875 C14 3 14 3 16 0 C18.475 0.495 18.475 0.495 21 1 C22.72457667 6.06279233 21.06603016 9.83447004 19.3125 14.625 C19.05533203 15.388125 18.79816406 16.15125 18.53320312 16.9375 C17.07775402 21.01418792 16.03349064 23.90646478 12 26 C9.5 26.5625 9.5 26.5625 7 26 C3.8692331 21.89974512 1.92966863 17.77451804 0.1875 12.9375 C-0.25207031 11.75027344 -0.69164062 10.56304687 -1.14453125 9.33984375 C-2.00258566 5.9899053 -2.06627706 4.24648601 -1 1 C-0.67 0.67 -0.34 0.34 0 0 Z " fill="#D7720F" transform="translate(3,66)"/>
<path d="M0 0 C1.65 0.33 3.3 0.66 5 1 C5.33 6.61 5.66 12.22 6 18 C7.65 18.33 9.3 18.66 11 19 C13.05922402 16.94077598 12.41427579 12.78291876 12.5625 9.9375 C12.60568359 9.17888672 12.64886719 8.42027344 12.69335938 7.63867188 C12.79973633 5.75934562 12.90039934 3.87969756 13 2 C14.65 1.67 16.3 1.34 18 1 C17.67 8.59 17.34 16.18 17 24 C12.21779105 25.91288358 9.99258674 26.52553545 5 26 C-0.68421053 22.94736842 -0.68421053 22.94736842 -2 19 C-2.12213515 16.13408445 -2.18512182 13.30320488 -2.1875 10.4375 C-2.19974609 9.65697266 -2.21199219 8.87644531 -2.22460938 8.07226562 C-2.22985217 6.04679965 -2.12234328 4.02177448 -2 2 C-1.34 1.34 -0.68 0.68 0 0 Z " fill="#D2721B" transform="translate(62,66)"/>
<path d="M0 0 C6.6 0 13.2 0 20 0 C20.33 1.32 20.66 2.64 21 4 C19 6 19 6 16.375 6.125 C15.59125 6.08375 14.8075 6.0425 14 6 C14.02320312 7.20398438 14.04640625 8.40796875 14.0703125 9.6484375 C14.08906863 11.22395215 14.10726899 12.79947348 14.125 14.375 C14.15013672 15.56609375 14.15013672 15.56609375 14.17578125 16.78125 C14.19335473 18.85492015 14.10335168 20.92883241 14 23 C13.34 23.66 12.68 24.32 12 25 C10.35 24.67 8.7 24.34 7 24 C7 17.73 7 11.46 7 5 C4.69 5 2.38 5 0 5 C0 3.35 0 1.7 0 0 Z " fill="#182093" transform="translate(113,67)"/>
<path d="M0 0 C2.53433163 1.91787258 4.70677253 3.58948155 6.5625 6.1875 C8.26664484 8.33620437 9.33318782 8.63216384 12 9 C12 9.99 12 10.98 12 12 C11.01 12 10.02 12 9 12 C9 14.64 9 17.28 9 20 C7.68 20.33 6.36 20.66 5 21 C4.67 20.34 4.34 19.68 4 19 C3.34 19.33 2.68 19.66 2 20 C1.67 19.01 1.34 18.02 1 17 C0.67 18.32 0.34 19.64 0 21 C-2.64 21 -5.28 21 -8 21 C-8.86476686 18.57865279 -9.1422798 17.39126946 -8.25 14.9375 C-7.00556581 13.00862701 -5.69452571 11.54047791 -4 10 C-5.32 10 -6.64 10 -8 10 C-7.67 9.34 -7.34 8.68 -7 8 C-5.68 8 -4.36 8 -3 8 C-2.690625 6.865625 -2.38125 5.73125 -2.0625 4.5625 C-1 1 -1 1 0 0 Z " fill="#DBDCE1" transform="translate(88,83)"/>
<path d="M0 0 C0.33 0.66 0.66 1.32 1 2 C1.66 2 2.32 2 3 2 C3.33 3.65 3.66 5.3 4 7 C4.99 6.01 5.98 5.02 7 4 C7 7.96 7 11.92 7 16 C9.99405579 15.53146378 9.99405579 15.53146378 13 14 C14.46022435 10.47548841 14.46022435 10.47548841 15 7 C16.32 7.66 17.64 8.32 19 9 C19 9.99 19 10.98 19 12 C19.99 12.33 20.98 12.66 22 13 C20.73090537 16.91304179 19.53743024 18.85610288 16 21 C12.91701949 22.02766017 10.66869574 22.16598738 7.4375 22.1875 C5.98150391 22.20876953 5.98150391 22.20876953 4.49609375 22.23046875 C2 22 2 22 0 20 C-0.22705078 17.93701172 -0.22705078 17.93701172 -0.1953125 15.4296875 C-0.18886719 14.53378906 -0.18242188 13.63789062 -0.17578125 12.71484375 C-0.15902344 11.77769531 -0.14226563 10.84054688 -0.125 9.875 C-0.11597656 8.93011719 -0.10695312 7.98523438 -0.09765625 7.01171875 C-0.07404522 4.67422708 -0.04111516 2.33723877 0 0 Z " fill="#D87516" transform="translate(36,70)"/>
<path d="M0 0 C4.55555556 0.55555556 4.55555556 0.55555556 6 2 C6.25156269 5.63899175 6.18522226 9.29083673 6.1875 12.9375 C6.19974609 13.96552734 6.21199219 14.99355469 6.22460938 16.05273438 C6.22750977 17.52516602 6.22750977 17.52516602 6.23046875 19.02734375 C6.23457764 19.93218506 6.23868652 20.83702637 6.24291992 21.76928711 C6 24 6 24 4 26 C0.875 25.625 0.875 25.625 -2 25 C-2.05786668 21.20839703 -2.09355054 17.41690689 -2.125 13.625 C-2.14175781 12.54476562 -2.15851562 11.46453125 -2.17578125 10.3515625 C-2.18222656 9.3203125 -2.18867188 8.2890625 -2.1953125 7.2265625 C-2.20578613 6.27346191 -2.21625977 5.32036133 -2.22705078 4.33837891 C-2 2 -2 2 0 0 Z " fill="#E69E48" transform="translate(28,66)"/>
<path d="M0 0 C0.33 0 0.66 0 1 0 C1.02505615 0.63091553 1.0501123 1.26183105 1.07592773 1.91186523 C1.19154137 4.75396825 1.31442316 7.59571083 1.4375 10.4375 C1.47681641 11.43072266 1.51613281 12.42394531 1.55664062 13.44726562 C1.59853516 14.39150391 1.64042969 15.33574219 1.68359375 16.30859375 C1.72025146 17.18314209 1.75690918 18.05769043 1.79467773 18.95874023 C1.78181066 20.9927402 1.78181066 20.9927402 3 22 C5.18639453 22.07258946 7.37500389 22.08373783 9.5625 22.0625 C10.76003906 22.05347656 11.95757812 22.04445313 13.19140625 22.03515625 C14.58166016 22.01775391 14.58166016 22.01775391 16 22 C17.125 25.75 17.125 25.75 16 28 C15.360625 28.0825 14.72125 28.165 14.0625 28.25 C13.381875 28.4975 12.70125 28.745 12 29 C10.6954344 31.99615946 10.6954344 31.99615946 10 35 C8.68 34.67 7.36 34.34 6 34 C5.67 32.35 5.34 30.7 5 29 C4.34 29.66 3.68 30.32 3 31 C3 30.01 3 29.02 3 28 C2.34 28 1.68 28 1 28 C0.67 29.32 0.34 30.64 0 32 C-0.66 31.34 -1.32 30.68 -2 30 C-2.66 30.66 -3.32 31.32 -4 32 C-4.33 30.35 -4.66 28.7 -5 27 C-4.01 27 -3.02 27 -2 27 C-2.2784375 25.7934375 -2.2784375 25.7934375 -2.5625 24.5625 C-2.706875 23.716875 -2.85125 22.87125 -3 22 C-2.67 21.67 -2.34 21.34 -2 21 C-1.77329092 19.44246949 -1.60564908 17.87622641 -1.46484375 16.30859375 C-1.37783203 15.36435547 -1.29082031 14.42011719 -1.20117188 13.44726562 C-1.11416016 12.45404297 -1.02714844 11.46082031 -0.9375 10.4375 C-0.80118164 8.94186523 -0.80118164 8.94186523 -0.66210938 7.41601562 C-0.43741186 4.94434298 -0.21689649 2.47236744 0 0 Z " fill="#F9F6F0" transform="translate(35,69)"/>
<path d="M0 0 C4.70588235 0.70588235 4.70588235 0.70588235 6 2 C6.25156269 5.63899175 6.18522226 9.29083673 6.1875 12.9375 C6.19974609 13.96552734 6.21199219 14.99355469 6.22460938 16.05273438 C6.22654297 17.03435547 6.22847656 18.01597656 6.23046875 19.02734375 C6.23457764 19.93218506 6.23868652 20.83702637 6.24291992 21.76928711 C6 24 6 24 4 26 C1.375 25.625 1.375 25.625 -1 25 C-1.02886984 21.02084841 -1.04675406 17.04172347 -1.0625 13.0625 C-1.07087891 11.92619141 -1.07925781 10.78988281 -1.08789062 9.61914062 C-1.09111328 8.53955078 -1.09433594 7.45996094 -1.09765625 6.34765625 C-1.10289307 5.34742432 -1.10812988 4.34719238 -1.11352539 3.31665039 C-1 1 -1 1 0 0 Z " fill="#152090" transform="translate(105,66)"/>
<path d="M0 0 C1.65 0 3.3 0 5 0 C5.33 0.66 5.66 1.32 6 2 C4.35 2.33 2.7 2.66 1 3 C0.95101562 4.13179688 0.90203125 5.26359375 0.8515625 6.4296875 C0.77653486 7.91148339 0.70098703 9.393253 0.625 10.875 C0.57859375 11.99455078 0.57859375 11.99455078 0.53125 13.13671875 C0.2265625 18.7734375 0.2265625 18.7734375 -2 21 C-6.55555556 20.44444444 -6.55555556 20.44444444 -8 19 C-8.07325168 16.13732433 -8.09238205 13.299281 -8.0625 10.4375 C-8.05798828 9.63119141 -8.05347656 8.82488281 -8.04882812 7.99414062 C-8.03700518 5.99606244 -8.01906914 3.99802217 -8 2 C-7.38640625 2.17402344 -6.7728125 2.34804687 -6.140625 2.52734375 C-3.7280202 3.06005393 -2.32473122 2.74723504 0 2 C0 1.34 0 0.68 0 0 Z " fill="#FCFDFC" transform="translate(75,65)"/>
<path d="M0 0 C2.0625 0.4375 2.0625 0.4375 4 1 C3.52897524 9.79246214 0.75783166 17.70615203 -2 26 C-3.65 25.67 -5.3 25.34 -7 25 C-6.3587977 19.50606211 -5.0961052 14.41494865 -3.5 9.125 C-3.27441406 8.35414062 -3.04882812 7.58328125 -2.81640625 6.7890625 C-1.13375235 1.13375235 -1.13375235 1.13375235 0 0 Z " fill="#1E0F89" transform="translate(141,65)"/>
<path d="M0 0 C4.37580386 0.7229589 6.09957056 2.80609367 8.78125 6.171875 C10 8 10 8 10.75 10.5 C9.55595886 14.48013715 7.18437684 17.36002482 4 20 C1.125 20.4375 1.125 20.4375 -1 20 C-0.5205537 15.78087253 0.16625119 13.20336822 3 10 C1.9790625 8.9171875 1.9790625 8.9171875 0.9375 7.8125 C-1 5 -1 5 -0.75 2.1875 C-0.5025 1.465625 -0.255 0.74375 0 0 Z " fill="#21108E" transform="translate(150,71)"/>
<path d="M0 0 C1.32 0.33 2.64 0.66 4 1 C3.67 8.26 3.34 15.52 3 23 C2.34 23 1.68 23 1 23 C1.33 24.32 1.66 25.64 2 27 C0.02 27 -1.96 27 -4 27 C-4 26.34 -4 25.68 -4 25 C-4.66 24.67 -5.32 24.34 -6 24 C-5.66226562 23.20335938 -5.32453125 22.40671875 -4.9765625 21.5859375 C-4.53054687 20.52632812 -4.08453125 19.46671875 -3.625 18.375 C-3.18414063 17.33085938 -2.74328125 16.28671875 -2.2890625 15.2109375 C0.69551331 7.80639238 0.69551331 7.80639238 0 0 Z " fill="#FBF8EE" transform="translate(23,66)"/>
<path d="M0 0 C0.33 0 0.66 0 1 0 C1 7.26 1 14.52 1 22 C-0.98 22.99 -0.98 22.99 -3 24 C-2.896875 23.154375 -2.79375 22.30875 -2.6875 21.4375 C-3.1031406 16.86545337 -5.13529464 14.45810861 -8 11 C-6.54821438 7.61250022 -4.63059397 5.54838791 -2 3 C-1.34 2.01 -0.68 1.02 0 0 Z " fill="#E1E5EF" transform="translate(103,68)"/>
<path d="M0 0 C2.625 0.375 2.625 0.375 5 1 C5.09038099 6.15171623 4.84681133 10.91913204 4 16 C2.68 16 1.36 16 0 16 C-0.66 16.99 -1.32 17.98 -2 19 C-2.05380578 16.20807795 -2.09357669 13.4171859 -2.125 10.625 C-2.14175781 9.8309375 -2.15851562 9.036875 -2.17578125 8.21875 C-2.19335473 6.14507985 -2.10335168 4.07116759 -2 2 C-1.34 1.34 -0.68 0.68 0 0 Z " fill="#E68B20" transform="translate(62,66)"/>
<path d="M0 0 C0.598125 0.165 1.19625 0.33 1.8125 0.5 C4.25988354 1.05940195 5.63996734 0.75858193 8 0 C8.33 0.66 8.66 1.32 9 2 C9.66 1.34 10.32 0.68 11 0 C11.33 0.66 11.66 1.32 12 2 C12.33 1.34 12.66 0.68 13 0 C14.66666667 0 16.33333333 0 18 0 C18 1.98 18 3.96 18 6 C18.99 6.33 19.98 6.66 21 7 C19.54207116 7.05399736 18.08357288 7.09279177 16.625 7.125 C15.81289063 7.14820312 15.00078125 7.17140625 14.1640625 7.1953125 C12 7 12 7 10 5 C9.34 5.66 8.68 6.32 8 7 C6.66158328 6.68770276 5.32860925 6.35169068 4 6 C2.948125 6.2784375 2.948125 6.2784375 1.875 6.5625 C1.25625 6.706875 0.6375 6.85125 0 7 C-0.66 6.34 -1.32 5.68 -2 5 C-1.46428571 1.46428571 -1.46428571 1.46428571 0 0 Z " fill="#9B98AC" transform="translate(23,97)"/>
<path d="M0 0 C5 0 5 0 6.8125 1 C8.71020228 4.19613015 8.55003751 7.383315 8 11 C6.8125 13 6.8125 13 5 14 C3.35 14 1.7 14 0 14 C0 9.38 0 4.76 0 0 Z " fill="#FAF2E6" transform="translate(43,72)"/>
<path d="M0 0 C1.67542976 0.28604898 3.34385343 0.61781233 5 1 C6.71050559 5.97601626 5.00885647 9.42616295 3 14 C1.02 14 -0.96 14 -3 14 C-4.16516703 10.60548006 -3.83093313 8.65924103 -2.625 5.3125 C-2.34914063 4.52488281 -2.07328125 3.73726563 -1.7890625 2.92578125 C-1 1 -1 1 0 0 Z " fill="#E5871B" transform="translate(19,66)"/>
<path d="M0 0 C-0.33 1.65 -0.66 3.3 -1 5 C-0.01 5 0.98 5 2 5 C2 7.31 2 9.62 2 12 C1.01 11.34 0.02 10.68 -1 10 C-1.33 10.66 -1.66 11.32 -2 12 C-2.66 12 -3.32 12 -4 12 C-4 10.35 -4 8.7 -4 7 C-4.99 7.495 -4.99 7.495 -6 8 C-6 9.32 -6 10.64 -6 12 C-7.65 12 -9.3 12 -11 12 C-11 9.69 -11 7.38 -11 5 C-7.86501708 3.14223235 -5.62528568 2.79859524 -2 3 C-2 2.34 -2 1.68 -2 1 C-3.32 0.67 -4.64 0.34 -6 0 C-2.25 -1.125 -2.25 -1.125 0 0 Z " fill="#BCB7C3" transform="translate(17,92)"/>
<path d="M0 0 C2.625 0.375 2.625 0.375 5 1 C8.25601751 9.03501094 8.25601751 9.03501094 7.1875 13.0625 C6.795625 13.701875 6.40375 14.34125 6 15 C5.21625 14.195625 4.4325 13.39125 3.625 12.5625 C1.28017144 10.01309583 1.28017144 10.01309583 -1 9 C-1.75 5.5625 -1.75 5.5625 -2 2 C-1.34 1.34 -0.68 0.68 0 0 Z " fill="#E78216" transform="translate(3,66)"/>
<path d="M0 0 C0.89589844 -0.01417969 1.79179688 -0.02835937 2.71484375 -0.04296875 C5.0625 0.1875 5.0625 0.1875 7.0625 2.1875 C6.6875 4.3125 6.6875 4.3125 6.0625 6.1875 C1.95107686 7.05306277 -1.74588094 7.1875 -5.9375 7.1875 C-5.98004356 5.18795254 -5.97830783 3.18708364 -5.9375 1.1875 C-4.27188601 -0.47811399 -2.27787295 0.01634055 0 0 Z " fill="#EBEAEF" transform="translate(51.9375,96.8125)"/>
<path d="M0 0 C0.99 0.495 0.99 0.495 2 1 C2.20646544 2.58290174 2.40655065 4.16684351 2.578125 5.75390625 C3.29216566 9.55551163 4.82534865 13.06337164 6.2578125 16.64453125 C7 19 7 19 6 21 C4.33388095 21.042721 2.66617115 21.04063832 1 21 C0 20 0 20 -0.11352539 18.05053711 C-0.10567017 16.8015564 -0.10567017 16.8015564 -0.09765625 15.52734375 C-0.09443359 14.62822266 -0.09121094 13.72910156 -0.08789062 12.80273438 C-0.07951172 11.85720703 -0.07113281 10.91167969 -0.0625 9.9375 C-0.05798828 8.98810547 -0.05347656 8.03871094 -0.04882812 7.06054688 C-0.0370011 4.70696935 -0.02052025 2.35351523 0 0 Z " fill="#FBF6ED" transform="translate(0,67)"/>
<path d="M0 0 C0.33 0 0.66 0 1 0 C1 4.95 1 9.9 1 15 C-0.65 15.33 -2.3 15.66 -4 16 C-5 15 -5 15 -5.09765625 12.05859375 C-5.08605469 10.86363281 -5.07445313 9.66867188 -5.0625 8.4375 C-5.05347656 7.23996094 -5.04445313 6.04242188 -5.03515625 4.80859375 C-5.02355469 3.88175781 -5.01195313 2.95492187 -5 2 C-4.01 3.485 -4.01 3.485 -3 5 C-2.01 4.67 -1.02 4.34 0 4 C0 2.68 0 1.36 0 0 Z " fill="#DA730A" transform="translate(32,76)"/>
<path d="M0 0 C1.796875 0.68359375 1.796875 0.68359375 2.609375 2.30859375 C2.796875 4.68359375 2.796875 4.68359375 0.359375 7.74609375 C-0.9090625 9.20015625 -0.9090625 9.20015625 -2.203125 10.68359375 C-2.203125 11.67359375 -2.203125 12.66359375 -2.203125 13.68359375 C-3.193125 13.35359375 -4.183125 13.02359375 -5.203125 12.68359375 C-4.873125 11.36359375 -4.543125 10.04359375 -4.203125 8.68359375 C-5.523125 7.69359375 -6.843125 6.70359375 -8.203125 5.68359375 C-7.30284912 4.64827649 -6.38219465 3.6306521 -5.453125 2.62109375 C-4.68742187 1.76837891 -4.68742187 1.76837891 -3.90625 0.8984375 C-2.203125 -0.31640625 -2.203125 -0.31640625 0 0 Z " fill="#1C2494" transform="translate(98.203125,66.31640625)"/>
<path d="M0 0 C0.33 0.66 0.66 1.32 1 2 C1.66 2 2.32 2 3 2 C3.33 3.65 3.66 5.3 4 7 C4.99 6.01 5.98 5.02 7 4 C7.31563182 9.26053037 6.66590937 12.44573816 4 17 C1.44335441 14.77682992 0.6063385 13.31154106 0 10 C-0.06624507 8.25113019 -0.08552595 6.49997252 -0.0625 4.75 C-0.05347656 3.85796875 -0.04445312 2.9659375 -0.03515625 2.046875 C-0.02355469 1.37140625 -0.01195312 0.6959375 0 0 Z " fill="#E17E0F" transform="translate(36,70)"/>
<path d="M0 0 C1.98 0.495 1.98 0.495 4 1 C4 5.95 4 10.9 4 16 C2.35 15.67 0.7 15.34 -1 15 C-0.67 10.05 -0.34 5.1 0 0 Z " fill="#0C289A" transform="translate(105,76)"/>
<path d="M0 0 C1.65 0 3.3 0 5 0 C5.33 0.66 5.66 1.32 6 2 C4.35 2.33 2.7 2.66 1 3 C0.67 8.28 0.34 13.56 0 19 C-0.33 19 -0.66 19 -1 19 C-1.33 14.38 -1.66 9.76 -2 5 C-2.66 5.66 -3.32 6.32 -4 7 C-4.66 6.34 -5.32 5.68 -6 5 C-6.33 9.62 -6.66 14.24 -7 19 C-7.33 19 -7.66 19 -8 19 C-8 13.39 -8 7.78 -8 2 C-6.68 2.33 -5.36 2.66 -4 3 C-1.81296615 2.62092718 -1.81296615 2.62092718 0 2 C0 1.34 0 0.68 0 0 Z " fill="#F6E4C9" transform="translate(75,65)"/>
<path d="M0 0 C0.33 1.32 0.66 2.64 1 4 C3.31 4 5.62 4 8 4 C8 9.94 8 15.88 8 22 C7.67 22 7.34 22 7 22 C7 16.39 7 10.78 7 5 C4.69 5 2.38 5 0 5 C0.33 10.94 0.66 16.88 1 23 C-0.32 23.33 -1.64 23.66 -3 24 C-2.67 23.34 -2.34 22.68 -2 22 C-1.85994483 20.41878432 -1.77444016 18.83252278 -1.71875 17.24609375 C-1.68136719 16.30958984 -1.64398438 15.37308594 -1.60546875 14.40820312 C-1.53501774 12.42383304 -1.46470578 10.43945801 -1.39453125 8.45507812 C-1.35714844 7.51986328 -1.31976563 6.58464844 -1.28125 5.62109375 C-1.25095703 4.7592749 -1.22066406 3.89745605 -1.18945312 3.00952148 C-1 1 -1 1 0 0 Z " fill="#C6CCE1" transform="translate(112,68)"/>
<path d="M0 0 C0.66 1.32 1.32 2.64 2 4 C2.66 4.66 3.32 5.32 4 6 C4.66 4.35 5.32 2.7 6 1 C6.33 1 6.66 1 7 1 C7 2.65 7 4.3 7 6 C8.98 6 10.96 6 13 6 C13 6.99 13 7.98 13 9 C6.565 9.495 6.565 9.495 0 10 C0 6.7 0 3.4 0 0 Z " fill="#D56E08" transform="translate(36,80)"/>
<path d="M0 0 C0.33 0 0.66 0 1 0 C1.33 5.28 1.66 10.56 2 16 C2.99 14.68 3.98 13.36 5 12 C5.66 12 6.32 12 7 12 C7.33 11.34 7.66 10.68 8 10 C8.99 10.33 9.98 10.66 11 11 C11 11.66 11 12.32 11 13 C9.35 13.33 7.7 13.66 6 14 C5.87625 14.94875 5.7525 15.8975 5.625 16.875 C5 20 5 20 3 22 C2.01 22 1.02 22 0 22 C0 14.74 0 7.48 0 0 Z " fill="#222F81" transform="translate(79,68)"/>
<path d="M0 0 C2.0625 0.4375 2.0625 0.4375 4 1 C3.34 1 2.68 1 2 1 C2.05220703 2.69769531 2.05220703 2.69769531 2.10546875 4.4296875 C2.13360336 5.91144353 2.16090387 7.39321556 2.1875 8.875 C2.22520508 9.99455078 2.22520508 9.99455078 2.26367188 11.13671875 C2.29296875 13.3046875 2.29296875 13.3046875 2 17 C1.01 17.66 0.02 18.32 -1 19 C-1.02683987 16.02077407 -1.04676037 13.04178705 -1.0625 10.0625 C-1.07087891 9.21236328 -1.07925781 8.36222656 -1.08789062 7.48632812 C-1.09111328 6.67744141 -1.09433594 5.86855469 -1.09765625 5.03515625 C-1.10289307 4.2862915 -1.10812988 3.53742676 -1.11352539 2.76586914 C-1 1 -1 1 0 0 Z " fill="#E07A0A" transform="translate(76,67)"/>
<path d="M0 0 C0.33 0.66 0.66 1.32 1 2 C1.66 2.33 2.32 2.66 3 3 C2.67 3.33 2.34 3.66 2 4 C1.76321284 6.69235776 1.57801975 9.36498156 1.4375 12.0625 C1.39431641 12.82111328 1.35113281 13.57972656 1.30664062 14.36132812 C1.20026367 16.24065438 1.09960066 18.12030244 1 20 C0.34 20 -0.32 20 -1 20 C-1.12117188 19.09636719 -1.24234375 18.19273438 -1.3671875 17.26171875 C-1.53476562 16.08222656 -1.70234375 14.90273437 -1.875 13.6875 C-2.03742187 12.51574219 -2.19984375 11.34398438 -2.3671875 10.13671875 C-2.82300621 6.85469105 -2.82300621 6.85469105 -5 4 C-4.360625 3.71125 -3.72125 3.4225 -3.0625 3.125 C-0.84793921 2.17176549 -0.84793921 2.17176549 0 0 Z " fill="#F9EED8" transform="translate(59,64)"/>
<path d="M0 0 C1.98 0.99 1.98 0.99 4 2 C4.33 1.34 4.66 0.68 5 0 C5.66 0 6.32 0 7 0 C8.20272819 2.40545638 8.10071472 3.94996953 8.0625 6.625 C8.05347656 7.44226563 8.04445313 8.25953125 8.03515625 9.1015625 C8.02355469 9.72804688 8.01195312 10.35453125 8 11 C7.01 10.67 6.02 10.34 5 10 C5 9.01 5 8.02 5 7 C4.34 7 3.68 7 3 7 C2.67 7.66 2.34 8.32 2 9 C1.34 6.03 0.68 3.06 0 0 Z " fill="#E48110" transform="translate(50,72)"/>
<path d="M0 0 C2.125 0.375 2.125 0.375 4 1 C3 4 3 4 0.80078125 5.1796875 C-2.2240827 6.06563092 -4.66890834 6.2007492 -7.8125 6.125 C-9.27623047 6.09792969 -9.27623047 6.09792969 -10.76953125 6.0703125 C-11.50558594 6.04710938 -12.24164063 6.02390625 -13 6 C-13.33 5.34 -13.66 4.68 -14 4 C-12.73542969 3.81824219 -12.73542969 3.81824219 -11.4453125 3.6328125 C-10.34960938 3.46523437 -9.25390625 3.29765625 -8.125 3.125 C-7.03445312 2.96257812 -5.94390625 2.80015625 -4.8203125 2.6328125 C-1.88067286 2.23743487 -1.88067286 2.23743487 0 0 Z " fill="#D27624" transform="translate(51,86)"/>
<path d="M0 0 C0.61875 0.804375 1.2375 1.60875 1.875 2.4375 C3.74164041 5.03874519 3.74164041 5.03874519 6 6 C6.66 5.01 7.32 4.02 8 3 C8.33 4.98 8.66 6.96 9 9 C9.66 9 10.32 9 11 9 C10.67 9.66 10.34 10.32 10 11 C8.68 10.67 7.36 10.34 6 10 C5.67 10.99 5.34 11.98 5 13 C3 12 3 12 2.1484375 10.0390625 C1.89320312 9.24242188 1.63796875 8.44578125 1.375 7.625 C1.11460938 6.83351563 0.85421875 6.04203125 0.5859375 5.2265625 C0 3 0 3 0 0 Z " fill="#DC7D16" transform="translate(3,74)"/>
<path d="M0 0 C0.66 0.66 1.32 1.32 2 2 C2.33 1.34 2.66 0.68 3 0 C4.66666667 0 6.33333333 0 8 0 C8 1.98 8 3.96 8 6 C8.99 6.33 9.98 6.66 11 7 C9.54207116 7.05399736 8.08357288 7.09279177 6.625 7.125 C5.81289063 7.14820312 5.00078125 7.17140625 4.1640625 7.1953125 C2 7 2 7 0 5 C-0.66 5.66 -1.32 6.32 -2 7 C-1.125 2.25 -1.125 2.25 0 0 Z " fill="#88859A" transform="translate(33,97)"/>
<path d="M0 0 C1.65 0.33 3.3 0.66 5 1 C5.625 3.3125 5.625 3.3125 6 6 C5.01 7.485 5.01 7.485 4 9 C3.67 8.34 3.34 7.68 3 7 C2.01 6.67 1.02 6.34 0 6 C-0.33 6.66 -0.66 7.32 -1 8 C-1.625 5.6875 -1.625 5.6875 -2 3 C-1.34 2.01 -0.68 1.02 0 0 Z " fill="#EA911F" transform="translate(19,66)"/>
<path d="M0 0 C2.37948772 0.17625835 3.70225849 0.69719773 5.37890625 2.40234375 C6.62115486 3.90649092 7.81376056 5.45129851 9 7 C8.67 7.66 8.34 8.32 8 9 C6.68 8.01 5.36 7.02 4 6 C3.34 6.66 2.68 7.32 2 8 C0.4375 6.8125 0.4375 6.8125 -1 5 C-0.6875 2.3125 -0.6875 2.3125 0 0 Z " fill="#170A82" transform="translate(150,71)"/>
<path d="M0 0 C1.1446875 0.2784375 1.1446875 0.2784375 2.3125 0.5625 C5.08967375 1.22819173 5.08967375 1.22819173 8 0 C8 1.98 8 3.96 8 6 C8.99 6.33 9.98 6.66 11 7 C7.66666667 6.33333333 4.33333333 5.66666667 1 5 C0.67 5.66 0.34 6.32 0 7 C0 4.69 0 2.38 0 0 Z " fill="#A4A1B2" transform="translate(100,97)"/>
<path d="M0 0 C1.67542976 0.28604898 3.34385343 0.61781233 5 1 C5.33 2.32 5.66 3.64 6 5 C4.35 5 2.7 5 1 5 C0.67 6.32 0.34 7.64 0 9 C-2 6 -2 6 -1.6875 3.375 C-1 1 -1 1 0 0 Z " fill="#EB992F" transform="translate(3,66)"/>
<path d="M0 0 C0.53625 0.350625 1.0725 0.70125 1.625 1.0625 C4.73274763 2.28924249 6.79431703 1.72856431 10 1 C10 2.65 10 4.3 10 6 C7.69 6.33 5.38 6.66 3 7 C0 3.375 0 3.375 0 0 Z " fill="#D26C0C" transform="translate(7,85)"/>
<path d="M0 0 C0.33 0.99 0.66 1.98 1 3 C1.66 3 2.32 3 3 3 C3 5.97 3 8.94 3 12 C1.68 11.67 0.36 11.34 -1 11 C-1.02688151 9.35425434 -1.04634123 7.70838587 -1.0625 6.0625 C-1.07410156 5.14597656 -1.08570312 4.22945313 -1.09765625 3.28515625 C-1 1 -1 1 0 0 Z " fill="#0C319C" transform="translate(122,80)"/>
<path d="M0 0 C2.475 0.495 2.475 0.495 5 1 C5.625 2.875 5.625 2.875 6 5 C5.34 5.66 4.68 6.32 4 7 C2.68 7 1.36 7 0 7 C0 4.69 0 2.38 0 0 Z " fill="#9694A5" transform="translate(134,97)"/>
<path d="M0 0 C2.475 0.495 2.475 0.495 5 1 C5.625 2.875 5.625 2.875 6 5 C5.34 5.66 4.68 6.32 4 7 C2.68 7 1.36 7 0 7 C0 4.69 0 2.38 0 0 Z " fill="#928EA6" transform="translate(53,97)"/>
<path d="M0 0 C1.67542976 0.28604898 3.34385343 0.61781233 5 1 C4.67 2.65 4.34 4.3 4 6 C2.0625 6.5625 2.0625 6.5625 0 7 C-1 6 -1 6 -1.125 3.5 C-1 1 -1 1 0 0 Z " fill="#9692A8" transform="translate(62,97)"/>
<path d="M0 0 C0.33 0 0.66 0 1 0 C1.02698189 1.62490954 1.04638757 3.24994633 1.0625 4.875 C1.07410156 5.77992187 1.08570312 6.68484375 1.09765625 7.6171875 C1 10 1 10 0 12 C-1.65 11.67 -3.3 11.34 -5 11 C-5 9.35 -5 7.7 -5 6 C-2.525 6.495 -2.525 6.495 0 7 C0 4.69 0 2.38 0 0 Z " fill="#DC7408" transform="translate(66,75)"/>
<path d="M0 0 C2.0625 0.4375 2.0625 0.4375 4 1 C4.33 2.32 4.66 3.64 5 5 C1.71303767 5.79953138 0.28976808 6.09658936 -3 5 C-1.125 1.125 -1.125 1.125 0 0 Z " fill="#14168E" transform="translate(96,66)"/>
<path d="M0 0 C0.99 0 1.98 0 3 0 C3 0.99 3 1.98 3 3 C3.66 3.66 4.32 4.32 5 5 C3 7 3 7 0.375 7.125 C-0.40875 7.08375 -1.1925 7.0425 -2 7 C-1.125 1.125 -1.125 1.125 0 0 Z " fill="#221489" transform="translate(151,84)"/>
<path d="M0 0 C1.98 0.495 1.98 0.495 4 1 C4 2.65 4 4.3 4 6 C2.68 6.33 1.36 6.66 0 7 C-0.93423645 3.98968256 -1.04449911 3.13349732 0 0 Z " fill="#8C889E" transform="translate(80,97)"/>
<path d="M0 0 C3 1 3 1 4 2 C4.66 1.34 5.32 0.68 6 0 C6 2.97 6 5.94 6 9 C3.35247996 6.42215154 1.05567935 4.08351902 -1 1 C-0.67 0.67 -0.34 0.34 0 0 Z " fill="#EEEDF4" transform="translate(154,70)"/>
<path d="M0 0 C0.66 0 1.32 0 2 0 C2.66 1.98 3.32 3.96 4 6 C3.34 6.66 2.68 7.32 2 8 C-0.125 7.625 -0.125 7.625 -2 7 C-1.34 7 -0.68 7 0 7 C-0.66 5.68 -1.32 4.36 -2 3 C-1.34 2.01 -0.68 1.02 0 0 Z " fill="#120486" transform="translate(154,80)"/>
<path d="M0 0 C2.05078125 0.03255208 4.1015625 0.06510417 6.15234375 0.09765625 C6.15234375 0.42765625 6.15234375 0.75765625 6.15234375 1.09765625 C4.50234375 1.09765625 2.85234375 1.09765625 1.15234375 1.09765625 C0.49234375 3.07765625 -0.16765625 5.05765625 -0.84765625 7.09765625 C-1.50765625 6.76765625 -2.16765625 6.43765625 -2.84765625 6.09765625 C-2.89037725 4.4315372 -2.88829457 2.7638274 -2.84765625 1.09765625 C-1.84765625 0.09765625 -1.84765625 0.09765625 0 0 Z " fill="#E98915" transform="translate(41.84765625,70.90234375)"/>
<path d="M0 0 C0.33 0.99 0.66 1.98 1 3 C1.66 3 2.32 3 3 3 C3.33 4.65 3.66 6.3 4 8 C2.02 8.66 0.04 9.32 -2 10 C-1.34 6.7 -0.68 3.4 0 0 Z " fill="#DFDCEB" transform="translate(145,67)"/>
<path d="M0 0 C0.99 0.99 1.98 1.98 3 3 C2.34 4.65 1.68 6.3 1 8 C-0.65 7.67 -2.3 7.34 -4 7 C-3.34 6.67 -2.68 6.34 -2 6 C-2 5.01 -2 4.02 -2 3 C-1.34 3 -0.68 3 0 3 C0 2.01 0 1.02 0 0 Z " fill="#14339C" transform="translate(97,82)"/>
<path d="M0 0 C1.98 0.99 1.98 0.99 4 2 C4 2.99 4 3.98 4 5 C4.99 5.33 5.98 5.66 7 6 C6.67 6.66 6.34 7.32 6 8 C4.35 7.67 2.7 7.34 1 7 C0.67 4.69 0.34 2.38 0 0 Z " fill="#DA7F20" transform="translate(51,77)"/>
<path d="M0 0 C1.9375 0.375 1.9375 0.375 4 1 C4.33 1.66 4.66 2.32 5 3 C4.34 3 3.68 3 3 3 C3 3.66 3 4.32 3 5 C0.03 4.505 0.03 4.505 -3 4 C-2.01 2.68 -1.02 1.36 0 0 Z " fill="#0C1B91" transform="translate(90,73)"/>
<path d="M0 0 C2.0625 0.4375 2.0625 0.4375 4 1 C3.34 1 2.68 1 2 1 C2 3.64 2 6.28 2 9 C1.34 9 0.68 9 0 9 C-0.87890625 2.84765625 -0.87890625 2.84765625 -1 1 C-0.67 0.67 -0.34 0.34 0 0 Z " fill="#EB8E19" transform="translate(76,67)"/>
<path d="M0 0 C0.33 0 0.66 0 1 0 C1.33 2.64 1.66 5.28 2 8 C0.35 8.33 -1.3 8.66 -3 9 C-2.30058404 5.85262818 -1.23921302 2.97411124 0 0 Z " fill="#10369F" transform="translate(84,83)"/>
<path d="M0 0 C0 2.97 0 5.94 0 9 C-0.33 8.34 -0.66 7.68 -1 7 C-1.66 7 -2.32 7 -3 7 C-3.33 5.02 -3.66 3.04 -4 1 C-1 0 -1 0 0 0 Z " fill="#0C1191" transform="translate(86,68)"/>
<path d="M0 0 C1.32 0.33 2.64 0.66 4 1 C3.34 2.65 2.68 4.3 2 6 C1.34 6 0.68 6 0 6 C-0.33 6.66 -0.66 7.32 -1 8 C-1.625 5.6875 -1.625 5.6875 -2 3 C-1.34 2.01 -0.68 1.02 0 0 Z " fill="#E9A038" transform="translate(19,66)"/>
<path d="M0 0 C1.70884005 1.62339805 3.37446717 3.29319053 5 5 C5 5.66 5 6.32 5 7 C3.35 7 1.7 7 0 7 C0 4.69 0 2.38 0 0 Z " fill="#7D7991" transform="translate(6,97)"/>
<path d="M0 0 C1.98 0 3.96 0 6 0 C5.67 1.32 5.34 2.64 5 4 C3.35 3.67 1.7 3.34 0 3 C0 2.01 0 1.02 0 0 Z " fill="#CF6A0C" transform="translate(27,88)"/>
<path d="M0 0 C0.66 0.66 1.32 1.32 2 2 C1.67 2.99 1.34 3.98 1 5 C-0.65 5.33 -2.3 5.66 -4 6 C-4.66 4.68 -5.32 3.36 -6 2 C-3.525 2.495 -3.525 2.495 -1 3 C-0.67 2.01 -0.34 1.02 0 0 Z " fill="#D3751C" transform="translate(67,84)"/>
<path d="M0 0 C1.32 0.33 2.64 0.66 4 1 C3.67 2.32 3.34 3.64 3 5 C2.34 5 1.68 5 1 5 C0.67 5.66 0.34 6.32 0 7 C0 4.69 0 2.38 0 0 Z " fill="#716C89" transform="translate(100,97)"/>
<path d="M0 0 C1.32 0.33 2.64 0.66 4 1 C3.34 1 2.68 1 2 1 C2 1.66 2 2.32 2 3 C2.66 3.33 3.32 3.66 4 4 C3.34 4 2.68 4 2 4 C2 4.66 2 5.32 2 6 C2.66 6.33 3.32 6.66 4 7 C2.68 7 1.36 7 0 7 C0 4.69 0 2.38 0 0 Z " fill="#75708D" transform="translate(127,97)"/>
<path d="M0 0 C1.5 1.3125 1.5 1.3125 3 3 C3 3.99 3 4.98 3 6 C1 7.6875 1 7.6875 -1 9 C-1.09765625 2.84765625 -1.09765625 2.84765625 -1 1 C-0.67 0.67 -0.34 0.34 0 0 Z " fill="#E37F15" transform="translate(29,74)"/>
<path d="M0 0 C1.65 0 3.3 0 5 0 C5.33 0.99 5.66 1.98 6 3 C4.02 3.66 2.04 4.32 0 5 C0 3.35 0 1.7 0 0 Z " fill="#EB8B1B" transform="translate(4,71)"/>
<path d="M0 0 C2.0625 0.4375 2.0625 0.4375 4 1 C3.34 1.66 2.68 2.32 2 3 C2.66 4.32 3.32 5.64 4 7 C2.68 7.33 1.36 7.66 0 8 C-0.38063221 5.6739143 -0.71269945 3.33944736 -1 1 C-0.67 0.67 -0.34 0.34 0 0 Z " fill="#F19834" transform="translate(28,66)"/>
<path d="M0 0 C0.99 0.33 1.98 0.66 3 1 C2.34 1 1.68 1 1 1 C1 1.66 1 2.32 1 3 C1.66 3.33 2.32 3.66 3 4 C2.34 4 1.68 4 1 4 C1 4.66 1 5.32 1 6 C1.66 6.33 2.32 6.66 3 7 C1.68 7 0.36 7 -1 7 C-1.04254356 5.00045254 -1.04080783 2.99958364 -1 1 C-0.67 0.67 -0.34 0.34 0 0 Z " fill="#6D6A86" transform="translate(47,97)"/>
<path d="M0 0 C1.98 0.495 1.98 0.495 4 1 C4 2.32 4 3.64 4 5 C2.35 4.67 0.7 4.34 -1 4 C-0.67 2.68 -0.34 1.36 0 0 Z " fill="#DE7A15" transform="translate(15,79)"/>
<path d="M0 0 C2.475 0.495 2.475 0.495 5 1 C4.67 3.31 4.34 5.62 4 8 C3.566875 7.0409375 3.566875 7.0409375 3.125 6.0625 C2.17176549 3.84793921 2.17176549 3.84793921 0 3 C0 2.01 0 1.02 0 0 Z " fill="#0C0381" transform="translate(137,77)"/>
<path d="M0 0 C1.32 0.33 2.64 0.66 4 1 C3.51171875 7.0546875 3.51171875 7.0546875 3 9 C2.01 9.66 1.02 10.32 0 11 C0.08378906 10.37351562 0.16757812 9.74703125 0.25390625 9.1015625 C0.35574219 8.28429687 0.45757813 7.46703125 0.5625 6.625 C0.66691406 5.81289062 0.77132813 5.00078125 0.87890625 4.1640625 C1.18237328 1.95100814 1.18237328 1.95100814 0 0 Z " fill="#F9EED3" transform="translate(23,66)"/>
<path d="M0 0 C0.33 0.66 0.66 1.32 1 2 C1.99 2.33 2.98 2.66 4 3 C4 3.99 4 4.98 4 6 C2.35 5.67 0.7 5.34 -1 5 C-0.67 3.35 -0.34 1.7 0 0 Z " fill="#0F379D" transform="translate(105,86)"/>
<path d="M0 0 C0.33 0.99 0.66 1.98 1 3 C0.67 3.66 0.34 4.32 0 5 C-1.65 4.67 -3.3 4.34 -5 4 C-5 3.34 -5 2.68 -5 2 C-3.35 1.34 -1.7 0.68 0 0 Z " fill="#0E0280" transform="translate(139,86)"/>
<path d="M0 0 C1.32 1.32 2.64 2.64 4 4 C3.01 4.33 2.02 4.66 1 5 C0.67 4.67 0.34 4.34 0 4 C-0.66 4.99 -1.32 5.98 -2 7 C-2.125 4.625 -2.125 4.625 -2 2 C-1.34 1.34 -0.68 0.68 0 0 Z " fill="#D3DBF2" transform="translate(88,83)"/>
<path d="M0 0 C0.99 0 1.98 0 3 0 C3 1.98 3 3.96 3 6 C2.01 5.67 1.02 5.34 0 5 C0 3.35 0 1.7 0 0 Z " fill="#C6C4CE" transform="translate(28,97)"/>
<path d="M0 0 C0.66 0 1.32 0 2 0 C2 1.98 2 3.96 2 6 C1.01 6 0.02 6 -1 6 C-1.042721 4.33388095 -1.04063832 2.66617115 -1 1 C-0.67 0.67 -0.34 0.34 0 0 Z " fill="#EBEAEE" transform="translate(98,97)"/>
<path d="M0 0 C0.99 0 1.98 0 3 0 C3.66 1.65 4.32 3.3 5 5 C3.35 4.67 1.7 4.34 0 4 C0 2.68 0 1.36 0 0 Z " fill="#FBF5E7" transform="translate(68,81)"/>
<path d="M0 0 C2.475 0.495 2.475 0.495 5 1 C4.1875 2.9375 4.1875 2.9375 3 5 C2.01 5.33 1.02 5.66 0 6 C0 4.02 0 2.04 0 0 Z " fill="#292999" transform="translate(81,66)"/>
</svg>
